<!-- Generator: Avocode 2.1.0 - http://avocode.com -->
<svg height="40" width="40" xmlns:xlink="http://www.w3.org/1999/xlink" xmlns="http://www.w3.org/2000/svg" viewBox="0 0 40 40">
    <path fill="#ffffff" fill-rule="evenodd" d="M 20 3.2 C 29.26 3.2 36.8 10.74 36.8 20 C 36.8 29.26 29.26 36.84 20 36.84 C 10.74 36.84 3.2 29.26 3.2 20 C 3.2 10.74 10.74 3.2 20 3.2 M 20 0.8 C 9.4 0.8 0.8 9.4 0.8 20 C 0.8 30.6 9.4 39.2 20 39.2 C 30.6 39.2 39.2 30.6 39.2 20 C 39.2 9.4 30.6 0.8 20 0.8 C 20 0.8 20 0.8 20 0.8 Z M 20 6.8 C 20.66 6.8 21.2 7.34 21.2 8 C 21.2 8 21.2 20 21.2 20 C 21.2 20.66 20.66 21.2 20 21.2 C 19.34 21.2 18.8 20.66 18.8 20 C 18.8 20 18.8 8 18.8 8 C 18.8 7.34 19.34 6.8 20 6.8 Z M 26.86 26.87 C 26.39 27.34 25.63 27.34 25.17 26.87 C 25.17 26.87 19.23 20.93 19.23 20.93 C 18.76 20.47 18.76 19.7 19.23 19.24 C 19.7 18.77 20.46 18.77 20.92 19.24 C 20.92 19.24 26.86 25.18 26.86 25.18 C 27.33 25.64 27.33 26.41 26.86 26.87 Z" />
</svg>