<?xml version="1.0" encoding="utf-8"?>
<!-- Generator: Adobe Illustrator 15.1.0, SVG Export Plug-In . SVG Version: 6.00 Build 0)  -->
<!DOCTYPE svg PUBLIC "-//W3C//DTD SVG 1.1//EN" "http://www.w3.org/Graphics/SVG/1.1/DTD/svg11.dtd">
<svg version="1.1" id="Layer_1" xmlns="http://www.w3.org/2000/svg" xmlns:xlink="http://www.w3.org/1999/xlink" x="0px" y="0px"
	 width="18px" height="18px" viewBox="0 0 18 18" enable-background="new 0 0 18 18" xml:space="preserve">
<path d="M9,0c-3.48,0-6.303,2.82-6.303,6.299C2.697,9.779,9,18,9,18s6.303-8.221,6.303-11.701C15.303,2.821,12.48,0,9,0z M9,15.299
	c0,0-4.502-6.299-4.502-9C4.498,3.819,6.518,1.8,9,1.8s4.502,2.019,4.502,4.499C13.502,9,9,15.299,9,15.299z M9,4.171
	c-1.492,0-2.701,1.209-2.701,2.7S7.508,9.571,9,9.571s2.701-1.208,2.701-2.699S10.492,4.171,9,4.171z M9,7.771
	c-0.496,0-0.9-0.403-0.9-0.899s0.404-0.9,0.9-0.9s0.9,0.404,0.9,0.9S9.496,7.771,9,7.771z"/>
</svg>
