<?xml version="1.0" encoding="utf-8"?>
<!-- Generator: Adobe Illustrator 15.1.0, SVG Export Plug-In . SVG Version: 6.00 Build 0)  -->
<!DOCTYPE svg PUBLIC "-//W3C//DTD SVG 1.1//EN" "http://www.w3.org/Graphics/SVG/1.1/DTD/svg11.dtd">
<svg version="1.1" id="Layer_1" xmlns="http://www.w3.org/2000/svg" xmlns:xlink="http://www.w3.org/1999/xlink" x="0px" y="0px"
	 width="18px" height="18px" viewBox="0 0 18 18" enable-background="new 0 0 18 18" xml:space="preserve">
<path d="M12.043,9.545c1.105-0.891,1.814-2.253,1.814-3.783c0-2.684-2.176-4.858-4.857-4.858c-2.684,0-4.858,2.175-4.858,4.858
	c0,1.53,0.71,2.893,1.815,3.783c-2.963,1.113-5.054,3.863-5.054,7.552h1.619c0-4.049,2.905-6.478,6.478-6.478
	c3.57,0,6.476,2.429,6.476,6.478h1.619C17.096,13.408,15.004,10.658,12.043,9.545z M9,9C7.214,9,5.761,7.547,5.761,5.762
	c0-1.786,1.453-3.239,3.239-3.239c1.785,0,3.238,1.453,3.238,3.239C12.238,7.547,10.785,9,9,9z"/>
</svg>
