<?xml version="1.0" encoding="utf-8"?>
<!-- Generator: Adobe Illustrator 15.1.0, SVG Export Plug-In . SVG Version: 6.00 Build 0)  -->
<!DOCTYPE svg PUBLIC "-//W3C//DTD SVG 1.1//EN" "http://www.w3.org/Graphics/SVG/1.1/DTD/svg11.dtd">
<svg version="1.1" id="Layer_1" xmlns="http://www.w3.org/2000/svg" xmlns:xlink="http://www.w3.org/1999/xlink" x="0px" y="0px"
	 width="25px" height="25px" viewBox="0 0 25 25" enable-background="new 0 0 25 25" xml:space="preserve">
<g>
	<g>
		<path d="M17.924,0.145H7.076c-3.828,0-6.932,3.103-6.932,6.931v10.848c0,3.828,3.104,6.932,6.932,6.932h10.848
			c3.828,0,6.932-3.104,6.932-6.932V7.076C24.855,3.248,21.752,0.145,17.924,0.145z M22.796,18.025c0,2.482-2.288,4.771-4.769,4.771
			H6.972c-2.479,0-4.768-2.289-4.768-4.771V6.974c0-2.481,2.288-4.771,4.768-4.771h11.056c2.48,0,4.769,2.289,4.769,4.771V18.025z
			 M12.5,6.021c-3.572,0-6.479,2.906-6.479,6.479c0,3.572,2.907,6.48,6.479,6.48s6.481-2.908,6.481-6.48
			C18.981,8.927,16.072,6.021,12.5,6.021z M12.5,16.547c-2.232,0-4.048-1.816-4.048-4.046c0-2.23,1.815-4.049,4.048-4.049
			s4.048,1.818,4.048,4.049C16.548,14.73,14.732,16.547,12.5,16.547z M19.126,4.288c-0.427,0-0.837,0.17-1.136,0.468
			c-0.301,0.3-0.471,0.713-0.471,1.139c0,0.419,0.17,0.834,0.471,1.133c0.299,0.299,0.709,0.471,1.136,0.471
			c0.423,0,0.835-0.172,1.134-0.471c0.3-0.299,0.471-0.714,0.471-1.133c0-0.426-0.171-0.839-0.471-1.139
			C19.961,4.458,19.549,4.288,19.126,4.288z"/>
	</g>
</g>
</svg>
