<?xml version="1.0" encoding="utf-8"?>
<!-- Generator: Adobe Illustrator 15.1.0, SVG Export Plug-In . SVG Version: 6.00 Build 0)  -->
<!DOCTYPE svg PUBLIC "-//W3C//DTD SVG 1.1//EN" "http://www.w3.org/Graphics/SVG/1.1/DTD/svg11.dtd">
<svg version="1.1" id="Layer_1" xmlns="http://www.w3.org/2000/svg" xmlns:xlink="http://www.w3.org/1999/xlink" x="0px" y="0px"
	 width="24px" height="13px" viewBox="0 0 24 13" enable-background="new 0 0 24 13" xml:space="preserve">
<path d="M16.203,5.499L16.199,7.5H7.777l0.005-2.001H16.203z M6.362,10.508c-1.074,0-2.077-0.418-2.835-1.176
	s-1.175-1.76-1.175-2.834C2.351,4.291,4.15,2.492,6.362,2.487l3.64,0.005l-0.004-2.01L6.367,0.487c-3.319,0-6.015,2.695-6.015,6.015
	c-0.005,1.654,0.671,3.166,1.755,4.25c1.094,1.094,2.596,1.76,4.26,1.766l3.631-0.006l0.004-2L6.362,10.508z M23.648,6.498
	c0.004-3.324-2.682-6.011-6.016-6.016h-3.625l0.004,2.01l3.631-0.005c2.221,0.005,4.006,1.789,4.01,4.011
	c-0.004,2.211-1.803,4.01-4.01,4.01l-3.631,0.004l-0.004,2l3.631-0.004C20.967,12.518,23.658,9.826,23.648,6.498z"/>
</svg>
