<?xml version="1.0" encoding="utf-8"?>
<!-- Generator: Adobe Illustrator 15.1.0, SVG Export Plug-In . SVG Version: 6.00 Build 0)  -->
<!DOCTYPE svg PUBLIC "-//W3C//DTD SVG 1.1//EN" "http://www.w3.org/Graphics/SVG/1.1/DTD/svg11.dtd">
<svg version="1.1" id="Layer_1" xmlns="http://www.w3.org/2000/svg" xmlns:xlink="http://www.w3.org/1999/xlink" x="0px" y="0px"
	 width="70px" height="70px" viewBox="0 0 70 70" enable-background="new 0 0 70 70" xml:space="preserve">
<g>
	<path d="M70,70H0V0h70V70z M2.175,67.825h65.65V2.175H2.175V67.825z"/>
	<g>
		<path d="M15.314,17.944v3.023h-2.169v-8.933h3.471c3.548,0,4.07,4.377,1.328,5.692l1.914,2.833v0.408h-2.324l-1.863-3.023H15.314z
			 M15.314,15.966h1.251c1.313,0,1.328-1.838,0-1.838h-1.251V15.966z"/>
		<path d="M34.246,18.861h3.7v2.106h-5.895v-8.933h5.882v2.105h-3.688v1.302h3.611v2.118h-3.611V18.861z"/>
		<path d="M15.314,36.442v3.023h-2.169v-8.933h3.471c3.548,0,4.07,4.377,1.326,5.692l1.916,2.833v0.407h-2.324l-1.863-3.023H15.314z
			 M15.314,34.464h1.251c1.313,0,1.325-1.839,0-1.839h-1.251V34.464z"/>
		<path d="M34.994,30.399c2.551,0,4.63,1.99,4.63,4.619c0,2.592-2.079,4.582-4.63,4.582c-2.553,0-4.621-1.953-4.621-4.582
			S32.441,30.399,34.994,30.399z M37.43,35.019c0-3.369-4.887-3.382-4.887,0C32.543,38.388,37.43,38.362,37.43,35.019z"/>
		<path d="M34.994,48.897c2.551,0,4.63,1.991,4.63,4.619c0,2.592-2.079,4.582-4.63,4.582c-2.554,0-4.621-1.953-4.621-4.582
			C30.373,50.889,32.44,48.897,34.994,48.897z M37.43,53.517c0-3.368-4.888-3.381-4.888,0C32.542,56.887,37.43,56.861,37.43,53.517z
			"/>
		<path d="M51.609,57.965h-2.182v-8.933h1.735l2.348,3.459l2.348-3.459h1.71v8.933h-2.169V53.55l-1.289,1.901h-1.214l-1.287-1.928
			V57.965z"/>
		<rect x="52.466" y="15.442" width="2.064" height="2.064"/>
		<rect x="52.466" y="33.968" width="2.064" height="2.064"/>
		<rect x="15.47" y="52.466" width="2.064" height="2.064"/>
	</g>
</g>
</svg>
