<?xml version="1.0" encoding="utf-8"?>
<!-- Generator: Adobe Illustrator 15.1.0, SVG Export Plug-In . SVG Version: 6.00 Build 0)  -->
<!DOCTYPE svg PUBLIC "-//W3C//DTD SVG 1.1//EN" "http://www.w3.org/Graphics/SVG/1.1/DTD/svg11.dtd">
<svg version="1.1" id="Layer_1" xmlns="http://www.w3.org/2000/svg" xmlns:xlink="http://www.w3.org/1999/xlink" x="0px" y="0px"
	 width="20px" height="20px" viewBox="0 0 20 20" enable-background="new 0 0 20 20" xml:space="preserve">
<path d="M10,0.1c-3.827,0-6.93,3.103-6.93,6.931C3.07,10.856,10,19.9,10,19.9s6.93-9.044,6.93-12.87C16.93,3.202,13.826,0.1,10,0.1z
	 M10,16.926c0,0-4.955-6.929-4.955-9.896c0-2.733,2.217-4.949,4.955-4.949c2.739,0,4.955,2.216,4.955,4.949
	C14.955,9.997,10,16.926,10,16.926z M10,4.686c-1.637,0-2.969,1.331-2.969,2.975c0,1.64,1.332,2.969,2.969,2.969
	S12.981,9.3,12.981,7.66C12.981,6.017,11.637,4.686,10,4.686z M10,8.647c-0.538,0-0.994-0.443-0.994-0.987
	c0-0.55,0.456-0.994,0.994-0.994c0.537,0,0.994,0.444,0.994,0.994C10.994,8.204,10.537,8.647,10,8.647z"/>
</svg>
