<?xml version="1.0" encoding="utf-8"?>
<!-- Generator: Adobe Illustrator 15.1.0, SVG Export Plug-In . SVG Version: 6.00 Build 0)  -->
<!DOCTYPE svg PUBLIC "-//W3C//DTD SVG 1.1//EN" "http://www.w3.org/Graphics/SVG/1.1/DTD/svg11.dtd">
<svg version="1.1" id="Layer_1" xmlns="http://www.w3.org/2000/svg" xmlns:xlink="http://www.w3.org/1999/xlink" x="0px" y="0px"
	 width="20px" height="20px" viewBox="0 0 20 20" enable-background="new 0 0 20 20" xml:space="preserve">
<path d="M10.918,14.5c0,0.496-0.403,0.9-0.9,0.9s-0.899-0.404-0.899-0.9c0-0.497,0.402-0.899,0.899-0.899S10.918,14.003,10.918,14.5
	z M15.4,2.8v14.4c0,0.995-0.807,1.8-1.801,1.8H6.4c-0.994,0-1.8-0.805-1.8-1.8V2.8C4.6,1.806,5.406,1,6.4,1h7.2
	C14.594,1,15.4,1.806,15.4,2.8z M13.6,3.7c0-0.497-0.402-0.9-0.9-0.9H7.3c-0.497,0-0.9,0.403-0.9,0.9v12.601
	c0,0.496,0.403,0.899,0.9,0.899h5.399c0.498,0,0.9-0.403,0.9-0.899V3.7z"/>
</svg>
