<?xml version="1.0" encoding="utf-8"?>
<!-- Generator: Adobe Illustrator 15.1.0, SVG Export Plug-In . SVG Version: 6.00 Build 0)  -->
<!DOCTYPE svg PUBLIC "-//W3C//DTD SVG 1.1//EN" "http://www.w3.org/Graphics/SVG/1.1/DTD/svg11.dtd">
<svg version="1.1" id="Layer_1" xmlns="http://www.w3.org/2000/svg" xmlns:xlink="http://www.w3.org/1999/xlink" x="0px" y="0px"
	 width="18px" height="18px" viewBox="0 0 18 18" enable-background="new 0 0 18 18" xml:space="preserve">
<path d="M9,10.215c0.893,0,1.619,0.725,1.619,1.619c0,0.893-0.726,1.619-1.619,1.619s-1.619-0.727-1.619-1.619
	C7.381,10.939,8.108,10.215,9,10.215 M13.047,2.524H4.953c0,0.809,0,1.618,0,3.237c-1.41,0-2.643,0-4.048,0c0,3.238,0,5.667,0,9.715
	h3.238v-1.619H2.524V7.38h12.953v6.477h-1.619v1.619h3.238c0-4.049,0-6.477,0-9.715h-0.811V4.142h-1.619v1.619h-1.619
	C13.047,4.142,13.047,3.333,13.047,2.524L13.047,2.524z M6.571,5.761V4.142h4.857v1.619H6.571L6.571,5.761z M9,8.595
	c-1.789,0-3.238,1.45-3.238,3.239c0,1.787,1.449,3.238,3.238,3.238c1.789,0,3.238-1.451,3.238-3.238
	C12.238,10.045,10.789,8.595,9,8.595L9,8.595z"/>
</svg>
