<!-- Generator: Avocode 2.1.0 - http://avocode.com -->
<svg height="38" width="38" xmlns:xlink="http://www.w3.org/1999/xlink" xmlns="http://www.w3.org/2000/svg" viewBox="0 0 38 38">
    <path fill="#ffffff" fill-rule="evenodd" d="M 14.9 8.32 C 18.33 8.32 21.37 11.21 21.37 12.96 C 21.37 12.96 21.37 17.97 21.37 17.97 C 21.37 19.82 20.79 23.37 18.74 24.98 C 18.11 25.48 17.77 26.25 17.84 27.05 C 17.91 27.84 18.37 28.55 19.07 28.93 C 19.07 28.93 26.55 33.07 26.55 33.07 C 26.61 33.1 26.7 33.14 26.76 33.17 C 26.94 33.25 27.16 33.37 27.31 33.48 C 27.31 33.48 27.31 35.63 27.31 35.63 C 27.31 35.63 2.38 35.63 2.38 35.63 C 2.38 35.63 2.38 33.51 2.38 33.51 C 2.54 33.38 2.78 33.24 2.97 33.15 C 3.03 33.13 3.08 33.1 3.14 33.07 C 3.14 33.07 10.81 28.91 10.81 28.91 C 11.5 28.54 11.97 27.83 12.04 27.04 C 12.11 26.25 11.78 25.47 11.16 24.98 C 9.17 23.38 8.32 19.85 8.32 17.97 C 8.32 17.97 8.32 12.96 8.32 12.96 C 8.32 11.25 11.53 8.32 14.9 8.32 M 14.9 5.94 C 10.47 5.94 5.94 9.64 5.94 12.96 C 5.94 12.96 5.94 17.97 5.94 17.97 C 5.94 20.15 6.87 24.58 9.67 26.83 C 9.67 26.83 2 30.99 2 30.99 C 2 30.99 0 31.88 0 32.99 C 0 32.99 0 36 0 36 C 0 37.1 0.9 38 2 38 C 2 38 27.68 38 27.68 38 C 28.79 38 29.69 37.1 29.69 36 C 29.69 36 29.69 32.99 29.69 32.99 C 29.69 31.81 27.68 30.99 27.68 30.99 C 27.68 30.99 20.21 26.85 20.21 26.85 C 22.99 24.66 23.74 20.37 23.74 17.97 C 23.74 17.97 23.74 12.96 23.74 12.96 C 23.74 9.64 19.33 5.94 14.9 5.94 C 14.9 5.94 14.9 5.94 14.9 5.94 Z M 36 25.08 C 36 25.08 28.41 20.94 28.41 20.94 C 31.19 18.76 32.05 14.46 32.05 12.06 C 32.05 12.06 32.05 7.05 32.05 7.05 C 32.05 3.73 27.53 0 23.1 0 C 20.22 0 17.27 1.56 15.56 3.57 C 16.54 3.63 17.62 3.63 18.55 3.93 C 19.8 2.95 21.38 2.37 23.1 2.37 C 26.53 2.37 29.68 5.3 29.68 7.05 C 29.68 7.05 29.68 12.06 29.68 12.06 C 29.68 13.92 28.99 17.47 26.94 19.07 C 26.31 19.57 25.97 20.34 26.04 21.14 C 26.11 21.93 26.57 22.64 27.27 23.02 C 27.27 23.02 34.86 27.16 34.86 27.16 C 34.92 27.2 35.01 27.24 35.08 27.27 C 35.25 27.34 35.47 27.46 35.63 27.57 C 35.63 27.57 35.63 29.68 35.63 29.68 C 35.63 29.68 30.83 29.68 30.83 29.68 C 31.55 30.23 31.77 31.01 32.05 32.05 C 32.05 32.05 36 32.05 36 32.05 C 37.1 32.05 38 31.16 38 30.05 C 38 30.05 38 27.08 38 27.08 C 38 25.9 36 25.08 36 25.08 Z" />
</svg>