<!-- Generator: Avocode 2.1.0 - http://avocode.com -->
<svg height="33" width="33" xmlns:xlink="http://www.w3.org/1999/xlink" xmlns="http://www.w3.org/2000/svg" viewBox="0 0 33 33">
    <path fill="#ffffff" fill-rule="evenodd" d="M 31.66 12.02 C 30.95 13.92 30.23 15.21 28.26 16.96 C 26.86 18.21 23.48 19.78 21.21 21.05 C 20.38 21.52 19.5 21.99 19 22.3 C 19 22.3 19 27.46 19 27.46 C 19 27.75 18.87 28.03 18.65 28.22 C 18.65 28.22 14.95 31.91 14.95 31.91 C 14.76 32.07 14.53 32.15 14.29 32.15 C 14.19 32.15 14.09 32.13 13.99 32.1 C 13.65 31.99 13.4 31.72 13.32 31.38 C 13.32 31.38 12.1 26.23 12.1 26.23 C 12.1 26.23 9.84 23.72 9.84 23.72 C 8.76 22.52 8.08 21.77 7.68 21.27 C 7.68 21.27 1.71 19.91 1.71 19.91 C 1.37 19.83 1.09 19.57 0.98 19.24 C 0.87 18.9 0.95 18.53 1.18 18.27 C 1.18 18.27 4.85 14.29 4.85 14.29 C 5.04 14.08 5.31 13.96 5.6 13.96 C 5.6 13.96 11.16 13.96 11.16 13.96 C 11.51 13.33 11.91 12.52 12.34 11.67 C 13.45 9.46 14.7 6.81 15.96 5.34 C 17.47 3.57 19.09 2.41 21.06 1.68 C 26.44 -0.34 32.04 0.07 32.04 0.07 C 32.54 0.11 32.93 0.51 32.96 1.01 C 32.98 1.27 33.34 7.5 31.66 12.02 Z M 31 2.04 C 29.25 2.03 25.45 2.17 21.76 3.55 C 20.1 4.17 18.78 5.12 17.48 6.64 C 16.38 7.92 15.13 10.57 14.13 12.56 C 13.54 13.74 13.03 14.76 12.59 15.48 C 12.41 15.78 12.08 15.96 11.74 15.96 C 11.74 15.96 6.05 15.96 6.05 15.96 C 6.05 15.96 3.8 18.33 3.8 18.33 C 3.8 18.33 8.38 19.38 8.38 19.38 C 8.6 19.43 8.79 19.55 8.93 19.72 C 9.14 19.96 11.92 23.04 13.76 25.08 C 13.87 25.21 13.95 25.36 13.99 25.52 C 13.99 25.52 14.89 29.32 14.89 29.32 C 14.89 29.32 17 27 17 27 C 17 27 17 21.78 17 21.78 C 17 21.47 17.13 21.19 17.37 21 C 17.77 20.67 18.7 20.17 20.24 19.31 C 22.3 18.15 25.69 16.57 26.93 15.47 C 28.61 13.98 29.16 12.99 29.78 11.33 C 30.96 8.16 31.03 3.88 31 2.04 Z M 23 14.01 C 20.79 14.01 18.99 12.21 18.99 10 C 18.99 7.79 20.79 5.99 23 5.99 C 25.21 5.99 27.01 7.79 27.01 10 C 27.01 12.21 25.21 14.01 23 14.01 Z M 23 8 C 21.89 8 21 8.9 21 10 C 21 11.1 21.89 12 23 12 C 24.1 12 25 11.1 25 10 C 25 8.9 24.1 8 23 8 Z M 4.14 23.83 C 4.65 23.58 5.18 23.34 5.75 22.9 C 5.75 22.9 6.97 24.46 6.97 24.46 C 6.24 25.02 5.57 25.35 5.03 25.62 C 3.74 26.26 3.1 26.63 3 30 C 6.5 29.87 6.89 29 7.52 27.7 C 7.77 27.19 8.04 26.61 8.49 26 C 8.49 26 9.97 27.35 9.97 27.35 C 9.61 27.96 9.49 28.27 9.27 28.72 C 8.27 30.78 7.28 31.98 1.98 31.98 C 1.98 31.98 1 32 1 32 C 1 32 0.98 30.98 0.98 30.98 C 0.98 25.95 1.99 24.9 4.14 23.83 Z" />
</svg>