<?xml version="1.0" standalone="no"?>
<!DOCTYPE svg PUBLIC "-//W3C//DTD SVG 1.1//EN" "http://www.w3.org/Graphics/SVG/1.1/DTD/svg11.dtd" >
<svg>
<metadata>
Created by FontForge 20090622 at Thu Jan 26 08:04:46 2017
 By deploy user
Copyright 1990-1992 as an unpublished work by Bitstream Inc.  All rights reserved. Confidential. Copyright (c) ParaType, Inc., 2002. All rights reserved.
</metadata>
<defs>
<font id="GeoSlb712BoldCBT" horiz-adv-x="521" >
  <font-face 
    font-family="GeoSlb712BoldC BT"
    font-weight="700"
    font-stretch="normal"
    units-per-em="1000"
    panose-1="0 0 8 0 0 0 0 0 0 0"
    ascent="764"
    descent="-236"
    x-height="494"
    cap-height="694"
    bbox="-35 -236 1100 941"
    underline-thickness="50"
    underline-position="-50"
    unicode-range="U+0020-U+F6D4"
  />
<missing-glyph horiz-adv-x="233" 
 />
    <glyph glyph-name=".notdef" horiz-adv-x="233" 
 />
    <glyph glyph-name=".null" horiz-adv-x="0" 
 />
    <glyph glyph-name="nonmarkingreturn" horiz-adv-x="333" 
 />
    <glyph glyph-name="space" unicode=" " horiz-adv-x="233" 
 />
    <glyph glyph-name="space" unicode="&#xa0;" horiz-adv-x="233" 
 />
    <glyph glyph-name="exclam" unicode="!" horiz-adv-x="287" 
d="M67 0v162h153v-162h-153zM106 242l-37 252v200h149v-200l-38 -252h-74z" />
    <glyph glyph-name="quotedbl" unicode="&#x22;" horiz-adv-x="331" 
d="M39 702h94v-273h-94v273zM198 702h94v-273h-94v273z" />
    <glyph glyph-name="numbersign" unicode="#" horiz-adv-x="769" 
d="M346 715h108l-71 -203h118l72 203h108l-72 -203h138l-36 -98h-137l-41 -118h142l-35 -98h-142l-72 -203h-108l72 203h-119l-73 -203h-107l71 203h-140l37 98h138l42 118h-146l36 98h145zM346 414l-43 -118h123l42 118h-122z" />
    <glyph glyph-name="dollar" unicode="$" 
d="M213 5q-41 14 -68 39v-44h-107v238h107v-57q11 -45 73 -74v195l-63 35q-63 36 -92.5 78.5t-29.5 98.5q0 81 47.5 128t132.5 50v79h65v-80q34 -11 69 -41v44h106v-217h-106v48q-16 46 -72 62v-163l61 -35q79 -45 115.5 -94.5t36.5 -115.5q0 -89 -53 -135.5t-154 -46.5h-3
v-101h-65v109zM220 448v146q-29 -2 -45.5 -19.5t-16.5 -46.5q0 -45 62 -80zM274 274v-174q82 8 82 77q0 31 -19.5 53.5t-62.5 43.5z" />
    <glyph glyph-name="percent" unicode="%" horiz-adv-x="796" 
d="M177 400q22 0 39.5 25t17.5 81t-17.5 81t-39.5 25q-21 0 -38 -24t-17 -82t17 -82t38 -24zM178 307q-75 0 -118 55t-43 144q0 97 47.5 148.5t113.5 51.5q67 0 113.5 -51t46.5 -149q0 -90 -42.5 -144.5t-117.5 -54.5zM653 706l-424 -720h-87l424 720h87zM617 -14
q-67 0 -113.5 50t-46.5 149q0 98 46.5 149t113.5 51q68 0 114.5 -51t46.5 -149q0 -99 -46.5 -149t-114.5 -50zM617 79q22 0 39 24t17 82t-17 82t-39 24q-23 0 -39.5 -27t-16.5 -79t16.5 -79t39.5 -27z" />
    <glyph glyph-name="ampersand" unicode="&#x26;" horiz-adv-x="743" 
d="M624 111h94v-111h-190l-60 80q-90 -94 -206 -94q-98 0 -165 62q-73 67 -73 165q0 69 43 122t133 95q-48 69 -48 122q0 68 48.5 111t127.5 43q81 0 129 -40t48 -104q0 -45 -27 -80t-86 -70l100 -127q55 77 76 142h150v-110h-76q-37 -78 -79 -126zM325 494q59 39 59 79
q0 18 -14.5 32.5t-35.5 14.5q-23 0 -36 -12.5t-13 -33.5q0 -31 40 -80zM264 345q-43 -18 -66.5 -47.5t-23.5 -63.5q0 -44 34.5 -77.5t81.5 -33.5q52 0 109 51z" />
    <glyph glyph-name="quotesingle" unicode="'" horiz-adv-x="172" 
d="M39 702h94v-273h-94v273z" />
    <glyph glyph-name="parenleft" unicode="(" horiz-adv-x="426" 
d="M374 609q-119 -78 -119 -333q0 -258 119 -335v-98q-127 40 -197 152t-70 280t70 280t197 151v-97z" />
    <glyph glyph-name="parenright" unicode=")" horiz-adv-x="426" 
d="M52 -60q118 78 118 333q0 259 -118 335v98q127 -40 197 -152t70 -280t-70 -280t-197 -151v97z" />
    <glyph glyph-name="asterisk" unicode="*" horiz-adv-x="472" 
d="M378 633l25 -79l-107 -30l69 -88l-67 -48l-62 92l-61 -92l-67 49l68 87l-107 31l26 78l103 -38l-4 111h83l-4 -111z" />
    <glyph glyph-name="plus" unicode="+" horiz-adv-x="833" 
d="M367 596h99v-249h243v-97h-243v-250h-99v250h-243v97h243v249z" />
    <glyph glyph-name="comma" unicode="," horiz-adv-x="260" 
d="M47 -166v75q73 11 73 79v12h-68v162h153v-145q0 -92 -37.5 -136t-120.5 -47z" />
    <glyph glyph-name="hyphen" unicode="-" horiz-adv-x="333" 
d="M37 187v129h259v-129h-259z" />
    <glyph glyph-name="hyphen" unicode="&#xad;" horiz-adv-x="333" 
d="M37 187v129h259v-129h-259z" />
    <glyph glyph-name="period" unicode="." horiz-adv-x="260" 
d="M54 0v162h152v-162h-152z" />
    <glyph glyph-name="slash" unicode="/" horiz-adv-x="319" 
d="M76 -93h-82l274 799h82z" />
    <glyph glyph-name="zero" unicode="0" 
d="M492 337q0 -166 -63 -258.5t-169 -92.5q-108 0 -169.5 93.5t-61.5 266.5t61.5 266.5t169.5 93.5q110 0 171 -95t61 -274zM260 95q36 0 57.5 65.5t21.5 187.5t-21.5 187.5t-57.5 65.5t-57 -65t-21 -188q0 -122 21 -187.5t57 -65.5z" />
    <glyph glyph-name="one" unicode="1" 
d="M92 0v109h94v482h-94v103h244v-585h86v-109h-330z" />
    <glyph glyph-name="two" unicode="2" 
d="M32 0q-1 10 -1 30q0 138 90 241q26 29 86.5 86.5t81.5 88.5q27 39 27 85q0 71 -65 71q-76 0 -76 -131v-15h-129q-1 11 -1 32q0 102 59 160t162 58q93 0 147.5 -48.5t54.5 -130.5q0 -48 -19 -87t-45.5 -65t-78.5 -67q-53 -41 -78.5 -64.5t-48.5 -59.5t-27 -75h189v100h108
v-209h-436z" />
    <glyph glyph-name="three" unicode="3" 
d="M157 234q4 -131 88 -131q40 0 62.5 28.5t22.5 78.5q0 109 -122 109v108h3q110 0 110 96q0 79 -66 79q-67 0 -76 -99h-117q0 95 54 149t149 54q90 0 143.5 -50.5t53.5 -132.5q0 -114 -117 -153q137 -35 137 -173q0 -93 -62.5 -152t-163.5 -59q-107 0 -165 59t-58 170v19
h124z" />
    <glyph glyph-name="four" unicode="4" 
d="M212 0v109h72v76h-256q-7 42 -27 83l301 438h117v-422h77v-99h-77v-76h71v-109h-278zM287 279l4 259l-177 -259h173z" />
    <glyph glyph-name="five" unicode="5" 
d="M152 204q5 -52 27.5 -79.5t60.5 -27.5q44 0 69.5 34t25.5 95q0 56 -24 88.5t-63 32.5q-48 0 -86 -60l-112 53l26 354h381v-170h-102l-8 62h-171l-12 -170q64 40 127 40q87 0 143 -62t56 -163q0 -114 -63.5 -179.5t-173.5 -65.5q-101 0 -162 53.5t-69 149.5z" />
    <glyph glyph-name="six" unicode="6" 
d="M363 508q-9 49 -27.5 72.5t-50.5 23.5q-45 0 -71 -48t-26 -139v-18q64 47 125 47q80 0 130 -59.5t50 -159.5q0 -108 -61.5 -174.5t-157.5 -66.5q-110 0 -174 94.5t-64 265.5q0 175 64.5 267.5t182.5 92.5q85 0 136 -46.5t61 -133.5zM191 308v-10q0 -93 24 -144t64 -51
q35 0 55 30t20 84q0 57 -23 88.5t-64 31.5q-36 0 -76 -29z" />
    <glyph glyph-name="seven" unicode="7" 
d="M79 0v109h88v6q0 183 189 470h-209v-101h-107v210h448v-93q-160 -244 -169 -492h87v-109h-327z" />
    <glyph glyph-name="eight" unicode="8" 
d="M363 367q134 -44 134 -181q0 -87 -65.5 -143.5t-170.5 -56.5q-107 0 -172.5 56.5t-65.5 143.5q0 66 34.5 112.5t100.5 68.5q-118 38 -118 158q0 79 60.5 130t159.5 51t160 -51t61 -130q0 -120 -118 -158zM180 508q0 -42 23 -69.5t57 -27.5q33 0 57 28t24 69
q0 42 -23.5 69t-57.5 27q-35 0 -57.5 -27t-22.5 -69zM168 201q0 -46 26.5 -76.5t65.5 -30.5t66 31t27 76q0 46 -26.5 76t-66.5 30q-39 0 -65.5 -30.5t-26.5 -75.5z" />
    <glyph glyph-name="nine" unicode="9" 
d="M157 184q9 -49 27.5 -72.5t50.5 -23.5q45 0 70.5 48t25.5 138v19q-64 -47 -125 -47q-80 0 -129.5 59.5t-49.5 159.5q0 109 61 175t157 66q110 0 174.5 -94.5t64.5 -265.5q0 -174 -64.5 -267t-183.5 -93q-85 0 -135.5 46.5t-60.5 133.5zM328 384v10q0 94 -24 144.5
t-63 50.5q-35 0 -55.5 -30t-20.5 -84q0 -57 23 -88.5t64 -31.5q36 0 76 29z" />
    <glyph glyph-name="colon" unicode=":" horiz-adv-x="284" 
d="M65 0v162h153v-162h-153zM65 332v162h153v-162h-153z" />
    <glyph glyph-name="semicolon" unicode=";" horiz-adv-x="284" 
d="M65 332v162h153v-162h-153zM63 -166v75q38 6 55 25t17 54v12h-67v162h152v-145q0 -92 -37 -136t-120 -47z" />
    <glyph glyph-name="less" unicode="&#x3c;" horiz-adv-x="833" 
d="M704 583v-107l-436 -178l436 -178v-107l-575 237v97z" />
    <glyph glyph-name="equal" unicode="=" horiz-adv-x="833" 
d="M124 452h585v-97h-585v97zM124 242h585v-97h-585v97z" />
    <glyph glyph-name="greater" unicode="&#x3e;" horiz-adv-x="833" 
d="M129 583l575 -236v-97l-575 -237v107l437 178l-437 178v107z" />
    <glyph glyph-name="question" unicode="?" horiz-adv-x="519" 
d="M158 0v162h153v-162h-153zM199 237l-10 188q28 -7 50 -7q48 0 73.5 23t25.5 66t-25 68.5t-67 25.5q-39 0 -63 -26.5t-24 -71.5q0 -3 0.5 -8t0.5 -7h-139v11q0 92 65.5 149.5t172.5 57.5q105 0 169 -58t64 -152q0 -82 -51 -130.5t-140 -48.5h-14l-16 -80h-72z" />
    <glyph glyph-name="at" unicode="@" horiz-adv-x="1000" 
d="M594 342q-12 81 -85 81q-55 0 -96.5 -60.5t-41.5 -145.5q0 -92 77 -92q40 0 74 30t46 81zM570 133q-51 -80 -145 -80q-78 0 -118 42.5t-40 123.5q0 117 68.5 196t167.5 79q78 0 115 -64l26 48h87l-72 -292q-3 -12 -3 -20q0 -34 46 -34q39 0 79 37q85 79 85 206
q0 116 -89.5 192t-234.5 76q-138 0 -236 -66q-83 -56 -127.5 -139t-44.5 -183q0 -150 101.5 -239.5t269.5 -89.5q160 0 295 93l40 -57q-152 -113 -333 -113q-189 0 -312 94q-151 117 -151 311q0 168 101 290q147 179 400 179q170 0 281 -85q131 -101 131 -265
q0 -166 -124 -265q-71 -56 -158 -56q-103 0 -105 81z" />
    <glyph glyph-name="A" unicode="A" horiz-adv-x="692" 
d="M-20 0v113h76l153 473h-94v108h463v-108h-83l154 -473h63v-113h-308v113h74l-38 130h-201l-37 -130h77v-113h-299zM265 333h151l-75 257z" />
    <glyph glyph-name="B" unicode="B" horiz-adv-x="632" 
d="M255 110h53q23 0 40 2.5t37 11t31 28t11 49.5q0 109 -131 109h-41v-200zM255 412h42q65 0 87.5 25.5t22.5 65.5q0 23 -7.5 39.5t-18 25.5t-27 13.5t-28.5 5.5t-29 1h-42v-176zM16 694h303q251 0 251 -186q0 -109 -106 -139q61 -20 94.5 -67.5t33.5 -110.5q0 -91 -62 -141
t-173 -50h-341v113h74v473h-74v108z" />
    <glyph glyph-name="C" unicode="C" horiz-adv-x="759" 
d="M597 454q-10 20 -23.5 39t-37 42.5t-58 38t-74.5 14.5q-79 0 -134.5 -59t-55.5 -180t55.5 -180t137.5 -59t132.5 53t71.5 122l122 -59q-21 -66 -60 -114t-77 -71.5t-84 -37t-69.5 -15.5t-45.5 -2q-162 0 -264 101q-103 101 -103 261q0 158 101 259q99 99 251 99
q136 0 215 -86v74h103v-240h-103z" />
    <glyph glyph-name="D" unicode="D" horiz-adv-x="712" 
d="M26 694h340q163 0 252.5 -91t89.5 -256q0 -84 -23.5 -148.5t-59 -101t-84 -59.5t-90 -30.5t-85.5 -7.5h-340v113h74v473h-74v108zM269 113q37 -2 67 -3t54 8.5t42.5 17.5t32.5 24.5t23.5 29.5t16 33t10.5 34.5t6 34t2.5 31.5t0.5 27q0 35 -4.5 65.5t-20.5 66.5t-42 60
t-74.5 37.5t-113.5 6.5v-473z" />
    <glyph glyph-name="E" unicode="E" horiz-adv-x="625" 
d="M473 113v114h125v-227h-582v113h74v473h-74v108h582v-215h-125v107h-214v-170h177v-114h-177v-189h214z" />
    <glyph glyph-name="F" unicode="F" horiz-adv-x="593" 
d="M353 113v-113h-337v113h74v473h-74v108h563v-215h-125v107h-195v-170h147v-114h-147v-189h94z" />
    <glyph glyph-name="G" unicode="G" horiz-adv-x="782" 
d="M603 454q-25 50 -73.5 92t-121.5 42q-81 0 -136.5 -59t-55.5 -180q0 -111 51.5 -175t144.5 -64q65 0 111 33.5t53 94.5h-121v112h296v-21q0 -158 -94.5 -250.5t-257.5 -92.5q-162 0 -265 101q-104 104 -104 259q0 159 102 261q100 99 256 99q134 0 215 -86v74h103v-240
h-103z" />
    <glyph glyph-name="H" unicode="H" horiz-adv-x="718" 
d="M16 0v113h74v473h-74v108h307v-108h-64v-159h199v159h-63v108h306v-108h-74v-473h74v-113h-306v113h63v201h-199v-201h64v-113h-307z" />
    <glyph glyph-name="I" unicode="I" horiz-adv-x="350" 
d="M16 0v113h74v473h-74v108h317v-108h-74v-473h74v-113h-317z" />
    <glyph glyph-name="J" unicode="J" horiz-adv-x="350" 
d="M-33 -20q31 -9 56 -9q41 0 55.5 24t14.5 82v509h-86v108h329v-108h-74v-507q0 -35 -3 -63t-15.5 -63t-33.5 -58.5t-61 -40t-94 -16.5q-44 0 -88 14v128z" />
    <glyph glyph-name="K" unicode="K" horiz-adv-x="685" 
d="M16 0v113h74v473h-74v108h317v-108h-74v-473h74v-113h-317zM384 0v113h73l-194 254l211 219h-76v108h287v-108h-58l-190 -199l216 -274h74v-113h-343z" />
    <glyph glyph-name="L" unicode="L" horiz-adv-x="593" 
d="M449 113v213h109v-326h-542v113h74v473h-74v108h317v-108h-74v-473h190z" />
    <glyph glyph-name="M" unicode="M" horiz-adv-x="934" 
d="M406 0l-210 586v-473h72v-113h-252v113h72v473h-72v108h289l152 -428l157 428h305v-108h-72v-473h72v-113h-308v113h72v473l-214 -586h-63z" />
    <glyph glyph-name="N" unicode="N" horiz-adv-x="752" 
d="M213 523l4 -410h76v-113h-277v113h77v473h-77v108h271l257 -449l-5 341h-76v108h277v-108h-77v-586h-149z" />
    <glyph glyph-name="O" unicode="O" horiz-adv-x="782" 
d="M397 706q153 0 255 -102q100 -101 100 -258t-101 -258q-102 -102 -260 -102t-259 101q-102 103 -102 259q0 157 101 257q103 103 266 103zM391 111q72 0 123.5 61.5t51.5 176.5t-51.5 176.5t-123.5 61.5t-123.5 -61.5t-51.5 -176.5t51.5 -176.5t123.5 -61.5z" />
    <glyph glyph-name="P" unicode="P" horiz-adv-x="637" 
d="M259 586v-216h32q27 0 47 3t43.5 12.5t36.5 33t13 59.5t-12.5 59t-35.5 33t-43.5 13t-48.5 3h-32zM259 113h74v-113h-317v113h74v473h-74v108h328q146 0 205.5 -56t59.5 -160q0 -34 -4.5 -61t-21 -58.5t-44.5 -52.5t-77.5 -35t-117.5 -14h-85v-144z" />
    <glyph glyph-name="Q" unicode="Q" horiz-adv-x="782" 
d="M291 -2q-122 34 -191.5 127t-69.5 221q0 159 101 257q105 103 263 103q156 0 257 -101q101 -102 101 -259q0 -136 -76 -231.5t-207 -121.5q68 -40 134 -40q18 0 53 5l-35 -109q-18 -8 -39 -8q-45 0 -88 18l-50 21q-80 33 -112 33q-53 0 -97 -41l-53 65q50 51 109 61z
M391 111q72 0 123.5 61.5t51.5 176.5t-51.5 176.5t-123.5 61.5t-123.5 -61.5t-51.5 -176.5t51.5 -176.5t123.5 -61.5z" />
    <glyph glyph-name="R" unicode="R" horiz-adv-x="671" 
d="M259 586v-170h48q19 0 29.5 0.5t31 5t32.5 12.5t21.5 25.5t9.5 41.5t-10 41.5t-22 25.5t-32.5 12.5t-32 5t-30.5 0.5h-45zM259 113h74v-113h-317v113h74v473h-74v108h328q40 0 71 -2.5t69.5 -14t64 -31.5t43 -57.5t17.5 -89.5q0 -17 -3 -34.5t-13 -46.5t-36 -52t-66 -32
l112 -221h79v-113h-194l-157 306h-72v-193z" />
    <glyph glyph-name="S" unicode="S" horiz-adv-x="589" 
d="M56 0v238h111q-3 -62 31 -98.5t88 -36.5q42 0 67.5 20t25.5 54q0 36 -24.5 58t-73.5 46l-99 48q-26 13 -45.5 25.5t-42 34t-34.5 53.5t-12 71q0 85 56 139t146 54q81 0 150 -53v41h112v-206h-112q0 46 -29 77.5t-78 31.5q-39 0 -58.5 -20.5t-19.5 -48.5q0 -30 20 -48.5
t54 -33.5l91 -41q168 -75 168 -216q0 -91 -57.5 -147.5t-151.5 -56.5q-102 0 -172 59v-44h-111z" />
    <glyph glyph-name="T" unicode="T" horiz-adv-x="611" 
d="M486 113v-113h-361v113h96v473h-97v-162h-112v270h588v-270h-112v162h-98v-473h96z" />
    <glyph glyph-name="U" unicode="U" horiz-adv-x="704" 
d="M86 586h-76v108h316v-108h-69v-316q0 -160 99 -160q101 0 101 160v316h-68v108h304v-108h-76v-299q0 -135 -32 -191q-63 -110 -234 -110q-168 0 -232 110q-33 57 -33 191v299z" />
    <glyph glyph-name="V" unicode="V" horiz-adv-x="653" 
d="M252 0l-199 586h-68v108h305v-108h-63l105 -362l109 362h-75v108h296v-108h-65l-200 -586h-145z" />
    <glyph glyph-name="W" unicode="W" horiz-adv-x="942" 
d="M313 217l101 369h-57v108h242v-108h-57l101 -369l101 369h-57v108h262v-108h-61l-186 -586h-133l-99 356l-97 -356h-134l-186 586h-63v108h284v-108h-59z" />
    <glyph glyph-name="X" unicode="X" horiz-adv-x="653" 
d="M-33 0v113h92l171 245l-159 228h-77v108h320v-108h-61l89 -125l87 125h-50v108h272v-108h-75l-162 -231l169 -242h90v-113h-338v113h67l-99 141l-100 -141h60v-113h-296z" />
    <glyph glyph-name="Y" unicode="Y" horiz-adv-x="600" 
d="M468 113v-113h-349v113h90v194l-167 279h-77v108h317v-108h-61l92 -155l93 155h-59v108h287v-108h-78l-178 -296v-177h90z" />
    <glyph glyph-name="Z" unicode="Z" horiz-adv-x="588" 
d="M17 0v113l319 472h-184v-122h-113v231h511v-100l-323 -481h217v144h113v-257h-540z" />
    <glyph glyph-name="bracketleft" unicode="[" horiz-adv-x="426" 
d="M272 -53h131v-95h-273v842h273v-94h-131v-653z" />
    <glyph glyph-name="backslash" unicode="\" horiz-adv-x="319" 
d="M268 -93l-274 799h82l274 -799h-82z" />
    <glyph glyph-name="bracketright" unicode="]" horiz-adv-x="426" 
d="M154 600h-132v94h274v-842h-274v95h132v653z" />
    <glyph glyph-name="asciicircum" unicode="^" horiz-adv-x="1000" 
d="M438 713h123l235 -274h-115l-181 181l-182 -181h-115z" />
    <glyph glyph-name="underscore" unicode="_" horiz-adv-x="500" 
d="M0 -136h500v-100h-500v100z" />
    <glyph glyph-name="grave" unicode="`" horiz-adv-x="626" 
d="M107 741h126l96 -181h-69z" />
    <glyph glyph-name="a" unicode="a" horiz-adv-x="546" 
d="M324 0v34q-64 -48 -142 -48q-72 0 -114 41.5t-42 113.5q0 78 48 126t127 48q57 0 123 -27v30q0 94 -84 94q-64 0 -94 -45l-109 24q36 115 206 115q154 0 205 -75q12 -17 17.5 -40t6 -37t0.5 -46v-199h70v-109h-218zM324 132v57q-39 31 -82 31q-30 0 -50 -17t-20 -52
q0 -33 17 -49t41 -16q46 0 94 46z" />
    <glyph glyph-name="b" unicode="b" horiz-adv-x="616" 
d="M224 0h-213v109h65v479h-65v106h213v-270q65 70 146 70q91 0 154 -70t63 -192q0 -119 -61 -182.5t-147 -63.5q-97 0 -155 79v-65zM328 98q45 0 75.5 36t30.5 108q0 65 -28 104t-78 39q-49 0 -77 -39t-28 -104q0 -71 30.5 -107.5t74.5 -36.5z" />
    <glyph glyph-name="c" unicode="c" horiz-adv-x="556" 
d="M411 292q-12 43 -43 68.5t-74 25.5q-50 0 -83 -34t-33 -105q0 -72 33.5 -106t84.5 -34q45 0 77.5 26t46.5 67l116 -59q-36 -75 -100.5 -115t-147.5 -40q-117 0 -188.5 71t-71.5 187q0 115 68 188.5t176 73.5q92 0 145 -56v44h106v-200z" />
    <glyph glyph-name="d" unicode="d" horiz-adv-x="616" 
d="M605 109v-109h-213v65q-55 -79 -154 -79q-86 0 -147.5 64.5t-61.5 182.5q0 123 64 192t149 69q84 0 150 -70v164h-65v106h213v-585h65zM288 98q45 0 74.5 36.5t29.5 107.5q0 66 -27 104.5t-77 38.5t-78 -39t-28 -104q0 -71 31 -107.5t75 -36.5z" />
    <glyph glyph-name="e" unicode="e" horiz-adv-x="567" 
d="M181 219q0 -20 5.5 -39t17.5 -39t36.5 -32.5t58.5 -12.5q76 0 109 66l116 -37q-17 -38 -46 -66.5t-55.5 -41.5t-59 -21t-48.5 -9t-32 -1q-115 0 -185 70.5t-70 189.5q0 118 69.5 189t184.5 71q123 0 189 -77t66 -204v-6h-356zM182 303h197q-2 40 -28.5 67t-69.5 27
t-70 -26t-29 -68z" />
    <glyph glyph-name="f" unicode="f" horiz-adv-x="314" 
d="M12 0v109h64v279h-64v106h64v54q0 74 48 116t131 42q122 0 156 -98l-124 -45q-3 18 -13.5 30t-22.5 12q-26 0 -26 -46v-65h78v-106h-78v-279h78v-109h-291z" />
    <glyph glyph-name="g" unicode="g" horiz-adv-x="618" 
d="M290 98q45 0 75 37t30 107q0 65 -28 104t-77 39q-50 0 -78 -39t-28 -104q0 -71 30.5 -107.5t75.5 -36.5zM64 -114l74 85q74 -35 140 -35q41 0 67.5 12.5t36.5 32.5t12.5 35t1.5 31l-2 28q-59 -75 -155 -75q-94 0 -151 65t-57 174q0 108 59.5 181.5t153.5 73.5
q91 0 156 -76v76h207v-106h-65v-326q0 -35 -1.5 -55t-12 -51t-30.5 -54q-69 -76 -220 -76q-124 0 -214 60z" />
    <glyph glyph-name="h" unicode="h" horiz-adv-x="579" 
d="M12 0v109h64v479h-64v106h213v-249q72 49 145 49q37 0 64 -14.5t40 -33t21 -44.5t9 -41t1 -31v-221h69v-109h-219v293q0 41 -11.5 61t-42.5 20q-40 0 -75 -32v-233h74v-109h-288z" />
    <glyph glyph-name="i" unicode="i" horiz-adv-x="306" 
d="M81 388h-65v106h213v-385h70v-109h-283v109h65v279zM67 624q0 34 23.5 58t57.5 24t58.5 -24t24.5 -57q0 -34 -24 -58t-59 -24q-33 0 -57 23.5t-24 57.5z" />
    <glyph glyph-name="j" unicode="j" horiz-adv-x="288" 
d="M60 624q0 34 23.5 58t57.5 24q35 0 59 -24t24 -58q0 -33 -24.5 -57t-58.5 -24q-33 0 -57 23.5t-24 57.5zM74 388h-64v106h212v-474q0 -195 -194 -195q-13 0 -61 6v115l24 -1q29 -1 46.5 4.5t25 20t9.5 28.5t2 38v352z" />
    <glyph glyph-name="k" unicode="k" horiz-adv-x="583" 
d="M226 109h74v-109h-288v109h64v479h-64v106h214v-585zM229 249l157 139h-90v106h283v-106h-54l-136 -122l131 -157h59v-109h-146z" />
    <glyph glyph-name="l" unicode="l" horiz-adv-x="301" 
d="M76 588h-64v106h213v-585h69v-109h-282v109h64v479z" />
    <glyph glyph-name="m" unicode="m" horiz-adv-x="862" 
d="M639 0v293q0 41 -11.5 61t-42.5 20q-41 0 -76 -32v-233h70v-109h-219v293q0 41 -11.5 61t-42.5 20q-41 0 -76 -32v-233h75v-109h-289v109h65v278h-65v107h213v-49q74 49 140 49q78 0 115 -57q90 57 168 57q24 0 45.5 -6.5t43 -23t34.5 -51t13 -83.5v-221h70v-109h-219z
" />
    <glyph glyph-name="n" unicode="n" horiz-adv-x="583" 
d="M16 0v109h65v278h-65v107h213v-49q72 49 142 49q138 0 138 -164v-221h70v-109h-219v293q0 42 -11.5 61.5t-41.5 19.5q-41 0 -77 -32v-233h75v-109h-289z" />
    <glyph glyph-name="o" unicode="o" horiz-adv-x="578" 
d="M550 246q0 -117 -72.5 -188.5t-189.5 -71.5t-188.5 71t-71.5 188q0 118 72 189.5t188 71.5t189 -71t73 -189zM288 107q52 0 81 38t29 102q0 71 -32 104.5t-78 33.5q-52 0 -81 -37.5t-29 -100.5q0 -64 29 -102t81 -38z" />
    <glyph glyph-name="p" unicode="p" horiz-adv-x="616" 
d="M76 388h-65v106h207v-76q66 76 154 76q87 0 151 -69t64 -193q0 -119 -61 -182.5t-149 -63.5q-94 0 -153 79v-118h72v-109h-285v109h65v441zM328 98q46 0 76 36t30 108q0 66 -28 104.5t-78 38.5q-49 0 -77 -38.5t-28 -104.5q0 -72 30 -108t75 -36z" />
    <glyph glyph-name="q" unicode="q" horiz-adv-x="616" 
d="M288 98q46 0 75 36.5t29 107.5q0 66 -27 104.5t-77 38.5t-78 -39t-28 -104q0 -72 30.5 -108t75.5 -36zM605 -53v-109h-285v109h72v118q-58 -79 -155 -79q-86 0 -147 64t-61 182q0 124 64 193t151 69q89 0 154 -76v76h207v-106h-65v-441h65z" />
    <glyph glyph-name="r" unicode="r" horiz-adv-x="414" 
d="M81 388h-65v106h200v-117q24 77 83 108q39 21 100 21v-153q-98 -1 -138 -48q-32 -37 -32 -107v-89h77v-109h-290v109h65v279z" />
    <glyph glyph-name="s" unicode="s" horiz-adv-x="495" 
d="M43 0v174h116q0 -39 27 -61.5t74 -22.5q33 0 50.5 13.5t17.5 36.5q0 16 -10.5 25.5t-23.5 13.5t-44 11l-99 22q-15 3 -30.5 9.5t-38 21t-37 42.5t-14.5 66q0 70 47 112.5t122 42.5q63 0 126 -35v23h111v-143h-111q-31 55 -104 55q-28 0 -42 -10.5t-14 -26.5
q0 -14 11 -23.5t24 -13t31 -6.5q5 -1 7 -1l79 -16q64 -13 97 -40q48 -40 48 -114q0 -63 -35 -107q-50 -62 -142 -62q-64 0 -127 33v-19h-116z" />
    <glyph glyph-name="t" unicode="t" horiz-adv-x="324" 
d="M218 176q0 -37 7.5 -52t33.5 -15q27 0 49 13v-110q-50 -26 -108 -26q-79 0 -105 34.5t-26 105.5v262h-57v106h57v56l149 126v-182h90v-106h-90v-212z" />
    <glyph glyph-name="u" unicode="u" horiz-adv-x="579" 
d="M502 494v-388h65v-106h-213v35q-74 -49 -145 -49q-38 0 -65 15t-40 33.5t-20.5 45.5t-8.5 41t-1 30v234h-69v109h219v-294q0 -53 10 -73.5t42 -20.5q40 0 77 33v246h-75v109h224z" />
    <glyph glyph-name="v" unicode="v" horiz-adv-x="539" 
d="M201 0l-151 388h-69v106h281v-106h-59l80 -241l89 241h-60v106h246v-106h-71l-153 -388h-133z" />
    <glyph glyph-name="w" unicode="w" horiz-adv-x="794" 
d="M395 315l-89 -315h-134l-119 388h-69v106h266v-106h-54l61 -221l93 327h128l96 -327l64 221h-52v106h221v-106h-69l-118 -388h-129z" />
    <glyph glyph-name="x" unicode="x" horiz-adv-x="507" 
d="M-1 0v109h69l100 133l-103 146h-55v106h160l90 -137l97 137h133v-106h-64l-94 -127l106 -152h71v-109h-173l-96 146l-104 -146h-137z" />
    <glyph glyph-name="y" unicode="y" horiz-adv-x="539" 
d="M95 -162v106h104l22 54l-170 390h-65v106h270v-106h-56l91 -219l80 219h-52v106h232v-106h-66l-215 -550h-175z" />
    <glyph glyph-name="z" unicode="z" horiz-adv-x="486" 
d="M15 0v100l278 295h-157v-71h-100v170h425v-106l-272 -288h176v77h99v-177h-449z" />
    <glyph glyph-name="braceleft" unicode="{" horiz-adv-x="500" 
d="M431 721v-102q-4 0 -12 0.5t-11 0.5q-52 0 -68 -20.5t-16 -77.5v-117q0 -69 -20.5 -100.5t-80.5 -45.5q60 -14 80.5 -45t20.5 -100v-118q0 -57 16 -77t68 -20q3 0 11 0.5t12 0.5v-102q-7 0 -19 -0.5t-18 -0.5q-93 0 -137 24q-33 19 -42 50t-9 92v123q0 66 -24.5 94.5
t-84.5 28.5q-3 0 -9.5 -0.5t-10.5 -0.5v102q4 0 10.5 -0.5t9.5 -0.5q59 0 84 28.5t25 95.5v122q0 61 9.5 92.5t41.5 50.5q44 24 137 24q6 0 18 -0.5t19 -0.5z" />
    <glyph glyph-name="bar" unicode="|" horiz-adv-x="500" 
d="M200 764h101v-1000h-101v1000z" />
    <glyph glyph-name="braceright" unicode="}" horiz-adv-x="500" 
d="M70 721h33q99 0 141 -24q32 -18 41.5 -50t9.5 -92v-123q0 -66 24.5 -94.5t84.5 -28.5q3 0 9.5 0.5t10.5 0.5v-102h-18q-61 0 -86 -27.5t-25 -94.5v-123q0 -61 -9.5 -92.5t-41.5 -49.5q-44 -24 -137 -24q-6 0 -18 0.5t-19 0.5v102q4 0 12 -0.5t11 -0.5q52 0 68 20t16 77
v117q0 69 20 100.5t81 45.5q-60 14 -80.5 45.5t-20.5 100.5v118q0 57 -16 77t-68 20q-3 0 -11 -0.5t-12 -0.5v102z" />
    <glyph glyph-name="asciitilde" unicode="~" horiz-adv-x="833" 
d="M747 392v-108q-99 -67 -185 -67q-45 0 -90 15q-11 4 -39.5 13.5l-42 14t-36 10.5t-41.5 8.5t-38 2.5q-80 0 -188 -77v108q104 70 189 70q57 0 144 -29l28 -9.5l29.5 -10t26.5 -8t30.5 -6.5t29.5 -2q80 0 183 75z" />
    <glyph glyph-name="sterling" unicode="&#xa3;" 
d="M245 47q-54 -61 -126 -61q-49 0 -81.5 32.5t-32.5 85.5q0 52 32.5 85.5t81.5 33.5q34 0 78 -16q1 6 1 19q0 38 -15 71h-150v93h101q-52 96 -52 155q0 75 55.5 118t153.5 43q184 0 195 -182l-110 -13q-4 56 -23.5 81.5t-61.5 25.5q-32 0 -52 -20t-20 -52q0 -13 5.5 -31.5
t11 -32.5t20 -44.5t21.5 -47.5h131v-93h-106q4 -28 4 -50q0 -45 -16 -93q59 -23 78 -23q33 0 49.5 23.5t21.5 74.5l74 -18q-8 -114 -43 -169.5t-100 -55.5q-64 0 -125 61zM180 111q-35 40 -64 40q-18 0 -28 -10.5t-10 -27.5q0 -21 12.5 -34t31.5 -13q33 0 58 45z" />
    <glyph glyph-name="currency" unicode="&#xa4;" horiz-adv-x="606" 
d="M84 702l100 -99q52 38 119 38q68 0 121 -38l99 99l51 -52l-99 -100q37 -52 37 -118q0 -65 -37 -118l99 -100l-51 -51l-99 99q-52 -38 -120 -38q-69 0 -120 38l-100 -99l-51 51l99 100q-37 52 -37 118t37 118l-99 100zM304 567q-55 0 -95 -40t-40 -95q0 -56 39.5 -95
t95.5 -39t95.5 39.5t39.5 94.5t-40 95t-95 40z" />
    <glyph glyph-name="section" unicode="&#xa7;" horiz-adv-x="588" 
d="M485 695v-152h-105v69h-26q-39 0 -56.5 -8.5t-17.5 -31.5q0 -33 38 -69l176 -172q56 -54 56 -111q0 -48 -37.5 -81t-100.5 -37q49 -46 49 -106q0 -58 -39.5 -85t-121.5 -27h-188v152h105v-69h39q39 0 56.5 8.5t17.5 31.5q0 33 -38 69l-193 187q-59 57 -59 111
q0 49 40.5 83t105.5 34q-36 39 -36 92q0 112 161 112h174zM178 379q0 -33 85 -112q89 -84 117 -84q18 0 28.5 9.5t10.5 23.5q0 29 -85 111q-88 85 -118 85q-17 0 -27.5 -9.5t-10.5 -23.5z" />
    <glyph glyph-name="dieresis" unicode="&#xa8;" horiz-adv-x="500" 
d="M97 650q0 28 20.5 46t43.5 18q27 0 45 -19t18 -45q0 -28 -18 -46t-45 -18t-45.5 18.5t-18.5 45.5zM275 650q0 28 20.5 46t43.5 18q24 0 44 -17.5t20 -46.5t-18.5 -46.5t-45.5 -17.5t-45.5 18.5t-18.5 45.5z" />
    <glyph glyph-name="copyright" unicode="&#xa9;" horiz-adv-x="833" 
d="M416 722q152 0 261 -109q103 -106 103 -255q0 -155 -107 -257q-110 -106 -257 -106q-146 0 -258 110q-104 106 -104 253q0 99 53 189q50 83 130.5 129t178.5 46zM417 662q-122 0 -212.5 -87t-90.5 -216q0 -125 87 -212q91 -92 215 -92q122 0 215 89q89 91 89 209
q0 133 -86 218q-89 91 -217 91zM533 412q-39 77 -112 77q-46 0 -78.5 -34t-32.5 -104q0 -71 32.5 -105t79.5 -34t77 30.5t42 70.5l71 -34q-23 -68 -74 -103.5t-122 -35.5q-94 0 -153 59q-60 60 -60 151t59 150q58 58 146 58q80 0 125 -50v43h59v-139h-59z" />
    <glyph glyph-name="guillemotleft" unicode="&#xab;" horiz-adv-x="462" 
d="M259 399l-126 -152l126 -153h-104l-127 153l127 152h104zM434 399l-126 -152l126 -153h-104l-127 153l127 152h104z" />
    <glyph glyph-name="logicalnot" unicode="&#xac;" horiz-adv-x="833" 
d="M124 422h585v-245h-97v149h-488v96z" />
    <glyph glyph-name="registered" unicode="&#xae;" horiz-adv-x="833" 
d="M416 722q152 0 261 -109q103 -106 103 -255q0 -155 -107 -257q-110 -106 -257 -106q-146 0 -258 110q-104 106 -104 253q0 99 53 189q50 83 130.5 129t178.5 46zM417 662q-122 0 -212.5 -87t-90.5 -216q0 -125 87 -212q91 -92 215 -92q122 0 215 89q89 91 89 209
q0 133 -86 218q-89 91 -217 91zM376 502v-98h28q14 0 23.5 1t22.5 5t19.5 15t6.5 28q0 49 -74 49h-26zM376 228h43v-66h-184v66h43v274h-43v63h190q24 0 42 -1.5t40.5 -8t37 -18t24.5 -33.5t10 -52q0 -79 -68 -96l65 -128h46v-66h-113l-91 178h-42v-112z" />
    <glyph glyph-name="degree" unicode="&#xb0;" horiz-adv-x="329" 
d="M165 715q61 0 104.5 -43.5t43.5 -105.5q0 -61 -43.5 -104.5t-105.5 -43.5t-104.5 43t-42.5 105t43 105.5t105 43.5zM165 652q-35 0 -60.5 -25t-25.5 -60q0 -36 25 -61t61 -25t60.5 25.5t24.5 60.5t-25 60t-60 25z" />
    <glyph glyph-name="plusminus" unicode="&#xb1;" horiz-adv-x="833" 
d="M367 597h99v-159h243v-97h-243v-159h-99v159h-243v97h243v159zM124 96h585v-97h-585v97z" />
    <glyph glyph-name="acute" unicode="&#xb4;" horiz-adv-x="500" 
d="M393 741l-153 -181h-69l96 181h126z" />
    <glyph glyph-name="mu" unicode="&#xb5;" horiz-adv-x="610" 
d="M100 533h141l-37 -212q-15 -82 -15 -131q0 -90 83 -90q51 0 77.5 42.5t43.5 139.5l44 251h141l-94 -533h-131l9 57q-39 -73 -105 -73q-64 0 -104 59l-44 -257h-140z" />
    <glyph glyph-name="mu" unicode="&#x3bc;" horiz-adv-x="610" 
d="M100 533h141l-37 -212q-15 -82 -15 -131q0 -90 83 -90q51 0 77.5 42.5t43.5 139.5l44 251h141l-94 -533h-131l9 57q-39 -73 -105 -73q-64 0 -104 59l-44 -257h-140z" />
    <glyph glyph-name="paragraph" unicode="&#xb6;" horiz-adv-x="500" 
d="M480 722v-54h-55v-668h-74v668h-78v-668h-74v383q-82 3 -130.5 49.5t-48.5 119.5q0 76 52 123t139 47h269z" />
    <glyph glyph-name="guillemotright" unicode="&#xbb;" horiz-adv-x="462" 
d="M25 94l127 153l-127 152h105l127 -152l-127 -153h-105zM200 94l126 153l-126 152h104l128 -152l-128 -153h-104z" />
    <glyph glyph-name="divide" unicode="&#xf7;" horiz-adv-x="833" 
d="M417 564q30 0 52 -21.5t22 -52.5q0 -30 -21.5 -52t-52.5 -22t-52.5 21.5t-21.5 52.5t22 52.5t52 21.5zM124 347h585v-97h-585v97zM417 180q30 0 52 -21.5t22 -52.5q0 -30 -21.5 -51.5t-52.5 -21.5t-52.5 21t-21.5 52t22 52.5t52 21.5z" />
    <glyph glyph-name="dotlessi" unicode="&#x131;" horiz-adv-x="306" 
d="M81 388h-65v106h213v-385h70v-109h-283v109h65v279z" />
    <glyph glyph-name="florin" unicode="&#x192;" 
d="M490 594q-31 20 -55 20q-59 0 -73 -92l-9 -66h98v-107h-114l-26 -164q-28 -181 -71.5 -258t-138.5 -77q-56 0 -100 32l22 117q35 -22 56 -22q36 0 50.5 34.5t29.5 129.5l34 208h-109v107h121l13 68q39 217 192 217q52 0 100 -27z" />
    <glyph glyph-name="dotaccent" unicode="&#x2d9;" horiz-adv-x="500" 
d="M184 649q0 27 19.5 47t46.5 20q28 0 47.5 -19.5t19.5 -47.5t-19.5 -47.5t-47.5 -19.5q-27 0 -46.5 20t-19.5 47z" />
    <glyph glyph-name="Delta" unicode="&#x394;" horiz-adv-x="718" 
d="M690 0h-662l271 706h120zM359 542l-159 -431h318z" />
    <glyph glyph-name="Delta" unicode="&#x2206;" horiz-adv-x="718" 
d="M690 0h-662l271 706h120zM359 542l-159 -431h318z" />
    <glyph glyph-name="afii10023" unicode="&#x401;" horiz-adv-x="638" 
d="M475 113v114h125v-227h-582v113h74v473h-74v108h582v-215h-125v107h-214v-170h177v-114h-177v-189h214zM140 821q0 33 22 55t54 22q34 0 56 -22t22 -54q0 -33 -22.5 -55t-55.5 -22q-32 0 -54 21.5t-22 54.5zM345 821q0 33 21.5 55t54.5 22q34 0 56 -22t22 -54
q0 -33 -22.5 -55t-55.5 -22q-32 0 -54 21.5t-22 54.5z" />
    <glyph glyph-name="afii10051" unicode="&#x402;" horiz-adv-x="756" 
d="M455 113v-113h-330v113h96v473h-97v-112h-112v220h588v-220h-112v112h-98v-172q70 9 115 9q125 0 186 -63q54 -55 54 -150q0 -87 -42 -143q-26 -35 -72.5 -59t-108.5 -22v127q33 1 54 26q20 25 20 65q0 53 -31 81q-28 25 -92 25q-48 0 -83 -9v-188h65z" />
    <glyph glyph-name="afii10052" unicode="&#x403;" horiz-adv-x="583" 
d="M261 113h85v-113h-328v113h74v473h-74v108h549v-214h-122v106h-184v-473zM434 941l-153 -181h-69l96 181h126z" />
    <glyph glyph-name="afii10053" unicode="&#x404;" horiz-adv-x="738" 
d="M584 454q-10 20 -23.5 39t-37 42.5t-58 38t-74.5 14.5q-81 0 -131 -54q-45 -48 -55 -117h246v-117h-245q2 -60 32 -108q52 -82 156 -82q82 0 133 53.5t71 121.5l122 -59q-21 -66 -60 -114t-77 -71.5t-84 -37t-69 -15.5t-45 -2q-164 0 -265 101q-103 101 -103 261
q0 158 101 259q99 99 251 99q136 0 215 -86v74h103v-240h-103z" />
    <glyph glyph-name="afii10054" unicode="&#x405;" horiz-adv-x="589" 
d="M56 0v238h111q-3 -62 31 -98.5t88 -36.5q42 0 67.5 20t25.5 54q0 36 -24.5 58t-73.5 46l-99 48q-26 13 -45.5 25.5t-42 34t-34.5 53.5t-12 71q0 85 56 139t146 54q81 0 150 -53v41h112v-206h-112q0 46 -29 77.5t-78 31.5q-39 0 -58.5 -20.5t-19.5 -48.5q0 -30 20 -48.5
t54 -33.5l91 -41q168 -75 168 -216q0 -91 -57.5 -147.5t-151.5 -56.5q-102 0 -172 59v-44h-111z" />
    <glyph glyph-name="afii10055" unicode="&#x406;" horiz-adv-x="350" 
d="M16 0v113h74v473h-74v108h317v-108h-74v-473h74v-113h-317z" />
    <glyph glyph-name="afii10056" unicode="&#x407;" horiz-adv-x="350" 
d="M16 0v113h74v473h-74v108h317v-108h-74v-473h74v-113h-317zM22 850q0 28 20.5 46t43.5 18q27 0 45 -19t18 -45q0 -28 -18 -46t-45 -18t-45.5 18.5t-18.5 45.5zM200 850q0 28 20.5 46t43.5 18q24 0 44 -17.5t20 -46.5t-18.5 -46.5t-45.5 -17.5t-45.5 18.5t-18.5 45.5z" />
    <glyph glyph-name="afii10057" unicode="&#x408;" horiz-adv-x="350" 
d="M-33 -20q31 -9 56 -9q41 0 55.5 24t14.5 82v509h-86v108h329v-108h-74v-507q0 -35 -3 -63t-15.5 -63t-33.5 -58.5t-61 -40t-94 -16.5q-44 0 -88 14v128z" />
    <glyph glyph-name="afii10058" unicode="&#x409;" horiz-adv-x="984" 
d="M699 586h-74v-165h122q107 0 166 -59q53 -53 53 -150q0 -102 -56 -156q-59 -56 -186 -56h-342v113h74v473h-144v-166q0 -175 -24.5 -271t-69 -129.5t-123.5 -33.5q-48 0 -83 8v121q16 -3 32 -3q30 0 52.5 10t36 32t22 43t11.5 58.5t4 62t1 68.5v16v184h-74v108h602v-108z
M625 310v-197h68q45 0 70.5 27t25.5 72q0 44 -23 71t-64 27h-77z" />
    <glyph glyph-name="afii10059" unicode="&#x40a;" horiz-adv-x="988" 
d="M703 586h-74v-165h122q107 0 166 -59q53 -53 53 -150q0 -102 -56 -156q-59 -56 -186 -56h-331v113h63v197h-199v-197h64v-113h-307v113h74v473h-74v108h307v-108h-64v-165h199v165h-63v108h306v-108zM629 310v-197h68q45 0 70.5 27t25.5 72q0 44 -23 71t-64 27h-77z" />
    <glyph glyph-name="afii10060" unicode="&#x40b;" horiz-adv-x="802" 
d="M455 113v-113h-330v113h96v473h-97v-112h-112v220h588v-220h-112v112h-98v-188q63 12 135 12q54 0 93 -11.5t59.5 -27.5t32 -41t14.5 -44t3 -44v-129h64v-113h-277v113h52v97q0 81 -98 81q-42 0 -78 -6v-172h65z" />
    <glyph glyph-name="afii10061" unicode="&#x40c;" horiz-adv-x="685" 
d="M16 0v113h74v473h-74v108h317v-108h-74v-473h74v-113h-317zM384 0v113h73l-194 254l211 219h-76v108h287v-108h-58l-190 -199l216 -274h74v-113h-343zM514 941l-153 -181h-69l96 181h126z" />
    <glyph glyph-name="afii10062" unicode="&#x40e;" horiz-adv-x="707" 
d="M707 586h-70l-277 -586h-234v113h138l23 48l-200 425h-77v108h319v-108h-61l110 -256l111 256h-70v108h288v-108zM417 904l135 -13q-3 -59 -47 -101t-152 -42t-152 42t-47 101l135 13q2 -26 19 -43t45 -17t45 17t19 43z" />
    <glyph glyph-name="afii10145" unicode="&#x40f;" horiz-adv-x="715" 
d="M697 585h-74v-472h74v-113h-281v-176h-119v176h-280v113h74v474h-74v107h307v-107h-64v-474h194v473h-64v108h307v-109z" />
    <glyph glyph-name="afii10017" unicode="&#x410;" horiz-adv-x="692" 
d="M-20 0v113h76l153 473h-94v108h463v-108h-83l154 -473h63v-113h-308v113h74l-38 130h-201l-37 -130h77v-113h-299zM265 333h151l-75 257z" />
    <glyph glyph-name="afii10018" unicode="&#x411;" horiz-adv-x="624" 
d="M261 417h113q63 0 109 -19t68.5 -43t35.5 -57.5t15 -51.5t2 -35q0 -103 -60 -157t-153 -54h-373v113h74v473h-74v108h543v-217h-125v109h-175v-169zM261 309v-196h58q12 0 23.5 2t33.5 9.5t36 28.5t14 53q0 103 -110 103h-55z" />
    <glyph glyph-name="afii10019" unicode="&#x412;" horiz-adv-x="632" 
d="M255 110h53q23 0 40 2.5t37 11t31 28t11 49.5q0 109 -131 109h-41v-200zM255 412h42q65 0 87.5 25.5t22.5 65.5q0 23 -7.5 39.5t-18 25.5t-27 13.5t-28.5 5.5t-29 1h-42v-176zM16 694h303q251 0 251 -186q0 -109 -106 -139q61 -20 94.5 -67.5t33.5 -110.5q0 -91 -62 -141
t-173 -50h-341v113h74v473h-74v108z" />
    <glyph glyph-name="afii10020" unicode="&#x413;" horiz-adv-x="583" 
d="M261 113h85v-113h-328v113h74v473h-74v108h549v-214h-122v106h-184v-473z" />
    <glyph glyph-name="afii10021" unicode="&#x414;" horiz-adv-x="722" 
d="M612 113h92v-253h-122v140h-448v-140h-122v253h77q44 78 59.5 164.5t15.5 207.5v101h-74v108h596v-108h-74v-473zM443 586h-138v-91q0 -128 -13 -214t-50 -168h201v473z" />
    <glyph glyph-name="afii10022" unicode="&#x415;" horiz-adv-x="625" 
d="M473 113v114h125v-227h-582v113h74v473h-74v108h582v-215h-125v107h-214v-170h177v-114h-177v-189h214z" />
    <glyph glyph-name="afii10024" unicode="&#x416;" horiz-adv-x="1008" 
d="M366 0v113h58v473h-58v108h276v-108h-58v-473h58v-113h-276zM698 0v113h57l-167 254l176 219h-56v108h267v-108h-58l-166 -200l187 -273h70v-113h-310zM310 0h-310v113h70l187 273l-166 200h-58v108h267v-108h-56l176 -219l-167 -254h57v-113z" />
    <glyph glyph-name="afii10025" unicode="&#x417;" horiz-adv-x="564" 
d="M161 480h-116v214h111v-55q64 67 168 67q98 0 153 -55q46 -46 46 -125q0 -55 -26 -93q-32 -46 -89 -62v-5q52 -12 85 -48q44 -49 44 -129q0 -101 -74 -155q-64 -48 -180 -48q-195 0 -263 149l113 75q15 -36 45.5 -63.5t79.5 -27.5t76 29q24 26 24 65q0 46 -36 68
q-26 13 -67 13h-66v116h50q25 0 47 6.5t30.5 12t11.5 8.5q29 26 29 65q0 38 -27 58q-23 17 -57 17q-44 0 -73 -28.5t-39 -68.5z" />
    <glyph glyph-name="afii10026" unicode="&#x418;" horiz-adv-x="754" 
d="M662 113h74v-113h-309v113h74l10 357l-279 -470h-214v118h74v468h-74v108h309v-108h-74l-10 -370l286 478h207v-108h-74v-473z" />
    <glyph glyph-name="afii10027" unicode="&#x419;" horiz-adv-x="754" 
d="M662 113h74v-113h-309v113h74l10 357l-279 -470h-214v118h74v468h-74v108h309v-108h-74l-10 -370l286 478h207v-108h-74v-473zM434 904l135 -13q-3 -59 -47 -101t-152 -42t-152 42t-47 101l135 13q2 -26 19 -43t45 -17t45 17t19 43z" />
    <glyph glyph-name="afii10028" unicode="&#x41a;" horiz-adv-x="685" 
d="M16 0v113h74v473h-74v108h317v-108h-74v-473h74v-113h-317zM384 0v113h73l-194 254l211 219h-76v108h287v-108h-58l-190 -199l216 -274h74v-113h-343z" />
    <glyph glyph-name="afii10029" unicode="&#x41b;" horiz-adv-x="717" 
d="M699 113v-113h-317v113h74v473h-144v-166q0 -175 -24.5 -271t-69 -129.5t-123.5 -33.5q-48 0 -83 8v121q16 -3 32 -3q30 0 52.5 10t36 32t22 43t11.5 58.5t4 62t1 68.5v16v184h-74v108h602v-108h-74v-473h74z" />
    <glyph glyph-name="afii10030" unicode="&#x41c;" horiz-adv-x="934" 
d="M406 0l-210 586v-473h72v-113h-252v113h72v473h-72v108h289l152 -428l157 428h305v-108h-72v-473h72v-113h-308v113h72v473l-214 -586h-63z" />
    <glyph glyph-name="afii10031" unicode="&#x41d;" horiz-adv-x="718" 
d="M16 0v113h74v473h-74v108h307v-108h-64v-159h199v159h-63v108h306v-108h-74v-473h74v-113h-306v113h63v201h-199v-201h64v-113h-307z" />
    <glyph glyph-name="afii10032" unicode="&#x41e;" horiz-adv-x="782" 
d="M397 706q153 0 255 -102q100 -101 100 -258t-101 -258q-102 -102 -260 -102t-259 101q-102 103 -102 259q0 157 101 257q103 103 266 103zM391 111q72 0 123.5 61.5t51.5 176.5t-51.5 176.5t-123.5 61.5t-123.5 -61.5t-51.5 -176.5t51.5 -176.5t123.5 -61.5z" />
    <glyph glyph-name="afii10033" unicode="&#x41f;" horiz-adv-x="721" 
d="M18 0v113h74v473h-74v108h685v-108h-74v-473h74v-113h-306v113h63v473h-199v-473h64v-113h-307z" />
    <glyph glyph-name="afii10034" unicode="&#x420;" horiz-adv-x="637" 
d="M259 586v-216h32q27 0 47 3t43.5 12.5t36.5 33t13 59.5t-12.5 59t-35.5 33t-43.5 13t-48.5 3h-32zM259 113h74v-113h-317v113h74v473h-74v108h328q146 0 205.5 -56t59.5 -160q0 -34 -4.5 -61t-21 -58.5t-44.5 -52.5t-77.5 -35t-117.5 -14h-85v-144z" />
    <glyph glyph-name="afii10035" unicode="&#x421;" horiz-adv-x="759" 
d="M597 454q-10 20 -23.5 39t-37 42.5t-58 38t-74.5 14.5q-79 0 -134.5 -59t-55.5 -180t55.5 -180t137.5 -59t132.5 53t71.5 122l122 -59q-21 -66 -60 -114t-77 -71.5t-84 -37t-69.5 -15.5t-45.5 -2q-162 0 -264 101q-103 101 -103 261q0 158 101 259q99 99 251 99
q136 0 215 -86v74h103v-240h-103z" />
    <glyph glyph-name="afii10036" unicode="&#x422;" horiz-adv-x="611" 
d="M486 113v-113h-361v113h96v473h-97v-162h-112v270h588v-270h-112v162h-98v-473h96z" />
    <glyph glyph-name="afii10037" unicode="&#x423;" horiz-adv-x="707" 
d="M707 586h-70l-277 -586h-234v113h138l23 48l-200 425h-77v108h319v-108h-61l110 -256l111 256h-70v108h288v-108z" />
    <glyph glyph-name="afii10038" unicode="&#x424;" horiz-adv-x="806" 
d="M492 588h38q137 0 204 -67q60 -59 60 -162q0 -131 -99 -192q-67 -41 -171 -41h-32v-54h72v-90h-322v90h72v54h-32q-104 0 -171 41q-99 61 -99 192q0 103 60 162q67 67 204 67h38v44h-72v91h322v-91h-72v-44zM489 495v-276h15q23 0 44 11t29 19.5t12 15.5q25 34 25 88
q0 59 -27 97q-31 45 -85 45h-13zM317 495h-13q-54 0 -85 -45q-27 -38 -27 -97q0 -54 25 -88q4 -7 12 -15.5t29 -19.5t44 -11h15v276z" />
    <glyph glyph-name="afii10039" unicode="&#x425;" horiz-adv-x="653" 
d="M-33 0v113h92l171 245l-159 228h-77v108h320v-108h-61l89 -125l87 125h-50v108h272v-108h-75l-162 -231l169 -242h90v-113h-338v113h67l-99 141l-100 -141h60v-113h-296z" />
    <glyph glyph-name="afii10040" unicode="&#x426;" horiz-adv-x="731" 
d="M697 585h-74v-472h90v-260h-122v147h-574v113h74v474h-74v107h307v-107h-64v-474h194v473h-64v108h307v-109z" />
    <glyph glyph-name="afii10041" unicode="&#x427;" horiz-adv-x="672" 
d="M580 113h74v-113h-321v113h78v173q-63 -12 -135 -12q-54 0 -93 11.5t-59.5 27.5t-32 41t-14.5 44t-3 44v144h-64v108h285v-108h-60v-112q0 -81 98 -81q42 0 78 6v187h-60v108h303v-108h-74v-473z" />
    <glyph glyph-name="afii10042" unicode="&#x428;" horiz-adv-x="979" 
d="M647 694h313v-108h-74v-473h74v-113h-941v113h74v473h-74v108h243v-581h145v473h-70v108h239v-581h141v473h-70v108z" />
    <glyph glyph-name="afii10043" unicode="&#x429;" horiz-adv-x="1007" 
d="M987 -153h-122v153h-846v113h74v473h-74v108h243v-581h145v473h-70v108h239v-581h141v473h-70v108h314v-108h-75v-473h101v-266z" />
    <glyph glyph-name="afii10044" unicode="&#x42a;" horiz-adv-x="751" 
d="M476 586h-82v-165h122q107 0 166 -59q53 -53 53 -150q0 -102 -56 -156q-59 -56 -186 -56h-348v113h80v473h-88v-108h-120v216h459v-108zM394 310v-197h68q45 0 70.5 27t25.5 72q0 44 -23 71t-64 27h-77z" />
    <glyph glyph-name="afii10045" unicode="&#x42b;" horiz-adv-x="954" 
d="M935 0h-317v113h74v473h-74v108h317v-108h-74v-473h74v-113zM336 586h-74v-165h116q107 0 166 -59q53 -53 53 -150q0 -102 -56 -156q-59 -56 -186 -56h-336v113h74v473h-74v108h317v-108zM262 310v-197h62q45 0 70.5 27t25.5 72q0 44 -23 71t-64 27h-71z" />
    <glyph glyph-name="afii10046" unicode="&#x42c;" horiz-adv-x="619" 
d="M18 113h74v473h-74v108h317v-108h-74v-165h122q107 0 166 -59q53 -53 53 -150q0 -102 -56 -156q-59 -56 -186 -56h-342v113zM261 310v-197h68q45 0 70.5 27t25.5 72q0 44 -23 71t-64 27h-77z" />
    <glyph glyph-name="afii10047" unicode="&#x42d;" horiz-adv-x="738" 
d="M153 454h-103v240h103v-74q79 86 215 86q152 0 251 -99q101 -101 101 -259q0 -160 -103 -261q-101 -101 -265 -101q-22 0 -45 2t-69 15.5t-84 37t-77 71.5t-60 114l122 59q20 -68 71 -121.5t133 -53.5q104 0 156 82q30 48 32 108h-245v117h246q-10 69 -55 117
q-50 54 -131 54q-40 0 -74.5 -14.5t-58 -38t-37 -42.5t-23.5 -39z" />
    <glyph glyph-name="afii10048" unicode="&#x42e;" horiz-adv-x="1047" 
d="M337 694v-108h-74v-164h80q14 119 89 194q90 90 250 90q181 0 273 -116q74 -95 74 -235q0 -182 -102 -282q-88 -87 -238 -87q-174 0 -268 109q-75 88 -80 210h-78v-192h74v-113h-318v113h75l-1 473h-74v108h318zM686 111q88 0 129 82q31 62 31 161q0 89 -28 146
q-43 87 -132 87q-88 0 -132 -86q-30 -57 -30 -154q0 -105 35 -163q44 -73 127 -73z" />
    <glyph glyph-name="afii10049" unicode="&#x42f;" horiz-adv-x="675" 
d="M657 0h-312v113h69v185h-49l-176 -298h-178v117h88l119 196q-53 10 -94 51q-51 52 -51 136q0 91 58 144q55 50 143 50h383v-108h-74v-473h74v-113zM418 405v181h-70q-44 0 -70.5 -24t-26.5 -64t25.5 -66.5t73.5 -26.5h68z" />
    <glyph glyph-name="afii10065" unicode="&#x430;" horiz-adv-x="546" 
d="M324 0v34q-64 -48 -142 -48q-72 0 -114 41.5t-42 113.5q0 78 48 126t127 48q57 0 123 -27v30q0 94 -84 94q-64 0 -94 -45l-109 24q36 115 206 115q154 0 205 -75q12 -17 17.5 -40t6 -37t0.5 -46v-199h70v-109h-218zM324 132v57q-39 31 -82 31q-30 0 -50 -17t-20 -52
q0 -33 17 -49t41 -16q46 0 94 46z" />
    <glyph glyph-name="afii10066" unicode="&#x431;" horiz-adv-x="564" 
d="M535 746v-124q-10 -1 -67.5 -9.5t-85.5 -11.5q-105 -13 -139 -25q-56 -20 -83 -64q-28 -45 -30 -111h4q58 93 177 93q98 0 165 -59q73 -65 73 -180q0 -121 -64 -193q-68 -76 -194 -76q-147 0 -215 100q-54 79 -54 236q0 162 44 245q38 72 105 107q51 27 178 48
q97 16 186 24zM291 376q-55 0 -88 -46q-24 -34 -24 -85q0 -67 30 -104q30 -36 80 -36q57 0 86 45q24 36 24 94q0 62 -33 98q-30 34 -75 34z" />
    <glyph glyph-name="afii10067" unicode="&#x432;" 
d="M18 494h319q19 0 38 -3t48.5 -13t48 -37t18.5 -67q0 -43 -22 -73t-64 -36v-4q36 -5 59 -21t31.5 -38.5t10.5 -34t2 -24.5q0 -26 -6.5 -47t-25.5 -45t-64 -37.5t-113 -13.5h-280v109h65v279h-65v106zM232 395v-102h59q24 0 40 13.5t16 35.5q0 53 -61 53h-54zM232 205v-106
h55q68 0 68 50q0 56 -66 56h-57z" />
    <glyph glyph-name="afii10068" unicode="&#x433;" horiz-adv-x="478" 
d="M17 494h448v-184h-107v78h-127v-279h70v-109h-284v109h65v279h-65v106z" />
    <glyph glyph-name="afii10069" unicode="&#x434;" horiz-adv-x="578" 
d="M560 388h-70v-279h70v-224h-105v115h-341v-115h-105v222h56q43 50 58.5 107t15.5 132v42h-55v106h476v-106zM341 388h-81v-27q0 -57 -2 -89t-15.5 -78.5t-40.5 -84.5h139v279z" />
    <glyph glyph-name="afii10070" unicode="&#x435;" horiz-adv-x="567" 
d="M181 219q0 -20 5.5 -39t17.5 -39t36.5 -32.5t58.5 -12.5q76 0 109 66l116 -37q-17 -38 -46 -66.5t-55.5 -41.5t-59 -21t-48.5 -9t-32 -1q-115 0 -185 70.5t-70 189.5q0 118 69.5 189t184.5 71q123 0 189 -77t66 -204v-6h-356zM182 303h197q-2 40 -28.5 67t-69.5 27
t-70 -26t-29 -68z" />
    <glyph glyph-name="afii10072" unicode="&#x436;" horiz-adv-x="813" 
d="M278 109h60v279h-45v106h227v-106h-45v-279h60v-109h-257v109zM565 494h225v-106h-50l-118 -125l112 -154h64v-109h-145l-175 249l128 139h-41v106zM335 249l-128 139h41v106h-225v-106h50l118 -125l-112 -154h-64v-109h145z" />
    <glyph glyph-name="afii10073" unicode="&#x437;" horiz-adv-x="471" 
d="M43 494h104v-37q55 49 132 49q70 0 116 -34q50 -37 50 -106q0 -40 -24 -65q-23 -27 -65 -33l1 -6q37 -6 64 -33q32 -34 32 -85q0 -80 -65 -123q-54 -35 -153 -35q-77 0 -132 31q-60 36 -83 104l111 42q12 -32 38 -51.5t59 -19.5q37 0 56 22q12 14 12 35q0 22 -15 38
t-44 16h-46v95h35q66 0 66 55q0 24 -15 36.5t-37 12.5q-36 0 -59.5 -20.5t-34.5 -46.5h-103v159z" />
    <glyph glyph-name="afii10074" unicode="&#x438;" horiz-adv-x="604" 
d="M587 388h-65v-279h65v-109h-262v109h65l9 236l-181 -345h-201v109h65v279h-65v106h262v-106h-65l-6 -223l173 329h206v-106z" />
    <glyph glyph-name="afii10075" unicode="&#x439;" horiz-adv-x="604" 
d="M587 388h-65v-279h65v-109h-262v109h65l9 236l-181 -345h-201v109h65v279h-65v106h262v-106h-65l-6 -223l173 329h206v-106zM375 707l135 -11q-13 -138 -199 -138t-199 138l135 11q2 -26 19 -43t45 -17t45 17t19 43z" />
    <glyph glyph-name="afii10076" unicode="&#x43a;" horiz-adv-x="602" 
d="M233 109h64v-109h-279v109h65v279h-65v106h266v-106h-51v-279zM236 251l162 137h-54v106h242v-106h-54l-142 -119l136 -160h60v-109h-146z" />
    <glyph glyph-name="afii10077" unicode="&#x43b;" horiz-adv-x="603" 
d="M586 0h-283v109h64v279h-105v-90q0 -48 -1.5 -80.5t-7.5 -72.5t-18.5 -65.5t-32.5 -48.5t-52 -34t-75 -11q-34 0 -66 8l4 104q10 -2 26 -2q26 0 45 12t28.5 28t14.5 44t6 47.5t1 50.5v16v94h-65v106h517v-104h-70v-281h70v-109z" />
    <glyph glyph-name="afii10078" unicode="&#x43c;" horiz-adv-x="778" 
d="M490 494h269v-106h-65v-275h65v-113h-267v109h60v265h-2l-147 -374h-54l-151 376h-3v-267h60v-109h-236v109h65v279h-65v106h277l98 -261z" />
    <glyph glyph-name="afii10079" unicode="&#x43d;" horiz-adv-x="592" 
d="M575 388h-70v-279h70v-109h-219v213h-125v-104h70v-109h-284v109h65v279h-65v106h214v-190h125v84h-63v106h282v-106z" />
    <glyph glyph-name="afii10080" unicode="&#x43e;" horiz-adv-x="578" 
d="M550 246q0 -117 -72.5 -188.5t-189.5 -71.5t-188.5 71t-71.5 188q0 118 72 189.5t188 71.5t189 -71t73 -189zM288 107q52 0 81 38t29 102q0 71 -32 104.5t-78 33.5q-52 0 -81 -37.5t-29 -100.5q0 -64 29 -102t81 -38z" />
    <glyph glyph-name="afii10081" unicode="&#x43f;" horiz-adv-x="591" 
d="M574 0h-284v109h65v276h-122v-385h-216v109h60v276h-60v109h557v-109h-70v-276h70v-109z" />
    <glyph glyph-name="afii10082" unicode="&#x440;" horiz-adv-x="616" 
d="M76 388h-65v106h207v-76q66 76 154 76q87 0 151 -69t64 -193q0 -119 -61 -182.5t-149 -63.5q-94 0 -153 79v-118h72v-109h-285v109h65v441zM328 98q46 0 76 36t30 108q0 66 -28 104.5t-78 38.5q-49 0 -77 -38.5t-28 -104.5q0 -72 30 -108t75 -36z" />
    <glyph glyph-name="afii10083" unicode="&#x441;" horiz-adv-x="556" 
d="M411 292q-12 43 -43 68.5t-74 25.5q-50 0 -83 -34t-33 -105q0 -72 33.5 -106t84.5 -34q45 0 77.5 26t46.5 67l116 -59q-36 -75 -100.5 -115t-147.5 -40q-117 0 -188.5 71t-71.5 187q0 115 68 188.5t176 73.5q92 0 145 -56v44h106v-200z" />
    <glyph glyph-name="afii10084" unicode="&#x442;" horiz-adv-x="541" 
d="M519 299h-99v89h-75v-279h70v-109h-289v109h70v279h-75v-85h-99v191h497v-195z" />
    <glyph glyph-name="afii10085" unicode="&#x443;" horiz-adv-x="539" 
d="M95 -162v106h104l22 54l-170 390h-65v106h270v-106h-56l91 -219l80 219h-52v106h232v-106h-66l-215 -550h-175z" />
    <glyph glyph-name="afii10086" unicode="&#x444;" horiz-adv-x="738" 
d="M443 700v-206q31 12 72 12q97 0 153 -70.5t56 -182.5q0 -69 -20.5 -127t-70 -99t-121.5 -41q-40 0 -68 14v-59h65v-113h-279v113h65v59q-30 -14 -69 -14q-95 0 -153.5 73t-58.5 194q0 112 56 182.5t153 70.5q41 0 72 -12v100h-75v106h223zM443 108q14 -10 37 -10
q8 0 16 1.5t22.5 10t25.5 23.5t19.5 46.5t8.5 74.5q0 146 -92 146q-16 0 -37 -7v-285zM295 108v285q-21 7 -37 7q-92 0 -92 -146q0 -43 8.5 -74.5t19.5 -46.5t25.5 -23.5t22.5 -10t16 -1.5q23 0 37 10z" />
    <glyph glyph-name="afii10087" unicode="&#x445;" horiz-adv-x="507" 
d="M-1 0v109h69l100 133l-103 146h-55v106h160l90 -137l97 137h133v-106h-64l-94 -127l106 -152h71v-109h-173l-96 146l-104 -146h-137z" />
    <glyph glyph-name="afii10088" unicode="&#x446;" horiz-adv-x="574" 
d="M497 109h77v-217h-107v108h-467v109h65v279h-65v106h214v-385h126v279h-65v106h292v-106h-70v-279z" />
    <glyph glyph-name="afii10089" unicode="&#x447;" horiz-adv-x="583" 
d="M565 388h-70v-278h70v-110h-294v111h75v88q-55 -10 -112 -10q-87 0 -125 40q-16 16 -23.5 40t-8 35.5t-0.5 35.5v48h-65v106h214v-127q0 -15 2 -26t8.5 -22.5t21.5 -17.5t38 -6t50 5v88h-60v106h279v-106z" />
    <glyph glyph-name="afii10090" unicode="&#x448;" horiz-adv-x="872" 
d="M569 494h284v-106h-70v-279h70v-109h-834v109h65v279h-65v106h214v-385h126v279h-65v106h214v-385h126v279h-65v106z" />
    <glyph glyph-name="afii10091" unicode="&#x449;" horiz-adv-x="882" 
d="M863 109v-226h-107v117h-737v109h65v279h-65v106h214v-385h126v279h-65v106h214v-385h126v279h-65v106h284v-106h-70v-279h80z" />
    <glyph glyph-name="afii10092" unicode="&#x44a;" horiz-adv-x="625" 
d="M423 388h-84v-86h109q70 0 116.5 -36t46.5 -110q0 -82 -53 -119t-159 -37h-279v109h70v279h-80v-116h-96v222h409v-106zM339 207v-98h63q57 0 57 50q0 48 -61 48h-59z" />
    <glyph glyph-name="afii10093" unicode="&#x44b;" horiz-adv-x="846" 
d="M827 0h-289v109h70v279h-70v106h289v-106h-70v-279h70v-109zM313 388h-75v-86h104q70 0 116.5 -36t46.5 -110q0 -82 -53 -119t-159 -37h-274v109h70v279h-70v106h294v-106zM238 207v-98h58q57 0 57 50q0 48 -61 48h-54z" />
    <glyph glyph-name="afii10094" unicode="&#x44c;" horiz-adv-x="517" 
d="M312 388h-75v-86h104q70 0 116.5 -36t46.5 -110q0 -82 -53 -119t-159 -37h-274v109h70v279h-70v106h294v-106zM237 207v-98h58q57 0 57 50q0 48 -61 48h-54z" />
    <glyph glyph-name="afii10095" unicode="&#x44d;" horiz-adv-x="533" 
d="M155 494v-32q44 44 123 44q97 0 168.5 -68.5t71.5 -189.5q0 -112 -65.5 -187t-192.5 -75q-178 0 -241 140l110 53q37 -76 123 -76q46 0 79 28t34 73h-152v101h152q-6 34 -31 60t-74 26q-74 0 -103 -59h-108v162h106z" />
    <glyph glyph-name="afii10096" unicode="&#x44e;" horiz-adv-x="806" 
d="M238 308h59q13 83 72 138q66 60 169 60q124 0 194 -79q59 -67 59 -177q0 -107 -57 -178q-70 -86 -196 -86q-122 0 -190 83q-48 57 -53 135h-57v-95h43v-109h-262v109h70v279h-70v106h267v-106h-48v-80zM641 245q0 68 -34 105q-28 29 -69 29q-57 0 -84 -47
q-19 -32 -19 -87q0 -63 26 -98q29 -37 77 -37q57 0 83 47q20 37 20 88z" />
    <glyph glyph-name="afii10097" unicode="&#x44f;" horiz-adv-x="553" 
d="M536 0h-219v182h-46l-101 -182h-162v109h75l53 91q-53 14 -78.5 53.5t-25.5 91.5q0 80 62 119q47 30 139 30h303v-96h-70v-289h70v-109zM317 398h-72q-27 0 -43.5 -15.5t-16.5 -39.5q0 -25 16.5 -40.5t41.5 -15.5h74v111z" />
    <glyph glyph-name="afii10071" unicode="&#x451;" horiz-adv-x="567" 
d="M97 624q0 34 21.5 55.5t54.5 21.5q34 0 56 -22t22 -54q0 -33 -22.5 -55t-55.5 -22q-32 0 -54 21.5t-22 54.5zM302 624q0 34 22 55.5t54 21.5q34 0 56 -22t22 -54q0 -33 -22.5 -55t-55.5 -22q-32 0 -54 21.5t-22 54.5zM181 219q0 -20 5.5 -39t17.5 -39t36.5 -32.5
t58.5 -12.5q76 0 109 66l116 -37q-17 -38 -46 -66.5t-55.5 -41.5t-59 -21t-48.5 -9t-32 -1q-115 0 -185 70.5t-70 189.5q0 118 69.5 189t184.5 71q123 0 189 -77t66 -204v-6h-356zM182 303h197q-2 40 -28.5 67t-69.5 27t-70 -26t-29 -68z" />
    <glyph glyph-name="afii10099" unicode="&#x452;" horiz-adv-x="605" 
d="M42 0v109h64v370h-106v74h106v46h-64v95h213v-141h205v-74h-205v-84q71 49 149 49q146 0 146 -164v-260q0 -49 -13.5 -86.5t-34 -58t-49 -33t-53 -16t-50.5 -2.5v124q30 4 41 23t11 65v207q0 81 -55 81q-46 0 -91 -32v-183h54v-109h-268z" />
    <glyph glyph-name="afii10100" unicode="&#x453;" horiz-adv-x="478" 
d="M17 494h448v-184h-107v78h-127v-279h70v-109h-284v109h65v279h-65v106zM382 741l-153 -181h-69l96 181h126z" />
    <glyph glyph-name="afii10101" unicode="&#x454;" horiz-adv-x="533" 
d="M382 494h106v-162h-108q-30 59 -103 59q-49 0 -74 -26t-31 -60h152v-101h-152q1 -45 34 -73t79 -28q86 0 123 76l110 -53q-63 -140 -241 -140q-127 0 -192.5 75t-65.5 187q0 121 71.5 189.5t168.5 68.5q79 0 123 -44v32z" />
    <glyph glyph-name="afii10102" unicode="&#x455;" horiz-adv-x="495" 
d="M43 0v174h116q0 -39 27 -61.5t74 -22.5q33 0 50.5 13.5t17.5 36.5q0 16 -10.5 25.5t-23.5 13.5t-44 11l-99 22q-15 3 -30.5 9.5t-38 21t-37 42.5t-14.5 66q0 70 47 112.5t122 42.5q63 0 126 -35v23h111v-143h-111q-31 55 -104 55q-28 0 -42 -10.5t-14 -26.5
q0 -14 11 -23.5t24 -13t31 -6.5q5 -1 7 -1l79 -16q64 -13 97 -40q48 -40 48 -114q0 -63 -35 -107q-50 -62 -142 -62q-64 0 -127 33v-19h-116z" />
    <glyph glyph-name="afii10103" unicode="&#x456;" horiz-adv-x="306" 
d="M81 388h-65v106h213v-385h70v-109h-283v109h65v279zM67 624q0 34 23.5 58t57.5 24t58.5 -24t24.5 -57q0 -34 -24 -58t-59 -24q-33 0 -57 23.5t-24 57.5z" />
    <glyph glyph-name="afii10104" unicode="&#x457;" horiz-adv-x="369" 
d="M126 388h-65v106h213v-385h70v-109h-283v109h65v279zM3 624q0 34 23.5 58t57.5 24t58.5 -24t24.5 -57q0 -34 -24 -58t-59 -24q-33 0 -57 23.5t-24 57.5zM201 624q0 34 23.5 58t57.5 24t58.5 -24t24.5 -57q0 -34 -24 -58t-59 -24q-33 0 -57 23.5t-24 57.5z" />
    <glyph glyph-name="afii10105" unicode="&#x458;" horiz-adv-x="288" 
d="M60 624q0 34 23.5 58t57.5 24q35 0 59 -24t24 -58q0 -33 -24.5 -57t-58.5 -24q-33 0 -57 23.5t-24 57.5zM74 388h-64v106h212v-474q0 -195 -194 -195q-13 0 -61 6v115l24 -1q29 -1 46.5 4.5t25 20t9.5 28.5t2 38v352z" />
    <glyph glyph-name="afii10106" unicode="&#x459;" horiz-adv-x="800" 
d="M591 388h-75v-86h104q70 0 116.5 -36t46.5 -110q0 -82 -53 -119t-159 -37h-261v109h57v279h-105v-90q0 -48 -1.5 -80.5t-7.5 -72.5t-18.5 -65.5t-32.5 -48.5t-52 -34t-75 -11q-34 0 -66 8l4 104q10 -2 26 -2q26 0 45 12t28.5 28t14.5 44t6 47.5t1 50.5v16v94h-65v106h522
v-106zM516 207v-98h58q57 0 57 50q0 48 -61 48h-54z" />
    <glyph glyph-name="afii10107" unicode="&#x45a;" horiz-adv-x="789" 
d="M580 388h-75v-86h104q70 0 116.5 -36t46.5 -110q0 -82 -53 -119t-159 -37h-204v207h-125v-98h70v-109h-284v109h65v279h-65v106h212v-192h127v86h-65v106h289v-106zM505 207v-98h58q57 0 57 50q0 48 -61 48h-54z" />
    <glyph glyph-name="afii10108" unicode="&#x45b;" horiz-adv-x="621" 
d="M54 0v109h64v370h-106v74h106v46h-64v95h213v-141h205v-74h-205v-84q72 49 145 49q37 0 64 -14.5t40 -33t21 -44.5t9 -41t1 -31v-171h69v-109h-219v243q0 41 -11.5 61t-42.5 20q-40 0 -75 -32v-183h74v-109h-288z" />
    <glyph glyph-name="afii10109" unicode="&#x45c;" horiz-adv-x="602" 
d="M233 109h64v-109h-279v109h65v279h-65v106h266v-106h-51v-279zM236 251l162 137h-54v106h242v-106h-54l-142 -119l136 -160h60v-109h-146zM444 741l-153 -181h-69l96 181h126z" />
    <glyph glyph-name="afii10110" unicode="&#x45e;" horiz-adv-x="539" 
d="M95 -162v106h104l22 54l-170 390h-65v106h270v-106h-56l91 -219l80 219h-52v106h232v-106h-66l-215 -550h-175zM351 707l135 -11q-13 -138 -199 -138t-199 138l135 11q2 -26 19 -43t45 -17t45 17t19 43z" />
    <glyph glyph-name="afii10193" unicode="&#x45f;" horiz-adv-x="567" 
d="M497 109h70v-109h-233v-160h-114v160h-220v109h65v279h-65v106h214v-385h126v279h-65v106h292v-106h-70v-279z" />
    <glyph glyph-name="afii10050" unicode="&#x490;" horiz-adv-x="583" 
d="M261 113h85v-113h-328v113h74v473h-74v108h427v109h122v-217h-306v-473z" />
    <glyph glyph-name="afii10098" unicode="&#x491;" horiz-adv-x="478" 
d="M17 494h341v78h107v-184h-234v-279h70v-109h-284v109h65v279h-65v106z" />
    <glyph glyph-name="endash" unicode="&#x2013;" horiz-adv-x="500" 
d="M500 307v-111h-500v111h500z" />
    <glyph glyph-name="emdash" unicode="&#x2014;" horiz-adv-x="1000" 
d="M0 196v111h1000v-111h-1000z" />
    <glyph glyph-name="quoteleft" unicode="&#x2018;" horiz-adv-x="260" 
d="M209 706v-75q-38 -6 -55 -25t-17 -54v-12h68v-162h-153v146q0 92 37 135.5t120 46.5z" />
    <glyph glyph-name="quoteright" unicode="&#x2019;" horiz-adv-x="260" 
d="M54 367v75q38 6 55 24.5t17 53.5v12h-68v162h153v-145q0 -92 -37 -135.5t-120 -46.5z" />
    <glyph glyph-name="quotedblleft" unicode="&#x201c;" horiz-adv-x="483" 
d="M213 706v-75q-38 -6 -55 -25t-17 -54v-12h67v-162h-152v146q0 92 37 135.5t120 46.5zM428 706v-75q-38 -6 -55 -25t-17 -54v-12h68v-162h-153v146q0 92 37 135.5t120 46.5z" />
    <glyph glyph-name="quotedblright" unicode="&#x201d;" horiz-adv-x="483" 
d="M57 367v75q38 6 55 24.5t17 53.5v12h-67v162h153v-145q0 -92 -37.5 -135.5t-120.5 -46.5zM272 367v75q38 6 55.5 24.5t17.5 53.5v12h-68v162h153v-145q0 -92 -37.5 -135.5t-120.5 -46.5z" />
    <glyph glyph-name="quotedblbase" unicode="&#x201e;" horiz-adv-x="483" 
d="M51 -166v75q38 6 55 25t17 54v12h-67v162h152v-145q0 -92 -37 -136t-120 -47zM266 -166v75q38 6 55 25t17 54v12h-67v162h153v-145q0 -92 -37.5 -136t-120.5 -47z" />
    <glyph glyph-name="dagger" unicode="&#x2020;" horiz-adv-x="588" 
d="M235 -116v456h-83v-60h-98v229h98v-62h83v155h-64v92h246v-92h-64v-155h83v62h98v-229h-98v60h-83v-456h-118z" />
    <glyph glyph-name="bullet" unicode="&#x2022;" horiz-adv-x="590" 
d="M150 372q0 60 42.5 102t102.5 42q59 0 101.5 -42t42.5 -102q0 -59 -42.5 -102t-102.5 -43t-102 42.5t-42 102.5z" />
    <glyph glyph-name="ellipsis" unicode="&#x2026;" horiz-adv-x="1000" 
d="M-2 0v162h152v-162h-152zM331 0v162h152v-162h-152zM665 0v162h152v-162h-152z" />
    <glyph glyph-name="Euro" unicode="&#x20ac;" horiz-adv-x="819" 
d="M48 450h70q21 89 89 157q100 99 251 99q136 0 215 -86v74h103v-195h-110q-52 91 -168 91q-87 0 -132.5 -41t-61.5 -99h329l-30 -82h-312q-5 -31 1 -57h293l-30 -82h-244q18 -55 64 -87t108 -32t113.5 36t77.5 98l119 -57q-39 -95 -123 -148t-197 -53q-163 0 -264 101
q-60 60 -86 142h-105l30 82h60q-3 35 -1 57h-89z" />
    <glyph glyph-name="afii61352" unicode="&#x2116;" horiz-adv-x="1140" 
d="M213 523l4 -410h76v-113h-277v113h77v473h-77v108h271l257 -449l-5 341h-76v108h277v-108h-77v-586h-149zM940 307q-75 0 -118 55t-43 144q0 97 47.5 148.5t113.5 51.5q67 0 113.5 -51t46.5 -149q0 -90 -42.5 -144.5t-117.5 -54.5zM940 400q23 0 39 27t16 79
q0 56 -17.5 81t-39.5 25q-21 0 -38 -24t-17 -82q0 -43 11.5 -68.5t22.5 -31.5t23 -6zM791 160v99h303v-99h-303z" />
    <glyph glyph-name="trademark" unicode="&#x2122;" horiz-adv-x="833" 
d="M101 714h237v-55h-82v-212h-73v212h-82v55zM392 714h96l62 -162l60 162h96v-267h-66v200l-75 -200h-30l-77 200v-200h-66v267z" />
    <glyph glyph-name="radical" unicode="&#x221a;" horiz-adv-x="769" 
d="M5 479h271l149 -387l147 718h192v-99h-114l-186 -910h-84l-245 597h-130v81z" />
    <glyph glyph-name="infinity" unicode="&#x221e;" horiz-adv-x="795" 
d="M30 295q0 76 51.5 128t129.5 52q104 0 187 -104q82 104 184 104q74 0 128.5 -48t54.5 -132q0 -80 -50 -130t-128 -50q-58 0 -100.5 25t-88.5 77q-47 -52 -88 -77t-97 -25q-79 0 -131 52t-52 128zM130 296q0 -42 24.5 -63.5t59.5 -21.5q59 0 126 84q-66 84 -130 84
q-30 0 -55 -20.5t-25 -62.5zM664 295q0 39 -24 61.5t-56 22.5q-62 0 -128 -84q66 -84 128 -84q35 0 57.5 23.5t22.5 60.5z" />
    <glyph glyph-name="approxequal" unicode="&#x2248;" horiz-adv-x="834" 
d="M747 457v-108q-96 -67 -185 -67q-49 0 -90 15l-35 12q-111 37 -162 37q-85 0 -188 -77v108q98 70 189 70q61 0 142 -28l29 -10q77 -27 117 -27q89 0 183 75zM747 237v-108q-96 -67 -185 -67q-49 0 -90 15l-35 12q-111 37 -162 37q-85 0 -188 -77v108q98 70 189 70
q61 0 142 -28l29 -10q77 -27 117 -27q89 0 183 75z" />
    <glyph glyph-name="notequal" unicode="&#x2260;" horiz-adv-x="833" 
d="M124 452h275l41 121h83l-41 -121h227v-97h-261l-38 -113h299v-97h-332l-43 -125h-82l42 125h-170v97h203l39 113h-242v97z" />
    <glyph glyph-name="lessequal" unicode="&#x2264;" horiz-adv-x="833" 
d="M704 654v-107l-436 -178l436 -178v-107l-575 237v97zM129 239l575 -237v-107l-575 237v107z" />
    <glyph glyph-name="greaterequal" unicode="&#x2265;" horiz-adv-x="833" 
d="M129 654l575 -236v-97l-575 -237v107l436 178l-436 178v107zM704 239v-107l-575 -237v107z" />
    <glyph glyph-name="Acute" unicode="&#xf6c9;" horiz-adv-x="500" 
d="M393 941l-153 -181h-69l96 181h126z" />
    <glyph glyph-name="Dieresis" unicode="&#xf6cb;" horiz-adv-x="500" 
d="M97 850q0 28 20.5 46t43.5 18q27 0 45 -19t18 -45q0 -28 -18 -46t-45 -18t-45.5 18.5t-18.5 45.5zM275 850q0 28 20.5 46t43.5 18q24 0 44 -17.5t20 -46.5t-18.5 -46.5t-45.5 -17.5t-45.5 18.5t-18.5 45.5z" />
    <glyph glyph-name="cyrBreve" unicode="&#xf6d1;" horiz-adv-x="434" 
d="M281 904l135 -13q-3 -59 -47 -101t-152 -42t-152 42t-47 101l135 13q2 -26 19 -43t45 -17t45 17t19 43z" />
    <glyph glyph-name="cyrbreve" unicode="&#xf6d4;" horiz-adv-x="432" 
d="M280 707l135 -11q-13 -138 -199 -138t-199 138l135 11q2 -26 19 -43t45 -17t45 17t19 43z" />
    <glyph glyph-name="nbspace" horiz-adv-x="233" 
 />
    </font>
</defs>
</svg>
