<?xml version="1.0" encoding="utf-8"?>
<!-- Generator: Adobe Illustrator 15.1.0, SVG Export Plug-In . SVG Version: 6.00 Build 0)  -->
<!DOCTYPE svg PUBLIC "-//W3C//DTD SVG 1.1//EN" "http://www.w3.org/Graphics/SVG/1.1/DTD/svg11.dtd">
<svg version="1.1" id="Layer_1" xmlns="http://www.w3.org/2000/svg" xmlns:xlink="http://www.w3.org/1999/xlink" x="0px" y="0px"
	 width="31px" height="31px" viewBox="0 0 31 31" enable-background="new 0 0 31 31" xml:space="preserve">
<g>
	<polygon fill="#ED1C24" points="24.229,20.876 30.629,5.688 11.484,5.688 11.484,7.688 27.615,7.688 22.9,18.876 9.414,18.876 
		6.031,1.044 0.371,1.044 0.371,3.044 4.375,3.044 7.758,20.876 	"/>
	<path fill="#ED1C24" d="M9.424,22.333c-2.102,0-3.813,1.71-3.813,3.812c0,2.103,1.711,3.812,3.813,3.812s3.811-1.709,3.811-3.812
		C13.234,24.043,11.525,22.333,9.424,22.333z M9.424,27.956c-0.998,0-1.813-0.813-1.813-1.812s0.814-1.812,1.813-1.812
		s1.811,0.813,1.811,1.812S10.422,27.956,9.424,27.956z"/>
	<path fill="#ED1C24" d="M23.74,22.333c-2.104,0-3.813,1.71-3.813,3.812c0,2.103,1.709,3.812,3.813,3.812
		c2.102,0,3.811-1.709,3.811-3.812C27.551,24.043,25.842,22.333,23.74,22.333z M23.74,27.956c-1,0-1.813-0.813-1.813-1.812
		s0.813-1.812,1.813-1.812c0.998,0,1.811,0.813,1.811,1.812S24.738,27.956,23.74,27.956z"/>
</g>
</svg>
