<?xml version="1.0" encoding="utf-8"?>
<!-- Generator: Adobe Illustrator 15.1.0, SVG Export Plug-In . SVG Version: 6.00 Build 0)  -->
<!DOCTYPE svg PUBLIC "-//W3C//DTD SVG 1.1//EN" "http://www.w3.org/Graphics/SVG/1.1/DTD/svg11.dtd">
<svg version="1.1" id="Layer_1" xmlns="http://www.w3.org/2000/svg" xmlns:xlink="http://www.w3.org/1999/xlink" x="0px" y="0px"
	 width="31px" height="31px" viewBox="0 0 31 31" enable-background="new 0 0 31 31" xml:space="preserve">
<g>
	<path fill="#ED1C24" d="M15.5,0.5c-8.271,0-15,6.729-15,15c0,8.271,6.729,15,15,15s15-6.729,15-15C30.5,7.229,23.771,0.5,15.5,0.5z
		 M15.5,28.5c-7.168,0-13-5.831-13-13c0-7.168,5.832-13,13-13s13,5.832,13,13C28.5,22.669,22.668,28.5,15.5,28.5z"/>
	<polygon fill-rule="evenodd" clip-rule="evenodd" fill="#ED1C24" points="21.784,15.673 16.5,20.958 16.5,6.435 14.5,6.435 
		14.5,20.956 9.217,15.673 7.803,17.087 15.501,24.786 23.198,17.087 	"/>
</g>
</svg>
