<?xml version="1.0" encoding="utf-8"?>
<!-- Generator: Adobe Illustrator 15.1.0, SVG Export Plug-In . SVG Version: 6.00 Build 0)  -->
<!DOCTYPE svg PUBLIC "-//W3C//DTD SVG 1.1//EN" "http://www.w3.org/Graphics/SVG/1.1/DTD/svg11.dtd">
<svg version="1.1" id="Layer_1" xmlns="http://www.w3.org/2000/svg" xmlns:xlink="http://www.w3.org/1999/xlink" x="0px" y="0px"
	 width="47px" height="31px" viewBox="0 0 47 31" enable-background="new 0 0 47 31" xml:space="preserve">
<g>
	<path fill="#636363" d="M19.659,16.854l-2.458-5.162h-3.068v7.201l-3.183-7.201H8.149l-3.366,7.617h2.048l0.723-1.705h3.914
		l0.725,1.707h3.821v-5.973l2.723,5.973h1.662l2.707-5.973l0.016,5.973h1.858v-7.619h-3.053L19.659,16.854z M8.221,16.023
		l1.29-3.043l1.288,3.043H8.221z"/>
	<path fill="#636363" d="M38.924,11.691l-2.385,2.496l-2.311-2.496h-7.551v7.615h7.436l2.396-2.525l2.309,2.525h2.416l-3.51-3.787
		l3.51-3.828H38.924z M33.164,17.729h-4.621v-1.518h4.119v-1.553h-4.119v-1.391v-0.002h4.711l2.057,2.227L33.164,17.729z"/>
	<path fill="#636363" d="M44.5,0h-42C1.122,0,0,1.121,0,2.5v26C0,29.879,1.122,31,2.5,31h42c1.379,0,2.5-1.121,2.5-2.5v-26
		C47,1.121,45.879,0,44.5,0z M44.762,20.818l-6.756-0.018l-1.496-1.648l-1.6,1.648H21.757v-1.316l-0.563,1.316h-3.271L17.36,19.51
		v1.291h-6.324l-0.713-1.691H8.696l-0.713,1.691H2.239l4.799-10.619h4.902l0.638,1.248v-1.248h5.732l1.258,2.742l1.229-2.742h14.307
		l1.451,1.619l1.557-1.619h6.65l-4.814,5.34L44.762,20.818z"/>
</g>
</svg>
