<?xml version="1.0" encoding="utf-8"?>
<!-- Generator: Adobe Illustrator 15.1.0, SVG Export Plug-In . SVG Version: 6.00 Build 0)  -->
<!DOCTYPE svg PUBLIC "-//W3C//DTD SVG 1.1//EN" "http://www.w3.org/Graphics/SVG/1.1/DTD/svg11.dtd">
<svg version="1.1" id="Layer_1" xmlns="http://www.w3.org/2000/svg" xmlns:xlink="http://www.w3.org/1999/xlink" x="0px" y="0px"
	 width="47px" height="31px" viewBox="0 0 47 31" enable-background="new 0 0 47 31" xml:space="preserve">
<g>
	<path fill="#636363" d="M30.586,12.336c-0.268-0.357-0.803-0.357-1.336-0.357h-0.18c-0.178,0-0.266,0.09-0.266,0.18l-0.357,2.049
		h0.535c0.801,0,1.604,0,1.781-1.068C30.764,12.691,30.764,12.424,30.586,12.336z"/>
	<path fill="#636363" d="M14.364,14.475c-0.802,0-1.515,0.625-1.604,1.426c0,0.445,0.09,0.803,0.268,1.07
		c0.178,0.178,0.535,0.357,0.98,0.357c0.892,0,1.516-0.625,1.693-1.428c0-0.355-0.09-0.801-0.356-1.07
		C15.078,14.654,14.809,14.475,14.364,14.475z"/>
	<path fill="#636363" d="M36.113,14.475c-0.803,0-1.516,0.625-1.605,1.426c0,0.445,0.09,0.803,0.268,1.07
		c0.178,0.178,0.535,0.357,0.98,0.357c0.891,0,1.516-0.625,1.693-1.428c0.09-0.355,0-0.801-0.355-1.07
		C36.826,14.654,36.559,14.475,36.113,14.475z"/>
	<path fill="#636363" d="M44.5,0h-42C1.122,0,0,1.121,0,2.5v26C0,29.879,1.122,31,2.5,31h42c1.379,0,2.5-1.121,2.5-2.5v-26
		C47,1.121,45.879,0,44.5,0z M7.768,15.813h-0.98c-0.268,0-0.446,0.178-0.446,0.355l-0.356,2.141
		c-0.089,0.178-0.268,0.355-0.445,0.355H4.114c-0.179,0-0.268-0.09-0.268-0.268l1.247-7.844c0.09-0.178,0.269-0.355,0.446-0.355
		h3.03c1.07,0,1.783,0.266,2.317,0.711c0.357,0.447,0.535,1.16,0.357,1.963C10.977,14.83,9.818,15.813,7.768,15.813z M17.306,18.309
		c-0.091,0.178-0.269,0.355-0.446,0.355h-1.337c-0.179,0-0.268-0.09-0.268-0.268l0.089-0.445c0,0-0.713,0.803-2.05,0.803
		c-0.803,0-1.427-0.18-1.872-0.713c-0.445-0.537-0.714-1.338-0.535-2.229c0.268-1.693,1.694-2.941,3.299-2.941
		c0.713,0,1.337,0.178,1.692,0.623l0.09,0.178l0.089-0.445c0-0.088,0.179-0.178,0.268-0.178h1.427c0.089,0,0.267,0.178,0.355,0.268
		L17.306,18.309z M20.693,20.625c-0.09,0.09-0.179,0.178-0.357,0.178H18.91c-0.179,0-0.268-0.268-0.179-0.445l1.516-2.139
		l-1.604-4.725c0-0.178,0.089-0.355,0.268-0.355h1.426c0.268,0,0.357,0.088,0.446,0.268l0.892,2.852l1.96-3.031
		c0.09-0.088,0.179-0.178,0.356-0.178h1.516c0.178,0,0.355,0.268,0.088,0.535L20.693,20.625z M29.605,15.813h-0.98
		c-0.268,0-0.445,0.178-0.445,0.355l-0.357,2.229c0,0.178-0.088,0.268-0.268,0.268h-1.604c-0.178,0-0.268-0.09-0.268-0.268
		l1.248-7.844c0.09-0.178,0.268-0.355,0.445-0.355h3.031c0.98,0,1.783,0.266,2.316,0.711c0.357,0.447,0.535,1.16,0.357,1.963
		C32.814,14.83,31.656,15.813,29.605,15.813z M39.055,18.309c-0.09,0.178-0.268,0.355-0.445,0.355h-1.338
		c-0.178,0-0.268-0.09-0.268-0.268l0.09-0.445c0,0-0.713,0.803-2.051,0.803c-0.803,0-1.426-0.18-1.871-0.713
		c-0.447-0.537-0.715-1.338-0.535-2.229c0.268-1.693,1.693-2.941,3.299-2.941c0.711,0,1.336,0.178,1.693,0.623l0.088,0.178
		l0.09-0.445c0-0.088,0.178-0.178,0.268-0.178H39.5c0.178,0,0.268,0.178,0.355,0.268L39.055,18.309z M41.906,18.396
		c-0.09,0.178-0.268,0.357-0.445,0.357h-1.248c-0.18,0-0.268-0.09-0.268-0.268l1.248-8.023c0.09-0.178,0.178-0.266,0.268-0.178
		h1.426c0.178,0,0.268,0.09,0.268,0.268L41.906,18.396z"/>
	<path fill="#636363" d="M7.5,11.979H7.322c-0.178,0-0.267,0.09-0.267,0.18l-0.356,2.049h0.445c0.802,0,1.604,0,1.782-1.068
		c0.09-0.447,0-0.715-0.089-0.803C8.57,11.979,8.036,11.979,7.5,11.979z"/>
</g>
</svg>
