<?xml version="1.0" encoding="utf-8"?>
<!-- Generator: Adobe Illustrator 15.1.0, SVG Export Plug-In . SVG Version: 6.00 Build 0)  -->
<!DOCTYPE svg PUBLIC "-//W3C//DTD SVG 1.1//EN" "http://www.w3.org/Graphics/SVG/1.1/DTD/svg11.dtd">
<svg version="1.1" id="Layer_1" xmlns="http://www.w3.org/2000/svg" xmlns:xlink="http://www.w3.org/1999/xlink" x="0px" y="0px"
	 width="47px" height="31px" viewBox="0 0 47 31" enable-background="new 0 0 47 31" xml:space="preserve">
<g>
	<path fill="#636363" d="M31.551,25.369c-0.066-0.071-0.145-0.128-0.237-0.168c-0.092-0.042-0.195-0.062-0.308-0.062
		c-0.118,0-0.226,0.021-0.317,0.063c-0.094,0.043-0.173,0.1-0.236,0.172c-0.064,0.072-0.115,0.158-0.148,0.255
		c-0.036,0.098-0.053,0.201-0.053,0.311c0,0.11,0.017,0.213,0.053,0.311c0.033,0.098,0.084,0.183,0.148,0.255
		c0.063,0.072,0.143,0.13,0.236,0.172c0.092,0.043,0.199,0.063,0.317,0.063c0.112,0,0.216-0.02,0.308-0.061
		c0.093-0.042,0.171-0.097,0.237-0.168c0.065-0.071,0.118-0.156,0.153-0.254c0.038-0.098,0.055-0.204,0.055-0.318
		c0-0.115-0.017-0.221-0.055-0.318C31.669,25.524,31.616,25.44,31.551,25.369z"/>
	<path fill="#636363" d="M16.143,25.369c-0.065-0.071-0.145-0.128-0.236-0.168c-0.093-0.042-0.195-0.062-0.309-0.062
		c-0.118,0-0.224,0.021-0.317,0.063c-0.093,0.043-0.172,0.1-0.235,0.172c-0.064,0.072-0.114,0.158-0.149,0.255
		c-0.034,0.098-0.052,0.201-0.052,0.311c0,0.11,0.018,0.213,0.052,0.311c0.035,0.098,0.085,0.183,0.149,0.255
		c0.063,0.072,0.143,0.13,0.235,0.172c0.094,0.043,0.199,0.063,0.317,0.063c0.113,0,0.216-0.02,0.309-0.061
		c0.092-0.042,0.171-0.097,0.236-0.168c0.067-0.071,0.118-0.156,0.155-0.254c0.036-0.098,0.055-0.204,0.055-0.318
		c0-0.115-0.019-0.221-0.055-0.318C16.261,25.524,16.21,25.44,16.143,25.369z"/>
	<path fill="#636363" d="M36.591,25.369c-0.066-0.071-0.145-0.128-0.237-0.168c-0.092-0.042-0.195-0.062-0.308-0.062
		c-0.12,0-0.226,0.021-0.317,0.063c-0.094,0.043-0.173,0.1-0.236,0.172c-0.066,0.072-0.115,0.158-0.148,0.255
		c-0.036,0.098-0.053,0.201-0.053,0.311c0,0.11,0.017,0.213,0.053,0.311c0.033,0.098,0.082,0.183,0.148,0.255
		c0.063,0.072,0.143,0.13,0.236,0.172c0.092,0.043,0.197,0.063,0.317,0.063c0.112,0,0.216-0.02,0.308-0.061
		c0.093-0.042,0.171-0.097,0.237-0.168c0.065-0.071,0.118-0.156,0.153-0.254c0.036-0.098,0.055-0.204,0.055-0.318
		c0-0.115-0.019-0.221-0.055-0.318C36.709,25.524,36.656,25.44,36.591,25.369z"/>
	<path fill="#636363" d="M23.616,25.11c-0.098,0-0.185,0.016-0.26,0.044c-0.076,0.03-0.141,0.072-0.196,0.127
		c-0.055,0.056-0.1,0.12-0.134,0.196c-0.035,0.075-0.06,0.159-0.073,0.249h1.297c-0.029-0.194-0.099-0.347-0.208-0.453
		C23.932,25.164,23.79,25.11,23.616,25.11z"/>
	<path fill="#636363" d="M29.419,5.683c-1.736,0-3.331,0.606-4.593,1.615c1.252,1.587,2.009,3.589,2.009,5.77
		c0,2.177-0.753,4.176-2.001,5.759c1.262,1.006,2.854,1.613,4.585,1.613c4.073,0,7.382-3.312,7.382-7.38
		C36.801,8.99,33.492,5.683,29.419,5.683z"/>
	<path fill="#636363" d="M44.5,0h-42C1.122,0,0,1.121,0,2.5v26C0,29.879,1.122,31,2.5,31h42c1.378,0,2.5-1.121,2.5-2.5v-26
		C47,1.121,45.878,0,44.5,0z M13.796,27.19h-0.53V25.8c0-0.21-0.049-0.373-0.147-0.485c-0.099-0.113-0.237-0.17-0.416-0.17
		c-0.086,0-0.166,0.014-0.242,0.043c-0.076,0.028-0.142,0.07-0.198,0.127c-0.057,0.056-0.102,0.125-0.136,0.207
		c-0.033,0.083-0.05,0.177-0.05,0.284v1.385h-0.531V25.8c0-0.21-0.049-0.373-0.147-0.485c-0.099-0.113-0.236-0.17-0.416-0.17
		c-0.085,0-0.166,0.014-0.242,0.043c-0.076,0.028-0.142,0.07-0.198,0.127c-0.056,0.056-0.101,0.125-0.135,0.207
		c-0.034,0.083-0.051,0.177-0.051,0.284v1.385h-0.53v-2.499h0.525v0.305c0.049-0.073,0.104-0.135,0.163-0.182
		c0.06-0.048,0.123-0.086,0.188-0.113c0.065-0.028,0.131-0.048,0.198-0.059c0.066-0.012,0.131-0.018,0.192-0.018
		c0.186,0,0.351,0.039,0.494,0.119c0.145,0.079,0.258,0.188,0.342,0.327c0.053-0.089,0.114-0.161,0.185-0.221
		c0.071-0.059,0.146-0.104,0.225-0.136c0.078-0.033,0.158-0.058,0.239-0.07c0.082-0.013,0.16-0.02,0.236-0.02
		c0.143,0,0.275,0.024,0.396,0.073s0.224,0.116,0.312,0.205c0.088,0.088,0.155,0.192,0.203,0.314
		c0.049,0.122,0.072,0.255,0.072,0.401V27.19z M16.864,27.19h-0.546v-0.3c-0.087,0.111-0.195,0.2-0.323,0.266
		c-0.13,0.066-0.283,0.1-0.463,0.1c-0.176,0-0.339-0.031-0.49-0.098c-0.151-0.065-0.283-0.156-0.396-0.272
		c-0.113-0.117-0.202-0.256-0.267-0.417c-0.063-0.161-0.097-0.337-0.097-0.528s0.033-0.367,0.097-0.528
		c0.064-0.162,0.153-0.3,0.267-0.416c0.113-0.117,0.245-0.207,0.396-0.273c0.151-0.065,0.314-0.098,0.49-0.098
		c0.18,0,0.333,0.033,0.463,0.101c0.128,0.066,0.236,0.156,0.323,0.268v-0.302h0.546V27.19z M19.523,26.767
		c-0.051,0.1-0.125,0.187-0.221,0.259c-0.098,0.072-0.216,0.128-0.358,0.168c-0.142,0.04-0.303,0.06-0.481,0.06
		c-0.064,0-0.14-0.004-0.225-0.012s-0.176-0.022-0.271-0.046c-0.097-0.023-0.194-0.057-0.293-0.099
		c-0.1-0.042-0.194-0.097-0.284-0.165l0.253-0.409c0.045,0.035,0.094,0.067,0.147,0.098c0.053,0.031,0.112,0.058,0.18,0.082
		c0.067,0.022,0.142,0.041,0.223,0.056c0.08,0.014,0.172,0.021,0.274,0.021c0.188,0,0.33-0.027,0.426-0.082
		c0.096-0.056,0.144-0.13,0.144-0.224c0-0.071-0.035-0.13-0.104-0.176c-0.069-0.047-0.18-0.079-0.329-0.1l-0.261-0.035
		c-0.278-0.038-0.489-0.119-0.633-0.243c-0.144-0.125-0.216-0.288-0.216-0.49c0-0.123,0.024-0.234,0.072-0.334
		s0.116-0.183,0.206-0.252c0.09-0.068,0.198-0.122,0.325-0.158c0.127-0.039,0.271-0.057,0.431-0.057
		c0.196,0,0.382,0.023,0.556,0.069s0.326,0.111,0.457,0.193l-0.234,0.427c-0.039-0.022-0.086-0.047-0.142-0.072
		s-0.117-0.048-0.186-0.069c-0.067-0.021-0.14-0.038-0.216-0.052c-0.075-0.015-0.152-0.021-0.23-0.021
		c-0.149,0-0.266,0.026-0.348,0.081c-0.084,0.055-0.125,0.127-0.125,0.216c0,0.043,0.011,0.08,0.033,0.109
		c0.021,0.03,0.051,0.055,0.087,0.073c0.037,0.02,0.08,0.034,0.131,0.046c0.05,0.012,0.104,0.021,0.162,0.03l0.258,0.038
		c0.273,0.041,0.486,0.12,0.64,0.239s0.229,0.286,0.229,0.5C19.601,26.557,19.575,26.666,19.523,26.767z M21.83,27.183
		c-0.126,0.049-0.269,0.073-0.427,0.073c-0.283,0-0.504-0.079-0.661-0.235c-0.157-0.158-0.236-0.403-0.236-0.735v-1.099h-0.499
		v-0.495h0.499v-0.758h0.548v0.758h0.876v0.495h-0.876v1.088c0,0.084,0.011,0.155,0.031,0.215c0.021,0.059,0.049,0.106,0.085,0.145
		c0.036,0.037,0.077,0.064,0.125,0.081c0.048,0.019,0.1,0.026,0.155,0.026c0.086,0,0.172-0.017,0.26-0.049
		c0.059-0.022,0.114-0.048,0.167-0.076l0.187,0.458C21.991,27.113,21.913,27.15,21.83,27.183z M24.806,26.042
		c-0.002,0.035-0.004,0.068-0.008,0.1H22.95c0.018,0.113,0.05,0.209,0.097,0.29c0.047,0.08,0.104,0.146,0.17,0.196
		c0.066,0.052,0.14,0.089,0.222,0.113s0.167,0.037,0.256,0.037c0.126,0,0.251-0.022,0.377-0.068s0.241-0.112,0.346-0.194
		l0.272,0.389c-0.154,0.13-0.315,0.221-0.487,0.272c-0.172,0.053-0.353,0.079-0.542,0.079c-0.188,0-0.36-0.031-0.517-0.094
		s-0.292-0.151-0.404-0.267c-0.113-0.114-0.201-0.253-0.264-0.415c-0.063-0.161-0.094-0.342-0.094-0.54
		c0-0.195,0.03-0.372,0.091-0.535c0.061-0.162,0.146-0.3,0.256-0.416c0.109-0.116,0.24-0.205,0.393-0.269
		c0.153-0.063,0.321-0.096,0.506-0.096c0.174,0,0.334,0.032,0.479,0.096s0.27,0.152,0.374,0.269
		c0.103,0.116,0.184,0.254,0.242,0.415c0.058,0.161,0.088,0.338,0.088,0.533C24.81,25.973,24.808,26.007,24.806,26.042z
		 M26.833,25.198c-0.033-0.013-0.071-0.022-0.108-0.03c-0.077-0.016-0.148-0.023-0.216-0.023c-0.087,0-0.165,0.015-0.238,0.044
		c-0.073,0.03-0.138,0.073-0.188,0.132c-0.053,0.057-0.094,0.127-0.124,0.21c-0.029,0.085-0.043,0.179-0.043,0.285v1.375h-0.501
		v-2.499h0.495v0.327c0.083-0.12,0.188-0.255,0.311-0.31c0.124-0.056,0.263-0.084,0.415-0.084c0.084,0,0.159,0.006,0.227,0.018
		c0.045,0.007,0.089,0.02,0.134,0.033L26.833,25.198z M27.776,26.266c0.039,0.099,0.094,0.183,0.163,0.253
		c0.069,0.071,0.154,0.125,0.248,0.165c0.096,0.039,0.199,0.058,0.312,0.058c0.122,0,0.236-0.019,0.342-0.058
		c0.102-0.039,0.189-0.092,0.265-0.158l0.263,0.437c-0.1,0.079-0.21,0.144-0.334,0.193c-0.163,0.067-0.342,0.101-0.535,0.101
		s-0.372-0.033-0.537-0.101c-0.163-0.066-0.306-0.158-0.425-0.276c-0.12-0.117-0.214-0.257-0.281-0.416
		c-0.067-0.161-0.102-0.334-0.102-0.522c0-0.188,0.034-0.361,0.102-0.521s0.161-0.299,0.281-0.416
		c0.119-0.118,0.262-0.211,0.425-0.277c0.165-0.067,0.344-0.101,0.537-0.101s0.372,0.033,0.535,0.101
		c0.124,0.05,0.234,0.114,0.334,0.193l-0.263,0.437c-0.075-0.066-0.163-0.12-0.265-0.157c-0.105-0.04-0.22-0.059-0.342-0.059
		c-0.112,0-0.216,0.019-0.312,0.059c-0.094,0.039-0.179,0.094-0.248,0.164s-0.124,0.155-0.163,0.253
		c-0.04,0.1-0.061,0.207-0.061,0.325S27.736,26.167,27.776,26.266z M32.271,27.19h-0.547v-0.3c-0.086,0.111-0.195,0.2-0.322,0.266
		c-0.13,0.066-0.284,0.1-0.462,0.1c-0.177,0-0.34-0.031-0.492-0.098c-0.15-0.065-0.283-0.156-0.396-0.272
		c-0.112-0.117-0.201-0.256-0.265-0.417c-0.065-0.161-0.098-0.337-0.098-0.528s0.032-0.367,0.098-0.528
		c0.063-0.162,0.152-0.3,0.265-0.416c0.113-0.117,0.246-0.207,0.396-0.273c0.152-0.065,0.315-0.098,0.492-0.098
		c0.178,0,0.332,0.033,0.462,0.101c0.127,0.066,0.236,0.156,0.322,0.268v-0.302h0.547V27.19z M34.416,25.198
		c-0.034-0.013-0.071-0.022-0.11-0.03c-0.075-0.016-0.146-0.023-0.213-0.023c-0.088,0-0.167,0.015-0.24,0.044
		c-0.073,0.03-0.135,0.073-0.188,0.132c-0.053,0.057-0.094,0.127-0.124,0.21c-0.028,0.085-0.043,0.179-0.043,0.285v1.375h-0.502
		v-2.499h0.496v0.327c0.083-0.12,0.186-0.255,0.31-0.31c0.124-0.056,0.263-0.084,0.415-0.084c0.085,0,0.16,0.006,0.228,0.018
		c0.045,0.007,0.088,0.02,0.133,0.033L34.416,25.198z M37.312,27.19h-0.547v-0.3c-0.086,0.111-0.194,0.2-0.322,0.266
		c-0.13,0.066-0.284,0.1-0.462,0.1c-0.177,0-0.34-0.031-0.492-0.098c-0.15-0.065-0.283-0.156-0.396-0.272
		c-0.112-0.117-0.201-0.256-0.265-0.417c-0.065-0.161-0.098-0.337-0.098-0.528s0.032-0.367,0.098-0.528
		c0.063-0.162,0.152-0.3,0.265-0.416c0.113-0.117,0.246-0.207,0.396-0.273c0.152-0.065,0.315-0.098,0.492-0.098
		c0.178,0,0.332,0.033,0.462,0.101c0.128,0.066,0.236,0.156,0.322,0.268v-1.319h0.547V27.19z M29.417,22.455
		c-2.279,0-4.369-0.82-5.998-2.177c-1.607,1.321-3.666,2.114-5.909,2.114c-5.152,0-9.324-4.172-9.325-9.325
		c0-5.149,4.172-9.325,9.325-9.325c2.235,0,4.294,0.791,5.898,2.106c1.628-1.363,3.726-2.184,6.009-2.184
		c5.181,0,9.398,4.216,9.398,9.395C38.815,18.24,34.598,22.455,29.417,22.455z"/>
</g>
</svg>
