<?xml version="1.0" encoding="utf-8"?>
<!-- Generator: Adobe Illustrator 15.1.0, SVG Export Plug-In . SVG Version: 6.00 Build 0)  -->
<!DOCTYPE svg PUBLIC "-//W3C//DTD SVG 1.1//EN" "http://www.w3.org/Graphics/SVG/1.1/DTD/svg11.dtd">
<svg version="1.1" id="Layer_1" xmlns="http://www.w3.org/2000/svg" xmlns:xlink="http://www.w3.org/1999/xlink" x="0px" y="0px"
	 width="47px" height="31px" viewBox="0 0 47 31" enable-background="new 0 0 47 31" xml:space="preserve">
<g>
	<polygon fill="#636363" points="36.063,17.221 38.576,17.221 37.658,12.824 	"/>
	<path fill="#636363" d="M44.5,0h-42C1.122,0,0,1.121,0,2.5v26C0,29.879,1.122,31,2.5,31h42c1.379,0,2.5-1.121,2.5-2.5v-26
		C47,1.121,45.879,0,44.5,0z M10.878,21.371l-2.415-9.346c-0.147-0.576-0.274-0.787-0.72-1.029C7.015,10.6,5.813,10.23,4.755,10
		l0.071-0.34h5.155c0.656,0,1.248,0.438,1.396,1.193l1.275,6.777l3.153-7.971h3.182l-4.908,11.711H10.878z M17.783,21.371
		L20.289,9.66h3.029l-2.506,11.711H17.783z M26.262,21.553c-1.354-0.014-2.661-0.297-3.368-0.621l0.548-2.566
		c0.705,0.328,1.589,0.764,3.111,0.74c0.873-0.014,1.805-0.361,1.814-1.146c0.004-0.514-0.393-0.881-1.572-1.455
		c-1.148-0.561-2.672-1.502-2.652-3.188c0.018-2.277,2.125-3.869,5.119-3.869c1.166,0,2.105,0.254,2.834,0.518l-0.531,2.482
		c-1.357-0.623-2.555-0.58-2.986-0.523c-0.877,0.115-1.277,0.563-1.285,0.98c-0.031,1.381,4.256,1.553,4.242,4.643
		C31.527,19.982,29.445,21.553,26.262,21.553z M39.443,21.371l-0.365-1.75h-3.887l-0.633,1.75h-3.18l4.545-10.852
		c0.219-0.521,0.709-0.859,1.291-0.859h2.584l2.447,11.711H39.443z"/>
</g>
</svg>
