<?xml version="1.0" encoding="utf-8"?>
<!-- Generator: Adobe Illustrator 15.1.0, SVG Export Plug-In . SVG Version: 6.00 Build 0)  -->
<!DOCTYPE svg PUBLIC "-//W3C//DTD SVG 1.1//EN" "http://www.w3.org/Graphics/SVG/1.1/DTD/svg11.dtd">
<svg version="1.1" id="Layer_1" xmlns="http://www.w3.org/2000/svg" xmlns:xlink="http://www.w3.org/1999/xlink" x="0px" y="0px"
	 width="35px" height="35px" viewBox="0 0 35 35" enable-background="new 0 0 35 35" xml:space="preserve">
<circle fill="#DC4A33" cx="17.5" cy="17.5" r="17.5"/>
<g>
	<g>
		<polygon fill="#FFFFFF" points="27.536,14.416 27.536,16.453 29.572,16.453 29.572,18.49 27.536,18.49 27.536,20.528 
			25.498,20.528 25.498,18.49 23.461,18.49 23.461,16.453 25.498,16.453 25.498,14.416 		"/>
		<path fill="#FFFFFF" d="M9.2,22.565c-2.716-2.717-2.716-7.471,0.113-10.187c2.039-2.037,4.979-2.49,7.584-1.472l1.019,0.566
			l1.132,0.792l-1.812,1.812l-0.679-0.454c-1.585-1.018-3.849-0.792-5.319,0.681c-1.697,1.696-1.812,4.752,0,6.563
			c1.697,1.813,4.754,1.813,6.337,0c0.454-0.451,0.906-1.131,1.021-1.811V18.83h-4.075v-2.264h6.45l0.113,0.566v1.584
			c-0.113,1.472-0.68,2.942-1.697,3.962C16.671,25.281,11.918,25.281,9.2,22.565z"/>
	</g>
</g>
</svg>
