<?xml version="1.0" encoding="utf-8"?>
<!-- Generator: Adobe Illustrator 15.1.0, SVG Export Plug-In . SVG Version: 6.00 Build 0)  -->
<!DOCTYPE svg PUBLIC "-//W3C//DTD SVG 1.1//EN" "http://www.w3.org/Graphics/SVG/1.1/DTD/svg11.dtd">
<svg version="1.1" id="Layer_1" xmlns="http://www.w3.org/2000/svg" xmlns:xlink="http://www.w3.org/1999/xlink" x="0px" y="0px"
	 width="35px" height="35px" viewBox="0 0 35 35" enable-background="new 0 0 35 35" xml:space="preserve">
<circle fill="#24B5E5" cx="17.5" cy="17.5" r="17.5"/>
<path fill-rule="evenodd" clip-rule="evenodd" fill="#FFFFFF" d="M24.722,13.793c0.009,0.162,0.013,0.323,0.013,0.48
	c0,4.931-3.748,10.612-10.608,10.612c-2.106,0-4.064-0.62-5.713-1.676c0.289,0.032,0.586,0.05,0.886,0.05
	c1.75,0,3.356-0.595,4.63-1.595c-1.628-0.031-3.007-1.105-3.48-2.592c0.23,0.047,0.462,0.069,0.7,0.069
	c0.34,0,0.67-0.045,0.982-0.131c-1.702-0.341-2.994-1.849-2.994-3.655c0-0.017,0-0.03,0.007-0.049
	c0.501,0.281,1.072,0.45,1.686,0.469c-1.001-0.669-1.659-1.812-1.659-3.104c0-0.68,0.186-1.321,0.507-1.873
	c1.838,2.255,4.584,3.739,7.683,3.895c-0.063-0.271-0.095-0.557-0.095-0.849c0-2.061,1.668-3.73,3.728-3.73
	c1.071,0,2.042,0.455,2.723,1.177c0.851-0.165,1.649-0.476,2.367-0.905c-0.277,0.871-0.872,1.606-1.641,2.064
	c0.757-0.09,1.474-0.29,2.146-0.585C26.085,12.61,25.451,13.268,24.722,13.793z"/>
</svg>
