<?xml version="1.0" encoding="utf-8"?>
<!-- Generator: Adobe Illustrator 15.1.0, SVG Export Plug-In . SVG Version: 6.00 Build 0)  -->
<!DOCTYPE svg PUBLIC "-//W3C//DTD SVG 1.1//EN" "http://www.w3.org/Graphics/SVG/1.1/DTD/svg11.dtd">
<svg version="1.1" id="Layer_1" xmlns="http://www.w3.org/2000/svg" xmlns:xlink="http://www.w3.org/1999/xlink" x="0px" y="0px"
	 width="31px" height="31px" viewBox="0 0 31 31" enable-background="new 0 0 31 31" xml:space="preserve">
<path fill="#ED1C24" d="M15.5,0.5c-8.271,0-15,6.729-15,15c0,8.271,6.729,15,15,15s15-6.729,15-15C30.5,7.229,23.771,0.5,15.5,0.5z
	 M7.26,25.546V24.71c0-2.617,2.285-4.752,5.705-5.4c0.765,0.381,1.624,0.6,2.535,0.6s1.771-0.219,2.535-0.6
	c3.42,0.648,5.705,2.783,5.705,5.4v0.836c-2.245,1.845-5.115,2.954-8.24,2.954S9.505,27.391,7.26,25.546z M19.213,14.198
	c0,2.047-1.666,3.711-3.713,3.711s-3.713-1.664-3.713-3.711v-1.677c0-2.047,1.666-3.713,3.713-3.713s3.713,1.666,3.713,3.713V14.198
	z M25.64,23.614c-0.455-2.673-2.566-4.847-5.666-5.875c0.773-0.975,1.239-2.204,1.239-3.541v-1.677c0-3.15-2.563-5.713-5.713-5.713
	s-5.713,2.563-5.713,5.713v1.677c0,1.337,0.466,2.566,1.239,3.541c-3.1,1.028-5.211,3.202-5.666,5.875
	C3.575,21.388,2.5,18.569,2.5,15.5c0-7.168,5.832-13,13-13s13,5.832,13,13C28.5,18.569,27.425,21.388,25.64,23.614z"/>
</svg>
