<?xml version="1.0" encoding="utf-8"?>
<!-- Generator: Adobe Illustrator 15.1.0, SVG Export Plug-In . SVG Version: 6.00 Build 0)  -->
<!DOCTYPE svg PUBLIC "-//W3C//DTD SVG 1.1//EN" "http://www.w3.org/Graphics/SVG/1.1/DTD/svg11.dtd">
<svg version="1.1" id="Layer_1" xmlns="http://www.w3.org/2000/svg" xmlns:xlink="http://www.w3.org/1999/xlink" x="0px" y="0px"
	 width="51px" height="33px" viewBox="0 0 51 33" enable-background="new 0 0 51 33" xml:space="preserve">
<g>
	<g>
		<path fill-rule="evenodd" clip-rule="evenodd" fill="#FFFFFF" d="M50.5,30.5c0,1.104-0.896,2-2,2h-46c-1.104,0-2-0.896-2-2v-28
			c0-1.104,0.896-2,2-2h46c1.104,0,2,0.896,2,2V30.5z"/>
		<path fill="#E6E6E6" d="M48.5,33h-46C1.122,33,0,31.879,0,30.5v-28C0,1.121,1.122,0,2.5,0h46C49.879,0,51,1.121,51,2.5v28
			C51,31.879,49.879,33,48.5,33z M2.5,1C1.673,1,1,1.673,1,2.5v28C1,31.327,1.673,32,2.5,32h46c0.826,0,1.5-0.673,1.5-1.5v-28
			C50,1.673,49.326,1,48.5,1H2.5z"/>
	</g>
	<linearGradient id="SVGID_1_" gradientUnits="userSpaceOnUse" x1="6.7549" y1="16.5" x2="44.2441" y2="16.5">
		<stop  offset="0" style="stop-color:#271847"/>
		<stop  offset="1" style="stop-color:#1B4484"/>
	</linearGradient>
	<path fill="url(#SVGID_1_)" d="M20.989,10.66l-4.908,11.711h-3.202l-2.416-9.346c-0.146-0.576-0.273-0.787-0.72-1.028
		C9.015,11.602,7.813,11.23,6.755,11l0.071-0.34h5.155c0.657,0,1.248,0.437,1.397,1.194l1.275,6.776l3.153-7.971H20.989z
		 M33.535,18.547c0.014-3.09-4.273-3.261-4.242-4.642c0.008-0.419,0.408-0.866,1.283-0.981c0.434-0.056,1.631-0.1,2.988,0.524
		l0.531-2.482c-0.729-0.266-1.668-0.52-2.834-0.52c-2.994,0-5.102,1.592-5.119,3.871c-0.02,1.687,1.504,2.625,2.652,3.187
		c1.18,0.574,1.576,0.943,1.57,1.455c-0.008,0.787-0.939,1.133-1.813,1.146c-1.523,0.023-2.406-0.411-3.111-0.74l-0.549,2.566
		c0.707,0.325,2.013,0.607,3.369,0.622C31.445,22.554,33.525,20.982,33.535,18.547 M41.443,22.371h2.801L41.799,10.66h-2.586
		c-0.58,0-1.072,0.338-1.289,0.859l-4.545,10.852h3.18l0.633-1.75h3.885L41.443,22.371z M38.063,18.221l1.596-4.396l0.918,4.396
		H38.063z M25.318,10.66l-2.506,11.711h-3.029l2.506-11.711H25.318z"/>
</g>
</svg>
