<?xml version="1.0" encoding="utf-8"?>
<!-- Generator: Adobe Illustrator 15.1.0, SVG Export Plug-In . SVG Version: 6.00 Build 0)  -->
<!DOCTYPE svg PUBLIC "-//W3C//DTD SVG 1.1//EN" "http://www.w3.org/Graphics/SVG/1.1/DTD/svg11.dtd">
<svg version="1.1" id="Layer_1" xmlns="http://www.w3.org/2000/svg" xmlns:xlink="http://www.w3.org/1999/xlink" x="0px" y="0px"
	 width="51px" height="33px" viewBox="0 0 51 33" enable-background="new 0 0 51 33" xml:space="preserve">
<g>
	<g>
		<path fill-rule="evenodd" clip-rule="evenodd" fill="#FFFFFF" d="M50.5,30.5c0,1.104-0.896,2-2,2h-46c-1.104,0-2-0.896-2-2v-28
			c0-1.104,0.896-2,2-2h46c1.104,0,2,0.896,2,2V30.5z"/>
		<path fill="#E6E6E6" d="M48.5,33h-46C1.122,33,0,31.879,0,30.5v-28C0,1.121,1.122,0,2.5,0h46C49.879,0,51,1.121,51,2.5v28
			C51,31.879,49.879,33,48.5,33z M2.5,1C1.673,1,1,1.673,1,2.5v28C1,31.327,1.673,32,2.5,32h46c0.826,0,1.5-0.673,1.5-1.5v-28
			C50,1.673,49.326,1,48.5,1H2.5z"/>
	</g>
	<g>
		<path fill="#1D1D1B" d="M15.407,26.047c-0.089-0.09-0.193-0.16-0.314-0.207c-0.122-0.049-0.254-0.074-0.398-0.074
			c-0.075,0-0.154,0.006-0.236,0.02c-0.083,0.014-0.163,0.037-0.241,0.07c-0.08,0.031-0.155,0.078-0.226,0.137
			c-0.071,0.061-0.133,0.133-0.186,0.223c-0.085-0.141-0.2-0.25-0.345-0.33c-0.146-0.078-0.311-0.119-0.497-0.119
			c-0.063,0-0.127,0.004-0.194,0.016c-0.067,0.014-0.134,0.033-0.199,0.061c-0.066,0.027-0.129,0.066-0.189,0.115
			c-0.061,0.047-0.115,0.109-0.164,0.182v-0.307h-0.529v2.516h0.534v-1.395c0-0.107,0.017-0.201,0.051-0.285
			s0.079-0.152,0.136-0.209s0.123-0.098,0.2-0.127c0.076-0.029,0.157-0.043,0.243-0.043c0.181,0,0.319,0.057,0.419,0.17
			c0.099,0.113,0.148,0.275,0.148,0.488v1.4h0.534v-1.395c0-0.107,0.016-0.201,0.051-0.285c0.033-0.084,0.079-0.152,0.136-0.209
			s0.123-0.098,0.199-0.127s0.157-0.043,0.244-0.043c0.18,0,0.319,0.057,0.418,0.17c0.1,0.113,0.148,0.275,0.148,0.488v1.4h0.534
			v-1.58c0-0.148-0.024-0.283-0.072-0.406C15.562,26.238,15.494,26.133,15.407,26.047"/>
		<path fill="#1D1D1B" d="M18.221,26.135c-0.087-0.109-0.195-0.201-0.325-0.268c-0.13-0.068-0.285-0.102-0.465-0.102
			c-0.177,0-0.342,0.033-0.494,0.098c-0.152,0.066-0.286,0.158-0.399,0.275c-0.114,0.117-0.203,0.258-0.268,0.42
			c-0.064,0.16-0.098,0.338-0.098,0.529c0,0.193,0.033,0.373,0.098,0.533c0.064,0.162,0.153,0.303,0.268,0.42
			c0.113,0.115,0.247,0.207,0.399,0.273c0.152,0.064,0.317,0.098,0.494,0.098c0.18,0,0.335-0.033,0.465-0.1s0.238-0.156,0.325-0.266
			v0.301h0.549v-2.516h-0.549V26.135z M18.2,27.408c-0.036,0.1-0.088,0.186-0.154,0.256c-0.066,0.072-0.146,0.127-0.239,0.17
			c-0.092,0.041-0.196,0.063-0.31,0.063c-0.119,0-0.226-0.023-0.319-0.064c-0.094-0.045-0.173-0.102-0.237-0.174
			c-0.065-0.072-0.115-0.158-0.15-0.258c-0.035-0.096-0.053-0.201-0.053-0.313c0-0.109,0.018-0.213,0.053-0.311
			c0.035-0.1,0.085-0.184,0.15-0.256c0.064-0.074,0.144-0.131,0.237-0.174s0.2-0.064,0.319-0.064c0.113,0,0.218,0.021,0.31,0.061
			c0.093,0.043,0.173,0.1,0.239,0.17c0.066,0.072,0.118,0.156,0.154,0.256c0.037,0.098,0.056,0.205,0.056,0.318
			C18.255,27.205,18.237,27.313,18.2,27.408"/>
		<path fill="#1D1D1B" d="M21.293,27.084c-0.154-0.119-0.369-0.199-0.644-0.238l-0.26-0.039c-0.059-0.01-0.112-0.02-0.163-0.031
			s-0.095-0.025-0.131-0.047c-0.037-0.02-0.066-0.043-0.089-0.072c-0.021-0.031-0.032-0.066-0.032-0.111
			c0-0.088,0.041-0.16,0.125-0.215c0.083-0.057,0.199-0.084,0.351-0.084c0.078,0,0.155,0.006,0.231,0.021
			c0.077,0.016,0.148,0.031,0.217,0.053s0.132,0.043,0.187,0.07c0.057,0.023,0.104,0.049,0.143,0.07l0.236-0.428
			c-0.132-0.084-0.285-0.148-0.46-0.195s-0.361-0.07-0.56-0.07c-0.161,0-0.306,0.02-0.434,0.059
			c-0.128,0.035-0.236,0.09-0.327,0.158c-0.09,0.07-0.158,0.154-0.207,0.254c-0.048,0.1-0.072,0.213-0.072,0.336
			c0,0.203,0.072,0.367,0.217,0.492s0.357,0.207,0.638,0.246l0.262,0.035c0.15,0.02,0.261,0.053,0.332,0.1
			c0.069,0.047,0.104,0.105,0.104,0.178c0,0.096-0.048,0.168-0.144,0.225c-0.097,0.055-0.239,0.084-0.428,0.084
			c-0.104,0-0.196-0.006-0.278-0.023c-0.081-0.012-0.155-0.031-0.223-0.055s-0.128-0.051-0.181-0.082
			c-0.054-0.031-0.104-0.063-0.148-0.1L19.3,28.086c0.091,0.068,0.187,0.125,0.286,0.166c0.1,0.043,0.198,0.074,0.294,0.1
			c0.097,0.023,0.188,0.039,0.273,0.047c0.085,0.008,0.161,0.012,0.226,0.012c0.181,0,0.342-0.02,0.484-0.059
			c0.143-0.041,0.263-0.1,0.36-0.17c0.097-0.072,0.172-0.16,0.224-0.262c0.051-0.1,0.076-0.211,0.076-0.332
			C21.524,27.373,21.448,27.205,21.293,27.084"/>
		<path fill="#1D1D1B" d="M26.434,26.133c-0.105-0.117-0.23-0.207-0.377-0.271c-0.145-0.063-0.306-0.096-0.481-0.096
			c-0.186,0-0.355,0.033-0.508,0.096c-0.154,0.064-0.285,0.154-0.396,0.271c-0.111,0.115-0.196,0.256-0.258,0.418
			c-0.061,0.162-0.092,0.344-0.092,0.537c0,0.201,0.032,0.383,0.095,0.545s0.151,0.303,0.265,0.418
			c0.114,0.117,0.25,0.203,0.407,0.268c0.157,0.063,0.331,0.094,0.52,0.094c0.191,0,0.373-0.025,0.545-0.078
			c0.174-0.051,0.336-0.145,0.49-0.275l-0.273-0.391c-0.105,0.084-0.221,0.148-0.348,0.195c-0.127,0.045-0.253,0.07-0.38,0.07
			c-0.089,0-0.175-0.014-0.257-0.037c-0.082-0.025-0.156-0.063-0.223-0.115c-0.067-0.051-0.124-0.117-0.172-0.197
			c-0.046-0.082-0.079-0.18-0.096-0.293h1.86c0.002-0.029,0.006-0.064,0.008-0.1c0-0.035,0.002-0.07,0.002-0.105
			c0-0.195-0.029-0.375-0.088-0.535C26.619,26.389,26.537,26.248,26.434,26.133 M24.898,26.875c0.014-0.092,0.039-0.176,0.073-0.252
			c0.035-0.076,0.08-0.143,0.135-0.197c0.056-0.055,0.121-0.096,0.197-0.127c0.076-0.029,0.163-0.045,0.262-0.045
			c0.175,0,0.317,0.055,0.429,0.162c0.11,0.109,0.18,0.262,0.209,0.459H24.898z"/>
		<path fill="#1D1D1B" d="M33.727,26.135c-0.088-0.109-0.197-0.201-0.326-0.268c-0.129-0.068-0.285-0.102-0.465-0.102
			c-0.178,0-0.342,0.033-0.494,0.098c-0.152,0.066-0.285,0.158-0.398,0.275c-0.115,0.117-0.203,0.258-0.268,0.42
			c-0.066,0.16-0.098,0.338-0.098,0.529c0,0.193,0.031,0.373,0.098,0.533c0.064,0.162,0.152,0.303,0.268,0.42
			c0.113,0.115,0.246,0.207,0.398,0.273c0.152,0.064,0.316,0.098,0.494,0.098c0.18,0,0.336-0.033,0.465-0.1s0.238-0.156,0.326-0.266
			v0.301h0.549v-2.516h-0.549V26.135z M33.705,27.408c-0.037,0.1-0.09,0.186-0.154,0.256c-0.068,0.072-0.146,0.127-0.24,0.17
			c-0.092,0.041-0.195,0.063-0.311,0.063c-0.119,0-0.225-0.023-0.318-0.064c-0.094-0.045-0.172-0.102-0.238-0.174
			c-0.064-0.072-0.113-0.158-0.148-0.258c-0.035-0.096-0.053-0.201-0.053-0.313c0-0.109,0.018-0.213,0.053-0.311
			c0.035-0.1,0.084-0.184,0.148-0.256c0.066-0.074,0.145-0.131,0.238-0.174s0.199-0.064,0.318-0.064
			c0.115,0,0.219,0.021,0.311,0.061c0.094,0.043,0.172,0.1,0.24,0.17c0.064,0.072,0.117,0.156,0.154,0.256
			c0.037,0.098,0.055,0.205,0.055,0.318C33.76,27.205,33.742,27.313,33.705,27.408"/>
		<path fill="#1D1D1B" d="M23.647,27.846c-0.088,0.033-0.175,0.051-0.261,0.051c-0.057,0-0.108-0.01-0.156-0.027
			c-0.049-0.018-0.091-0.043-0.127-0.084c-0.035-0.035-0.063-0.084-0.085-0.146c-0.021-0.057-0.031-0.129-0.031-0.213V26.33h0.881
			v-0.498h-0.881v-0.764h-0.552v0.764h-0.502v0.498h0.502v1.105c0,0.334,0.079,0.582,0.237,0.74s0.381,0.236,0.666,0.236
			c0.159,0,0.303-0.023,0.43-0.072c0.084-0.033,0.162-0.068,0.234-0.111l-0.188-0.459C23.762,27.797,23.706,27.824,23.647,27.846"/>
		<path fill="#1D1D1B" d="M28.604,25.766c-0.154,0-0.293,0.029-0.418,0.084c-0.125,0.057-0.229,0.191-0.313,0.311v-0.328h-0.5v2.516
			h0.504v-1.385c0-0.105,0.016-0.201,0.047-0.287c0.029-0.084,0.07-0.154,0.123-0.211c0.053-0.059,0.115-0.102,0.188-0.131
			c0.074-0.031,0.154-0.045,0.242-0.045c0.066,0,0.139,0.008,0.215,0.023c0.039,0.008,0.076,0.018,0.111,0.029l0.162-0.525
			c-0.043-0.014-0.09-0.025-0.135-0.035C28.764,25.77,28.688,25.766,28.604,25.766"/>
		<path fill="#1D1D1B" d="M36.234,25.766c-0.154,0-0.293,0.029-0.418,0.084c-0.125,0.057-0.229,0.191-0.313,0.311v-0.328h-0.498
			v2.516h0.502v-1.385c0-0.105,0.016-0.201,0.045-0.287c0.031-0.084,0.072-0.154,0.123-0.211c0.053-0.059,0.117-0.102,0.189-0.131
			c0.074-0.031,0.154-0.045,0.242-0.045c0.066,0,0.139,0.008,0.215,0.023c0.039,0.008,0.076,0.018,0.111,0.029l0.162-0.525
			c-0.045-0.014-0.09-0.025-0.135-0.035C36.395,25.77,36.318,25.766,36.234,25.766"/>
		<path fill="#1D1D1B" d="M38.797,24.807v1.328c-0.088-0.109-0.195-0.201-0.324-0.268c-0.131-0.068-0.285-0.102-0.467-0.102
			c-0.176,0-0.34,0.033-0.492,0.098c-0.152,0.066-0.285,0.158-0.4,0.275c-0.113,0.117-0.203,0.258-0.268,0.42
			c-0.064,0.16-0.098,0.338-0.098,0.529c0,0.193,0.033,0.373,0.098,0.533c0.064,0.162,0.154,0.303,0.268,0.42
			c0.115,0.115,0.248,0.207,0.4,0.273c0.152,0.064,0.316,0.098,0.492,0.098c0.182,0,0.336-0.033,0.467-0.1
			c0.129-0.066,0.236-0.156,0.324-0.266v0.301h0.549v-3.541H38.797z M38.777,27.408c-0.037,0.1-0.09,0.186-0.156,0.256
			c-0.066,0.072-0.146,0.127-0.238,0.17c-0.094,0.041-0.195,0.063-0.311,0.063c-0.119,0-0.225-0.023-0.318-0.064
			c-0.094-0.045-0.174-0.102-0.238-0.174S37.4,27.5,37.365,27.4c-0.035-0.096-0.051-0.201-0.051-0.313
			c0-0.109,0.016-0.213,0.051-0.311c0.035-0.1,0.086-0.184,0.15-0.256c0.064-0.074,0.145-0.131,0.238-0.174s0.199-0.064,0.318-0.064
			c0.115,0,0.217,0.021,0.311,0.061c0.092,0.043,0.172,0.1,0.238,0.17c0.066,0.072,0.119,0.156,0.156,0.256
			c0.035,0.098,0.055,0.205,0.055,0.318C38.832,27.205,38.813,27.313,38.777,27.408"/>
		<path fill="#1D1D1B" d="M29.916,26.508c0.07-0.07,0.154-0.125,0.25-0.166c0.096-0.039,0.201-0.059,0.313-0.059
			c0.123,0,0.238,0.02,0.344,0.059c0.102,0.039,0.191,0.09,0.266,0.16l0.266-0.439c-0.1-0.08-0.211-0.145-0.336-0.195
			c-0.164-0.068-0.344-0.102-0.539-0.102c-0.193,0-0.375,0.033-0.539,0.102c-0.166,0.066-0.309,0.16-0.43,0.277
			c-0.119,0.119-0.213,0.258-0.281,0.42c-0.068,0.16-0.104,0.336-0.104,0.523c0,0.191,0.035,0.365,0.104,0.525
			c0.068,0.162,0.162,0.301,0.281,0.42c0.121,0.117,0.264,0.211,0.43,0.279c0.164,0.066,0.346,0.1,0.539,0.1
			c0.195,0,0.375-0.033,0.539-0.1c0.125-0.051,0.236-0.115,0.336-0.195l-0.266-0.439c-0.074,0.068-0.164,0.119-0.266,0.16
			c-0.105,0.039-0.221,0.059-0.344,0.059c-0.111,0-0.217-0.02-0.313-0.059c-0.096-0.041-0.18-0.096-0.25-0.168
			c-0.068-0.07-0.125-0.156-0.164-0.254c-0.041-0.1-0.061-0.207-0.061-0.328c0-0.117,0.02-0.227,0.061-0.324
			C29.791,26.664,29.848,26.578,29.916,26.508"/>
		<path fill="#E20D17" d="M21.899,14.07c0-3.016,1.408-5.697,3.601-7.436c-1.617-1.281-3.659-2.047-5.881-2.047
			c-5.238,0-9.483,4.246-9.483,9.482s4.245,9.482,9.483,9.482c2.222,0,4.264-0.768,5.881-2.049
			C23.307,19.768,21.899,17.084,21.899,14.07"/>
		<path fill="#EA610A" d="M21.899,14.07c0,3.014,1.408,5.697,3.601,7.434c2.194-1.736,3.6-4.42,3.6-7.434
			c0-3.016-1.406-5.697-3.6-7.436C23.307,8.373,21.899,11.055,21.899,14.07"/>
		<path fill="#F59E00" d="M31.381,4.588c-2.223,0-4.264,0.766-5.881,2.047c2.194,1.738,3.6,4.42,3.6,7.436
			c0,3.014-1.406,5.697-3.6,7.434c1.618,1.281,3.659,2.049,5.881,2.049c5.236,0,9.484-4.246,9.484-9.482S36.617,4.588,31.381,4.588"
			/>
	</g>
</g>
</svg>
