<?xml version="1.0" encoding="utf-8"?>
<!-- Generator: Adobe Illustrator 15.1.0, SVG Export Plug-In . SVG Version: 6.00 Build 0)  -->
<!DOCTYPE svg PUBLIC "-//W3C//DTD SVG 1.1//EN" "http://www.w3.org/Graphics/SVG/1.1/DTD/svg11.dtd">
<svg version="1.1" id="Layer_1" xmlns="http://www.w3.org/2000/svg" xmlns:xlink="http://www.w3.org/1999/xlink" x="0px" y="0px"
	 width="51px" height="33px" viewBox="0 0 51 33" enable-background="new 0 0 51 33" xml:space="preserve">
<g>
	<path fill="#26A6D1" d="M48.5,0h-46C1.122,0,0,1.121,0,2.5v28C0,31.879,1.122,33,2.5,33h46c1.379,0,2.5-1.121,2.5-2.5v-28
		C51,1.121,49.879,0,48.5,0z"/>
	<g>
		<path fill="#FFFFFF" d="M8.999,11.171l-4.81,10.644h5.758l0.715-1.696h1.631l0.714,1.696h6.339V20.52l0.564,1.295h3.279
			l0.564-1.322v1.322h13.183l1.603-1.652l1.5,1.652l6.771,0.015l-4.825-5.307l4.825-5.352h-6.666l-1.56,1.623l-1.454-1.623h-14.34
			l-1.231,2.746l-1.261-2.746h-5.747v1.25l-0.639-1.25H8.999z M10.113,12.682h2.808l3.19,7.219v-7.219h3.075l2.464,5.177
			l2.271-5.177h3.06v7.639h-1.862l-0.015-5.985L22.39,20.32h-1.665l-2.729-5.985v5.985h-3.829l-0.727-1.713H9.518l-0.726,1.711H6.74
			L10.113,12.682z M28.685,12.682h7.569l2.316,2.502l2.389-2.502h2.315l-3.518,3.839l3.518,3.796h-2.421l-2.314-2.531l-2.402,2.531
			h-7.452V12.682L28.685,12.682z M11.479,13.974l-1.291,3.052h2.583L11.479,13.974z M30.554,14.265v1.393h4.13v1.555h-4.13v1.522
			h4.632l2.152-2.242l-2.061-2.229h-4.724V14.265z"/>
	</g>
</g>
</svg>
