<?xml version="1.0" encoding="utf-8"?>
<!-- Generator: Adobe Illustrator 15.1.0, SVG Export Plug-In . SVG Version: 6.00 Build 0)  -->
<!DOCTYPE svg PUBLIC "-//W3C//DTD SVG 1.1//EN" "http://www.w3.org/Graphics/SVG/1.1/DTD/svg11.dtd">
<svg version="1.1" id="Layer_1" xmlns="http://www.w3.org/2000/svg" xmlns:xlink="http://www.w3.org/1999/xlink" x="0px" y="0px"
	 width="51px" height="33px" viewBox="0 0 51 33" enable-background="new 0 0 51 33" xml:space="preserve">
<g>
	<g>
		<path fill-rule="evenodd" clip-rule="evenodd" fill="#FFFFFF" d="M50.5,30.5c0,1.104-0.896,2-2,2h-46c-1.104,0-2-0.896-2-2v-28
			c0-1.104,0.896-2,2-2h46c1.104,0,2,0.896,2,2V30.5z"/>
		<path fill="#E6E6E6" d="M48.5,33h-46C1.122,33,0,31.879,0,30.5v-28C0,1.121,1.122,0,2.5,0h46C49.879,0,51,1.121,51,2.5v28
			C51,31.879,49.879,33,48.5,33z M2.5,1C1.673,1,1,1.673,1,2.5v28C1,31.327,1.673,32,2.5,32h46c0.826,0,1.5-0.673,1.5-1.5v-28
			C50,1.673,49.326,1,48.5,1H2.5z"/>
	</g>
	<g>
		<path fill="#139AD6" d="M32.408,11.195h-3.031c-0.178,0-0.355,0.178-0.445,0.357l-1.248,7.844c0,0.179,0.09,0.268,0.268,0.268
			h1.605c0.178,0,0.268-0.089,0.268-0.268l0.355-2.229c0-0.179,0.178-0.356,0.447-0.356h0.979c2.051,0,3.211-0.981,3.479-2.942
			c0.178-0.801,0-1.516-0.357-1.961C34.191,11.463,33.389,11.195,32.408,11.195 M32.766,14.137c-0.178,1.069-0.98,1.069-1.783,1.069
			h-0.535l0.357-2.052c0-0.086,0.09-0.176,0.268-0.176h0.178c0.535,0,1.07,0,1.338,0.356C32.766,13.425,32.766,13.691,32.766,14.137
			"/>
		<g>
			<path fill="#263B80" d="M10.568,11.195h-3.03c-0.179,0-0.357,0.178-0.446,0.357l-1.249,7.844c0,0.179,0.09,0.268,0.269,0.268
				h1.427c0.178,0,0.355-0.179,0.445-0.357l0.356-2.139c0-0.179,0.179-0.356,0.446-0.356h0.98c2.05,0,3.209-0.981,3.477-2.942
				c0.178-0.801,0-1.516-0.356-1.961C12.351,11.463,11.637,11.195,10.568,11.195 M10.924,14.137
				c-0.179,1.069-0.979,1.069-1.783,1.069H8.696l0.356-2.052c0-0.086,0.089-0.176,0.268-0.176h0.179c0.534,0,1.069,0,1.337,0.356
				C10.924,13.425,11.013,13.691,10.924,14.137"/>
			<path fill="#263B80" d="M19.75,14.047h-1.426c-0.089,0-0.268,0.09-0.268,0.179l-0.09,0.446l-0.089-0.178
				c-0.356-0.447-0.979-0.625-1.694-0.625c-1.604,0-3.03,1.248-3.297,2.942c-0.179,0.893,0.089,1.694,0.534,2.229
				c0.445,0.534,1.07,0.711,1.872,0.711c1.337,0,2.051-0.801,2.051-0.801l-0.089,0.445c0,0.179,0.089,0.268,0.267,0.268h1.338
				c0.178,0,0.355-0.179,0.445-0.357l0.802-4.991C20.018,14.226,19.839,14.047,19.75,14.047 M17.7,16.9
				c-0.179,0.804-0.802,1.426-1.693,1.426c-0.445,0-0.803-0.178-0.981-0.356c-0.178-0.266-0.267-0.623-0.267-1.069
				c0.089-0.804,0.803-1.426,1.604-1.426c0.446,0,0.713,0.178,0.981,0.355C17.611,16.097,17.7,16.544,17.7,16.9"/>
		</g>
		<path fill="#139AD6" d="M41.502,14.047h-1.426c-0.09,0-0.268,0.09-0.268,0.179l-0.09,0.446l-0.088-0.178
			c-0.357-0.447-0.98-0.625-1.695-0.625c-1.604,0-3.029,1.248-3.297,2.942c-0.178,0.893,0.088,1.694,0.533,2.229
			c0.447,0.534,1.07,0.711,1.873,0.711c1.336,0,2.051-0.801,2.051-0.801l-0.09,0.445c0,0.179,0.09,0.268,0.268,0.268h1.338
			c0.178,0,0.355-0.179,0.445-0.357l0.803-4.991C41.77,14.226,41.68,14.047,41.502,14.047 M39.451,16.9
			c-0.178,0.804-0.801,1.426-1.693,1.426c-0.445,0-0.803-0.178-0.98-0.356c-0.18-0.266-0.268-0.623-0.268-1.069
			c0.088-0.804,0.803-1.426,1.605-1.426c0.445,0,0.711,0.178,0.98,0.355C39.451,16.097,39.541,16.544,39.451,16.9"/>
		<path fill="#263B80" d="M27.506,14.047h-1.515c-0.179,0-0.268,0.09-0.356,0.179l-1.962,3.032l-0.892-2.854
			c-0.088-0.179-0.178-0.268-0.445-0.268h-1.427c-0.178,0-0.268,0.179-0.268,0.357l1.605,4.726l-1.516,2.138
			c-0.09,0.18,0,0.447,0.178,0.447h1.427c0.179,0,0.268-0.09,0.357-0.18l4.903-7.041C27.863,14.315,27.684,14.047,27.506,14.047"/>
		<path fill="#139AD6" d="M43.197,11.463l-1.25,8.022c0,0.179,0.09,0.267,0.268,0.267h1.248c0.18,0,0.357-0.177,0.447-0.355
			l1.248-7.844c0-0.18-0.09-0.27-0.27-0.27h-1.426C43.375,11.195,43.285,11.283,43.197,11.463"/>
	</g>
</g>
</svg>
