<?xml version="1.0" encoding="utf-8"?>
<!-- Generator: Adobe Illustrator 15.1.0, SVG Export Plug-In . SVG Version: 6.00 Build 0)  -->
<!DOCTYPE svg PUBLIC "-//W3C//DTD SVG 1.1//EN" "http://www.w3.org/Graphics/SVG/1.1/DTD/svg11.dtd">
<svg version="1.1" id="Layer_1" xmlns="http://www.w3.org/2000/svg" xmlns:xlink="http://www.w3.org/1999/xlink" x="0px" y="0px"
	 width="31px" height="31px" viewBox="0 0 31 31" enable-background="new 0 0 31 31" xml:space="preserve">
<g>
	<path fill="#ED1C24" d="M15.5,0.5c-8.271,0-15,6.729-15,15c0,8.271,6.729,15,15,15s15-6.729,15-15C30.5,7.229,23.771,0.5,15.5,0.5z
		 M15.5,28.5c-7.168,0-13-5.831-13-13c0-7.168,5.832-13,13-13s13,5.832,13,13C28.5,22.669,22.668,28.5,15.5,28.5z"/>
	<path fill="#ED1C24" d="M20.424,14.712c0-1.447-0.564-2.808-1.588-3.831c-1.023-1.023-2.383-1.586-3.83-1.586
		s-2.807,0.563-3.83,1.586c-1.023,1.023-1.588,2.383-1.588,3.831c0,1.446,0.564,2.808,1.588,3.83
		c1.023,1.023,2.383,1.587,3.83,1.587c1.107,0,2.16-0.336,3.053-0.949l3.598,3.597l1.414-1.414l-3.596-3.597
		C20.088,16.873,20.422,15.82,20.424,14.712z M12.59,17.129c-0.646-0.646-1.002-1.503-1.002-2.417s0.355-1.771,1.002-2.417
		c0.645-0.646,1.504-1,2.416-1c0.914,0,1.771,0.355,2.416,1c0.646,0.646,1.002,1.504,1.002,2.417s-0.357,1.771-1.002,2.416
		C16.131,18.421,13.881,18.42,12.59,17.129z"/>
</g>
</svg>
