<?xml version="1.0" encoding="utf-8"?>
<!-- Generator: Adobe Illustrator 15.1.0, SVG Export Plug-In . SVG Version: 6.00 Build 0)  -->
<!DOCTYPE svg PUBLIC "-//W3C//DTD SVG 1.1//EN" "http://www.w3.org/Graphics/SVG/1.1/DTD/svg11.dtd">
<svg version="1.1" id="Layer_1" xmlns="http://www.w3.org/2000/svg" xmlns:xlink="http://www.w3.org/1999/xlink" x="0px" y="0px"
	 width="35px" height="35px" viewBox="0 0 35 35" enable-background="new 0 0 35 35" xml:space="preserve">
<path fill="#636363" d="M17.5,0C7.836,0,0,7.836,0,17.5S7.836,35,17.5,35S35,27.164,35,17.5S27.164,0,17.5,0z M25.754,13.264
	c0.01,0.185,0.014,0.369,0.014,0.549c0,5.635-4.283,12.128-12.123,12.128c-2.408,0-4.646-0.708-6.529-1.915
	c0.33,0.037,0.669,0.058,1.012,0.058c2,0,3.836-0.681,5.292-1.823c-1.861-0.035-3.437-1.264-3.978-2.962
	c0.263,0.054,0.527,0.079,0.8,0.079c0.389,0,0.766-0.051,1.123-0.149c-1.946-0.39-3.422-2.112-3.422-4.178
	c0-0.019,0-0.034,0.008-0.056c0.572,0.321,1.226,0.515,1.926,0.536c-1.144-0.765-1.896-2.07-1.896-3.548
	c0-0.777,0.213-1.511,0.58-2.141c2.101,2.577,5.238,4.273,8.779,4.45c-0.072-0.31-0.107-0.636-0.107-0.97
	c0-2.354,1.905-4.263,4.26-4.263c1.224,0,2.333,0.52,3.111,1.345c0.972-0.188,1.886-0.544,2.705-1.035
	c-0.316,0.996-0.996,1.836-1.875,2.359c0.865-0.103,1.685-0.331,2.452-0.668C27.312,11.912,26.587,12.663,25.754,13.264z"/>
</svg>
