<?xml version="1.0" encoding="utf-8"?>
<!-- Generator: Adobe Illustrator 15.1.0, SVG Export Plug-In . SVG Version: 6.00 Build 0)  -->
<!DOCTYPE svg PUBLIC "-//W3C//DTD SVG 1.1//EN" "http://www.w3.org/Graphics/SVG/1.1/DTD/svg11.dtd">
<svg version="1.1" id="Layer_1" xmlns="http://www.w3.org/2000/svg" xmlns:xlink="http://www.w3.org/1999/xlink" x="0px" y="0px"
	 width="35px" height="35px" viewBox="0 0 35 35" enable-background="new 0 0 35 35" xml:space="preserve">
<path fill="#636363" d="M17.5,0C7.836,0,0,7.836,0,17.5S7.836,35,17.5,35S35,27.164,35,17.5S27.164,0,17.5,0z M19.323,22.765
	c-1.465,0-2.844-0.791-3.316-1.691c0,0-0.789,3.128-0.955,3.732c-0.59,2.133-2.318,4.269-2.451,4.444
	c-0.096,0.121-0.303,0.084-0.322-0.076c-0.037-0.274-0.48-2.969,0.037-5.162c0.262-1.104,1.748-7.398,1.748-7.398
	s-0.434-0.87-0.434-2.149c0-2.014,1.166-3.517,2.621-3.517c1.234,0,1.832,0.927,1.832,2.037c0,1.244-0.793,3.099-1.201,4.819
	c-0.338,1.444,0.723,2.617,2.145,2.617c2.57,0,4.303-3.305,4.303-7.221c0-2.977-2-5.202-5.648-5.202
	c-4.117,0-6.686,3.071-6.686,6.503c0,1.184,0.35,2.019,0.896,2.664c0.254,0.295,0.285,0.414,0.195,0.757
	c-0.068,0.249-0.215,0.85-0.275,1.09c-0.09,0.343-0.373,0.466-0.684,0.339c-1.895-0.773-2.779-2.852-2.779-5.188
	c0-3.857,3.252-8.484,9.705-8.484c5.186,0,8.598,3.75,8.598,7.78C26.649,18.787,23.688,22.765,19.323,22.765z"/>
</svg>
