<?xml version="1.0" encoding="utf-8"?>
<!-- Generator: Adobe Illustrator 20.0.0, SVG Export Plug-In . SVG Version: 6.00 Build 0)  -->
<svg version="1.1" id="Layer_1" xmlns="http://www.w3.org/2000/svg" xmlns:xlink="http://www.w3.org/1999/xlink" x="0px" y="0px"
	 viewBox="0 0 792.3 150.1" style="enable-background:new 0 0 792.3 150.1;" xml:space="preserve">
<style type="text/css">
	.st0{fill:none;stroke:#070001;stroke-width:3;stroke-miterlimit:10;}
	.st1{fill:#070001;stroke:#070001;stroke-width:2;stroke-miterlimit:10;}
	.st2{fill:#ffffff;}
	.st3{fill:#EBAB2B;}
</style>
<circle class="st0" cx="780.2" cy="51.7" r="9.3"/>
<path class="st1" d="M784.7,57.1h-1.1l-3.7-5H778v5h-1v-11c1,0,2.2,0,3.8,0c2.3,0,3.5,1.9,3.5,3.5c0,1.8-1.1,3.3-3.5,3.3L784.7,57.1
	z M778,52.1h2.7c1.9,0,2.7-1.5,2.7-3c0-1.3-0.8-3-2.6-3H778V52.1z"/>
<path class="st2" d="M185,149.7c-8.9,0-16-7.7-16-17.1V58.8c0-9.4,7.1-17.1,16-17.1c8.9,0,16,7.7,16,17.1v73.8
	C201,142,193.9,149.7,185,149.7z M200.7,16c0,9-7.3,16.3-16,16.3c-9,0-16.3-7.3-16.3-16.3c0-8.7,7.3-16,16.3-16
	C193.4,0,200.7,7.3,200.7,16z"/>
<path class="st2" d="M278.9,133.1c0,8.9-7.3,16-16.2,16h-3c-23.9,0-40.7-18.2-40.7-41.7V32.5c0-8.9,7.6-16.2,16.5-16.2
	c8.9,0,16.5,7.3,16.5,16.2v15.6h13.9c7.9,0,14.2,6.2,14.2,14.1c0,7.7-6.3,13.9-14.2,13.9H252v31.3c0,5.1,1.8,9.7,7.7,9.7h3
	C271.6,117.1,278.9,124.2,278.9,133.1z"/>
<path class="st2" d="M385,92.2v41.3c0,8.9-7.1,16.2-16,16.2c-8.9,0-16-7.3-16-16.2V92.2c0-6.9-5.7-12.5-12.6-12.5
	c-6.7,0-12.4,5.7-12.4,12.5v41.3c0,8.9-7.5,16.2-16.4,16.2c-9.1,0-16.6-7.3-16.6-16.2V31.3c0-9.1,7.5-16.4,16.6-16.4
	c8.9,0,16.4,7.3,16.4,16.4v17.6c4-1,8-1.6,12.2-1.6C365.1,47.3,385,67.3,385,92.2z"/>
<path class="st2" d="M546,92v41.5c0,8.9-7.8,16.2-16.5,16.2c-8.7,0-16.5-7.3-16.5-16.2V92c0-6.9-5.1-12.3-12-12.3
	c-6.7,0-12,5.5-12,12.3v41.5c0,8.9-7.6,16.2-16.5,16.2c-8.7,0-16.5-7.3-16.5-16.2V92c0-6.9-5.3-12.3-12-12.3c-6.9,0-12,5.5-12,12.3
	v41.5c0,8.9-7.7,16.2-16.6,16.2c-8.7,0-16.4-7.3-16.4-16.2V63.9c0-8.7,7.1-15.4,15.4-15.4c3.8,0,7.2,1.4,9.8,3.6
	c5.9-3,12.6-4.7,19.7-4.7c10.7,0,20.9,4,28.6,10.3c7.7-6.3,18-10.3,28.7-10.3C525.6,47.5,546,67.5,546,92z"/>
<path class="st3" d="M664.4,97.9c0,28.5-23.3,51.8-51.8,51.8c-28.5,0-51.8-23.3-51.8-51.8s23.3-51.8,51.8-51.8
	C641.1,46.1,664.4,69.4,664.4,97.9z M592.9,97.9c0,10.9,8.7,19.6,19.6,19.6c10.9,0,19.6-8.7,19.6-19.6s-8.7-19.6-19.6-19.6
	C601.6,78.3,592.9,87,592.9,97.9z"/>
<path class="st2" d="M770,92v41.7c0,8.7-7.5,16-16.4,16c-8.9,0-16.6-7.3-16.6-16V92c0-6.9-5.5-12.3-12.4-12.3
	c-6.9,0-12.6,5.5-12.6,12.3v41.7c0,8.7-7.1,16-16,16c-8.9,0-16-7.3-16-16V63.9c0-8.5,6.7-15.4,15.2-15.4c3.6,0,7.1,1.4,9.7,3.4
	c5.9-2.8,13-4.5,20.1-4.5C749.7,47.5,770,67.5,770,92z"/>
<path class="st2" d="M154,67.5l-29.4,71.9c-4,9.6-11.7,10.3-15.5,10.3c-5.7,0-12.4-2.9-14.9-9l-15.9-39.4l-16.1,39.4
	c-2.3,5.7-7.8,9-13.4,9c-3.8,0-13-0.6-17-10.3L2.4,67.5c-3.6-8.6,0.6-18,9-21.6c8.6-3.6,18.2,0.4,21.6,9l16.4,40l15.3-37.3
	c2.3-5.7,7.8-9,13.6-9c5.7,0,11.1,3.4,13.4,9L107,95l16.4-40c3.4-8.6,13.2-12.6,21.6-9C153.4,49.5,157.6,58.9,154,67.5z"/>
</svg>
