<!-- Generator: Avocode 2.2.1-ae398a7 - http://avocode.com -->
<svg height="33" width="28" xmlns:xlink="http://www.w3.org/1999/xlink" xmlns="http://www.w3.org/2000/svg" viewBox="0 0 28 33">
    <path fill="#6b7076" fill-rule="evenodd" d="M 18.96 14.19 C 19.15 14.33 19.32 14.4 19.48 14.43 C 19.48 14.43 20.16 17.32 20.16 17.32 C 20.16 17.32 22 14.7 22 14.7 C 22 14.7 21.62 14.47 21.62 14.47 C 21.62 14.47 21.55 14.43 21.55 14.43 C 21.9 13.58 22.17 12.69 21.91 12.33 C 21.59 11.88 20.3 10.56 20.2 10.46 C 19.74 9.96 19.11 10.17 18.77 10.63 C 18.62 10.85 18.43 11.05 18.32 11.26 C 18.32 11.26 17.31 13.03 18.96 14.19 Z M 4.26 32.32 C 3.7 31.21 4.56 29.41 4.59 29.41 C 4.68 29.43 4.83 29.46 4.83 29.46 C 4.83 29.46 4.98 29.87 4.98 29.87 C 4.98 29.87 5.03 29.87 5.07 29.88 C 7.63 30.36 10.52 30.23 11.08 29.84 C 12.45 28.85 13.81 26.32 14.23 25.07 C 14.23 25.07 16.84 23.55 18.9 23.78 C 20.41 23.95 21.02 25.26 21.02 27.18 C 21.11 27.18 21.66 27.23 21.66 27.23 C 21.66 27.23 21.61 27.45 21.61 27.55 C 21.6 27.64 21.37 27.89 21.38 27.98 C 21.56 28.72 21.91 29.55 22.7 29.91 C 25.4 29.26 28 26.73 28 26.73 C 28 26.73 26.98 25.85 26.98 25.85 C 26.18 26.5 24.95 27.05 24.14 27.14 C 24.14 27.14 24.93 21.17 24.08 20.38 C 23.03 19.38 21.1 18.93 20.19 19.06 C 20.19 19.06 21.16 21.77 21.16 21.77 C 21.16 21.77 9.83 24.52 9.83 24.52 C 9.83 24.52 9.19 22.87 9 22.3 C 9.02 23.66 8.09 25.85 7.71 26.28 C 6.76 27.38 5.07 27.39 3.95 27.14 C 3.95 27.14 2.95 26.89 2.95 26.89 C 2.95 26.89 2.09 28.07 1.78 28.75 C 0.41 31.81 3.09 33 3.09 33 C 3.09 33 25.51 33 25.51 33 C 25.04 32.83 24.52 32.68 23.96 32.56 C 19.46 31.06 9.33 31.13 4.26 32.32 Z M 7.01 20.97 C 7.06 20.97 9.35 20.85 9.95 20.3 C 9.96 20.3 10.97 18.56 10.05 17.89 C 9.76 17.66 9.34 17.74 7.96 17.8 C 6.58 17.86 6.1 17.64 6.1 17.64 C 6.1 17.64 7.2 16.82 7.2 16.82 C 7.2 16.82 6.28 13.15 6.28 13.15 C 6.28 13.15 15.9 10.94 15.9 10.94 C 15.9 10.94 15.92 10.93 15.92 10.93 C 14.75 9.87 12.99 9.06 10.11 9.36 C 10.11 9.36 9.52 8.81 9.52 8.81 C 9.86 8.63 10.03 8.61 10.33 8.32 C 9.41 6.46 8.99 4.45 8.97 3.35 C 9.64 3.16 12.3 2.92 12.85 0 C 12.85 0 10.96 1.3 9.48 0.56 C 6.99 -0.7 5.26 1.6 5.26 1.6 C 5.26 1.6 3.58 1.68 3.62 2.68 C 3.74 5.67 4.72 7.86 6.6 10.41 C 4.32 11.42 3.18 12.4 2.11 13.95 C 0.69 16.01 0 18.75 0 18.75 C 0 18.75 2 21.13 6.65 21.63 C 6.74 21.26 6.93 21.17 7.01 20.97 Z" />
</svg>