<?xml version="1.0" encoding="utf-8"?>
<!-- Generator: Adobe Illustrator 21.1.0, SVG Export Plug-In . SVG Version: 6.00 Build 0)  -->
<svg version="1.1" id="Capa_1" xmlns="http://www.w3.org/2000/svg" xmlns:xlink="http://www.w3.org/1999/xlink" x="0px" y="0px"
	 viewBox="0 0 26.8 28" style="enable-background:new 0 0 26.8 28;" xml:space="preserve">
<style type="text/css">
	.st0{fill:#010002;}
</style>
<g>
	<g>
		<g>
			<path class="st0" d="M1.9,5c-0.4,0-0.7,0-0.8,0.1S1,5.3,1.1,5.4c0.1,0.1,0.2,0.2,0.5,0.5C1.7,6,1.8,6,1.9,6.1l11.4,9.4l11.4-9.4
				L25,5.9c0.3-0.2,0.4-0.4,0.5-0.5c0.1-0.1,0.1-0.2,0-0.3S25.1,5,24.7,5H12.6H1.9z"/>
			<path class="st0" d="M0.4,7.2v13.9c0,0.4,0.2,0.8,0.5,1.2C1.2,22.8,1.5,23,1.8,23h23.1c0.3,0,0.6-0.2,0.9-0.6
				c0.3-0.4,0.5-0.8,0.5-1.2V7.2L13.3,17.9L0.4,7.2z"/>
		</g>
	</g>
</g>
</svg>
