<?xml version="1.0" encoding="utf-8"?>
<!-- Generator: Adobe Illustrator 21.1.0, SVG Export Plug-In . SVG Version: 6.00 Build 0)  -->
<svg version="1.1" id="Capa_1" xmlns="http://www.w3.org/2000/svg" xmlns:xlink="http://www.w3.org/1999/xlink" x="0px" y="0px"
	 viewBox="0 0 26.8 28" style="enable-background:new 0 0 26.8 28;" xml:space="preserve">
<path d="M13.5,2.4C7.2,2.4,2.1,7.5,2.1,13.8c0,2,0.5,3.9,1.5,5.7l-1.9,5.6c0,0.1,0,0.3,0.1,0.4c0.1,0.1,0.2,0.1,0.3,0.1
	c0,0,0.1,0,0.1,0L8.3,24c1.6,0.8,3.4,1.2,5.2,1.2c6.3,0,11.4-5.1,11.4-11.4S19.8,2.4,13.5,2.4z M20.6,19l-0.7,0.7
	c-0.9,0.9-1.8,1.3-2.8,1.3l0,0c-1.4,0-2.9-0.8-4.4-2.4l-3.9-3.9c-1.2-1.2-2-2.4-2.2-3.6C6.2,9.7,6.6,8.5,7.7,7.4l0.7-0.7
	C8.8,6.3,9.5,6.2,10,6.5C11,7,12.1,8.8,12.2,9c0.2,0.4,0.3,0.8,0.2,1.1c-0.1,0.3-0.2,0.5-0.5,0.6c-0.3,0.3-0.7,0.6-0.7,0.7
	c-0.4,0.6-0.3,1,0.2,1.5l3.1,3.1c0.5,0.5,0.9,0.6,1.5,0.2c0.1-0.1,0.4-0.4,0.7-0.7c0.2-0.3,0.5-0.5,0.9-0.5c0.3,0,0.5,0.1,0.8,0.2
	c0.2,0.1,2,1.2,2.5,2.2C21.2,17.8,21.1,18.5,20.6,19z"/>
</svg>
