<svg xmlns="http://www.w3.org/2000/svg" viewBox="0 0 161 248.18"><path d="M30.63,207.08l-.42.27.42-.27C16.66,185.12,9,155.83,9,124.59S16.66,64.05,30.63,42.1C44.27,20.66,62.17,9,81,9s36.73,11.71,50.37,33.15c14,21.95,21.68,51.25,21.68,82.49s-7.71,60.53-21.68,82.49C117.73,228.51,99.83,240.23,81,240.23S44.27,228.52,30.63,207.08Zm-7.13,4.54c15.18,23.84,35.59,37.06,57.5,37.06s42.32-13.22,57.5-37.07c14.84-23.32,23-54.23,23-87s-8.16-63.7-23-87C123.32,13.72,102.91.5,81,.5S38.68,13.72,23.5,37.56C8.66,60.89.5,91.79.5,124.59S8.66,188.29,23.5,211.62Z" transform="translate(-0.5 -0.5)"/><path d="M125.71,182.5c-2-1.13-3.76-6-3.13-11.81,3.79-23.93-3.37-35.31-26.31-37.06l6.59-4.39-2.64-4.65a74.37,74.37,0,0,1-20.47,3.14,74.38,74.38,0,0,1-20.48-3.14l-2.63,4.65,6.88,4.59c-21.19,2.31-27.76,13.72-24.09,36.86.63,5.78-1.13,10.68-3.14,11.81l-1.38-2L30,182.75l1.26,7.41H57c5.77-19.22-1.38-28.39-1.38-37.81,0-13.94,16.83-16.2,17.2-1.88v15.82c0,9.93-2.63,17-9.67,18.34l.88,5.53H98l.88-5.53c-7-1.38-9.68-8.42-9.68-18.34V150.47c.38-14.32,17.21-12.06,17.21,1.88,0,9.42-7.16,18.59-1.38,37.81h25.75l1.25-7.41-4.89-2.26Z" transform="translate(-0.5 -0.5)"/><path d="M80.93,47C57.82,47,46.27,62.07,46.27,80.66s11.55,33.79,34.66,33.79,34.8-15.07,34.8-33.79S104.17,47,80.93,47Zm4.52,19.47c4.27,0,6.53,2.89,6.53,6.4s-2.26,6.53-6.53,6.53-6.4-2.89-6.4-6.53A6.06,6.06,0,0,1,85.45,66.47ZM81.06,99.13A32.66,32.66,0,0,1,52.67,82.92,33.28,33.28,0,0,1,70,68.73a22,22,0,0,0-.5,4.14c0,9,5.78,16.08,16,16.08,9.93,0,15.7-6.53,16.08-15.07a32.21,32.21,0,0,1,7.92,9A32.67,32.67,0,0,1,81.06,99.13Z" transform="translate(-0.5 -0.5)"/></svg>
