<svg xmlns="http://www.w3.org/2000/svg" viewBox="0 0 170.01 29"><path d="M34.68,26.19c-.61-.34-1.15-1.84-1-3.61C35,14.58,33.15,9.08,27.9,9A6.68,6.68,0,0,0,22.21,12l-.64-2.88-7.47.8-.38,2.27,1.49.69.43-.61c1.45.81,1.76,2.92,1.76,5v4c0,2-.31,4.15-1.76,5l-.43-.62-1.49.7.38,2.27h11l.27-1.7c-2.14-.42-2.95-2.57-2.95-5.61V17.58c.23-6.12,5.33-7.39,6.4-2.39.88,4.23-2.18,7.46-.42,13.35h7.86l.38-2.27-1.5-.7Z" fill="#fff"/><path d="M8.66,21.23V9L.38,9.88,0,12.15l1.5.7.42-.62c1.45.81,1.76,2.93,1.76,5v4c0,2-.3,4.16-1.76,5l-.42-.61L0,26.27l.38,2.27h11l.27-1.7C9.47,26.42,8.66,24.27,8.66,21.23Z" fill="#fff"/><path d="M8.05,4.69A20,20,0,0,0,6.32,0,24.14,24.14,0,0,1,1.53,3.08,28,28,0,0,0,3.26,7.81,24.32,24.32,0,0,1,8.05,4.69Z" fill="#fff"/><path d="M144.9,4.69A20.44,20.44,0,0,0,143.18,0a24.73,24.73,0,0,1-4.79,3.08,27.93,27.93,0,0,0,1.72,4.73A24.32,24.32,0,0,1,144.9,4.69Z" fill="#fff"/><path d="M145.51,21.23V9l-8.27.84-.39,2.27,1.5.69.42-.61c1.45.81,1.76,2.92,1.76,5v4c0,2-.3,4.15-1.76,5l-.42-.62-1.5.7.39,2.27h10.95l.27-1.7C146.32,26.42,145.51,24.27,145.51,21.23Z" fill="#fff"/><path d="M51.08,17.88c-3.14-1.3-7-1.73-7-4.27,0-2.8,4.79-4.11,6.17.39l1.19,2h1.76l.77-4.54A11.91,11.91,0,0,0,46.29,9c-4.48,0-7.21,2.31-7.21,5.65,0,3.54,3.11,5,6.21,6,1.5.51,3.26,1,3.37,3.16.15,3.73-4.83,4.61-6.2.11l-1.23-2H39.5l-.76,4.58a13,13,0,0,0,8,2.46c4.52,0,8-1.77,8-5.92C54.76,19.77,52.62,18.54,51.08,17.88Z" fill="#fff"/><path d="M168.51,25.57l-.42.62c-.61-.35-1.08-1.85-.93-4C168,14.5,166.55,9.12,159.35,9a12.21,12.21,0,0,0-7.7,2.46l.76,4.5h1.76l1.23-2c1.38-4.54,7-4,6.59.92l-6.47,2.31c-3.87,1.39-5.9,4.43-5.1,7.88a4.45,4.45,0,0,0,4.56,3.7c2.44,0,4.55-1.62,6.31-4.81a12.91,12.91,0,0,0,.63,4.54h7.7l.39-2.27Zm-10.89-1c-1.8.19-2.76-3.19-1.26-4.77,1.07-1.07,4.44-2.38,5.86-2.84C162.22,21,159.31,24.42,157.62,24.61Z" fill="#fff"/><path d="M108,26.19c-.62-.34-1.15-1.84-1-3.61,1.15-7.33-1-10.81-8-11.35l2-1.35-.81-1.42a22.6,22.6,0,0,1-6.24,1,22.73,22.73,0,0,1-6.25-1l-.81,1.42L89,11.29c-6.46.71-8.47,4.2-7.35,11.29.19,1.77-.34,3.26-1,3.61l-.42-.61-1.5.69.39,2.27H87c1.77-5.88-.42-8.69-.42-11.58,0-4.27,5.14-5,5.25-.58v4.85c0,3-.8,5.19-3,5.62l.27,1.69H99.48l.26-1.69c-2.14-.43-2.95-2.58-2.95-5.62V16.38c.12-4.38,5.26-3.69,5.26.58,0,2.89-2.19,5.7-.42,11.58h7.85l.38-2.27-1.49-.69Z" fill="#fff"/><path d="M132.64,26.19c-.62-.34-1.15-1.84-1-3.61,1.26-8-.58-13.5-5.83-13.54A6.69,6.69,0,0,0,120.16,12l-.63-2.88-7.47.81-.39,2.26,1.5.7.42-.62c1.45.81,1.77,2.93,1.77,5v4c0,2-.31,4.16-1.77,5l-.42-.61-1.5.69.39,2.27h11l.27-1.69c-2.15-.43-3-2.58-3-5.62V17.58c.24-6.12,5.33-7.39,6.41-2.39.88,4.23-2.19,7.47-.43,13.35h7.86l.38-2.27-1.49-.69Z" fill="#fff"/><path d="M67.64,8.34c-7,0-10.58,4.62-10.58,10.31S60.59,29,67.64,29s10.62-4.62,10.62-10.35S74.73,8.34,67.64,8.34Zm1.38,6a1.86,1.86,0,0,1,2,2,2,2,0,1,1-3.94,0A1.85,1.85,0,0,1,69,14.31Zm-1.34,10a10,10,0,0,1-8.66-5A10.12,10.12,0,0,1,64.31,15a6.59,6.59,0,0,0-.16,1.27,4.89,4.89,0,0,0,9.78.31,9.72,9.72,0,0,1,2.41,2.77A10,10,0,0,1,67.68,24.31Z" fill="#fff"/></svg>
